<svg width="660" height="121" viewBox="0 0 660 121" fill="none" xmlns="http://www.w3.org/2000/svg">
<path d="M186.985 93.215V84.6127C183.698 90.9709 178.767 94.1501 172.194 94.1501C169.783 94.2305 167.387 93.7311 165.199 92.6918C163.011 91.6525 161.091 90.1024 159.594 88.1658C156.49 84.2386 155.029 78.6284 155.029 71.7091C154.742 65.1654 156.606 58.7123 160.324 53.3824C161.882 51.1718 163.945 49.3855 166.332 48.1794C168.72 46.9733 171.359 46.384 174.02 46.4631C176.523 46.4119 179.006 46.9404 181.283 48.0089C183.559 49.0775 185.571 50.6586 187.167 52.6343V26.6403H195.202V93.215H186.985ZM186.985 58.4316C182.785 54.6914 178.767 52.8213 175.115 52.8213C173.408 52.7503 171.714 53.1459 170.205 53.9675C168.697 54.7892 167.429 56.0072 166.533 57.4965C164.267 61.5903 163.19 66.2617 163.429 70.9611C163.429 81.6205 166.898 87.0438 173.837 87.0438C178.402 87.0438 182.785 84.6127 186.985 79.5635V58.4316ZM234.279 87.4178C229.349 91.906 224.784 94.3371 220.219 94.3371C218.541 94.4098 216.866 94.1323 215.297 93.5215C213.727 92.9107 212.295 91.9793 211.088 90.7839C209.915 89.6209 208.986 88.225 208.358 86.6815C207.73 85.138 207.417 83.4795 207.436 81.8075C207.328 79.5136 207.831 77.2326 208.893 75.2096C209.954 73.1866 211.534 71.4981 213.462 70.3253C217.48 67.7072 223.505 66.2111 231.175 66.2111H233.001V60.7879C233.001 55.5517 230.262 52.9335 224.966 52.9335C220.075 53.0822 215.301 54.4977 211.088 57.0477V50.1284C215.946 48.0172 221.152 46.8747 226.427 46.7623C231.297 46.7623 234.949 47.8843 237.383 50.1284C239.757 52.3725 241.035 55.9257 241.035 60.7879V81.5457C241.035 86.2209 242.496 88.652 245.235 88.652C245.789 88.6641 246.341 88.6012 246.879 88.465L247.427 92.9532C245.546 93.8687 243.482 94.3172 241.401 94.2623C237.749 94.3371 235.192 91.906 234.279 87.4178ZM233.001 82.9296V71.1481H230.262C226.506 71.0125 222.784 71.9169 219.488 73.7662C218.273 74.3935 217.252 75.3563 216.542 76.5458C215.833 77.7354 215.461 79.1044 215.471 80.4985C215.453 81.4357 215.622 82.3668 215.968 83.2349C216.313 84.103 216.827 84.8899 217.48 85.5477C218.797 86.8671 220.567 87.6055 222.41 87.6048C226.336 87.2421 230.047 85.6041 233.001 82.9296ZM277.556 93.215C275.487 93.8911 273.336 94.2687 271.165 94.3371C269.402 94.4421 267.635 94.1815 265.972 93.571C264.31 92.9605 262.784 92.0125 261.487 90.7839C260.272 89.4287 259.337 87.835 258.741 86.0991C258.145 84.3633 257.899 82.5216 258.018 80.6855V53.9434H252.54V47.7721H258.018V39.5438L266.052 38.7958V47.8843H277.739V54.0556H266.052V79.3016C266.052 85.2859 268.609 88.278 273.539 88.278C274.835 88.2499 276.122 88.0615 277.374 87.717V93.1402L277.556 93.215ZM316.999 93.215V84.6127C312.616 90.9709 307.503 94.1501 301.295 94.1501C299.576 94.2075 297.864 93.9054 296.262 93.2624C294.661 92.6193 293.205 91.6487 291.982 90.4099C290.781 89.0452 289.855 87.45 289.26 85.7166C288.664 83.9832 288.41 82.146 288.513 80.3115V47.5851H296.547V77.6934C296.391 80.2144 296.895 82.7323 298.008 84.9867C298.577 85.7478 299.334 86.3397 300.2 86.7013C301.067 87.063 302.012 87.1812 302.938 87.0438C307.869 87.0438 312.434 83.6776 316.816 77.1323V47.5851H324.851V93.215H316.999ZM341.285 93.215V47.5851H349.32V56.1875C353.337 49.8292 358.268 46.6501 364.476 46.6501C370.685 46.6501 374.519 49.8292 376.711 56.1875C380.545 49.8292 385.476 46.6501 391.684 46.6501C393.367 46.5252 395.056 46.7786 396.633 47.3923C398.21 48.0061 399.637 48.9654 400.814 50.2032C403.135 52.9389 404.315 56.4976 404.101 60.1147V93.215H396.067V61.4237C396.067 56.1875 394.058 53.5694 390.041 53.5694C385.841 53.5694 381.458 56.5615 376.893 62.7328V93.215H368.859V61.4237C368.859 56.1875 366.85 53.5694 362.65 53.5694C358.45 53.5694 354.25 56.5615 349.502 62.7328V93.215H341.285Z" fill="#4A4A4A"/>
<path d="M446.101 69.091C448.807 69.6039 451.258 71.057 453.04 73.2052C454.769 75.3605 455.677 78.0843 455.596 80.8725C455.683 82.6814 455.328 84.4839 454.562 86.1167C453.797 87.7494 452.646 89.1608 451.214 90.2229C448.292 92.467 444.092 93.402 438.249 93.402H417.067V46.2761H436.97C441.154 46.0346 445.307 47.1467 448.84 49.4552C450.24 50.4499 451.363 51.8005 452.1 53.3742C452.836 54.948 453.16 56.6908 453.04 58.4316C453.135 60.8162 452.496 63.1711 451.214 65.1638C449.88 66.9144 448.115 68.2698 446.101 69.091ZM421.997 50.3902V67.4079H436.605C439.624 67.5876 442.623 66.8035 445.188 65.1638C446.151 64.4235 446.934 63.4635 447.473 62.3599C448.011 61.2563 448.292 60.0394 448.292 58.8056C448.292 57.5717 448.011 56.3548 447.473 55.2512C446.934 54.1476 446.151 53.1876 445.188 52.4473C442.623 50.8077 439.624 50.0236 436.605 50.2032H421.997V50.3902ZM438.249 89.2878C441.504 89.5351 444.755 88.7517 447.561 87.0437C448.608 86.2968 449.445 85.2823 449.99 84.1012C450.534 82.9201 450.767 81.6135 450.666 80.3115C450.666 74.5142 446.466 71.5221 438.249 71.5221H421.997V89.2878H438.249ZM506.908 93.402L496.317 78.2544C495.106 78.4147 493.885 78.4772 492.665 78.4414H480.248V93.402H475.317V46.2761H492.482C497.453 46.0357 502.353 47.5545 506.36 50.5772C508.009 52.0224 509.311 53.8365 510.166 55.8795C511.021 57.9224 511.406 60.1392 511.29 62.3587C511.391 65.6972 510.43 68.9787 508.551 71.7091C506.589 74.2691 503.915 76.16 500.882 77.1323L512.203 93.215H506.908V93.402ZM492.665 74.0654C496.393 74.304 500.082 73.1772 503.073 70.8863C504.269 69.8211 505.217 68.4961 505.849 67.0079C506.481 65.5197 506.78 63.9058 506.725 62.2839C506.798 60.6323 506.508 58.9849 505.876 57.4635C505.244 55.9422 504.286 54.5858 503.073 53.4946C500.082 51.2037 496.393 50.0768 492.665 50.3154H480.43V73.8784H492.665V74.0654ZM560.776 80.6107H535.212L529.733 93.1402H524.621L545.62 46.0143H550.368L571.367 93.1402H566.254L560.776 80.6107ZM558.95 76.6835L547.994 51.4375L537.038 76.6835H558.95ZM587.802 46.2013H592.732V93.3272H587.802V46.2013ZM655 46.2013V93.3272H650.983L621.401 54.9906V93.1402H616.471V46.0143H620.488L650.07 84.1638V46.0143H655V46.2013Z" fill="#4A4A4A"/>
<path d="M72.9695 103.96C72.7384 103.973 72.5072 103.937 72.2897 103.856C72.0722 103.775 71.8728 103.65 71.7034 103.489L65.0278 96.8881C64.8405 96.723 64.6885 96.5202 64.5813 96.2922C64.4741 96.0642 64.4139 95.816 64.4047 95.5631C64.3955 95.3102 64.4373 95.0581 64.5276 94.8225C64.6178 94.587 64.7546 94.373 64.9293 94.1941C65.1041 94.0151 65.313 93.8751 65.543 93.7826C65.773 93.6902 66.0192 93.6473 66.2661 93.6568C66.513 93.6663 66.7554 93.7278 66.978 93.8376C67.2007 93.9474 67.3988 94.1031 67.5599 94.2949L74.2355 100.896C74.5673 101.242 74.7532 101.707 74.7532 102.192C74.7532 102.677 74.5673 103.143 74.2355 103.489C73.8657 103.766 73.4266 103.929 72.9695 103.96Z" fill="#4B4A4B"/>
<path d="M86.3207 117.28C86.0896 117.292 85.8584 117.257 85.6409 117.176C85.4234 117.095 85.224 116.97 85.0546 116.809L78.379 110.208C78.0835 109.856 77.9288 109.403 77.9457 108.939C77.9627 108.476 78.1501 108.036 78.4704 107.708C78.7907 107.38 79.2202 107.188 79.6728 107.171C80.1255 107.153 80.5678 107.312 80.9111 107.614L87.5867 114.215C87.9185 114.561 88.1044 115.027 88.1044 115.512C88.1044 115.997 87.9185 116.462 87.5867 116.809C87.2169 117.085 86.7778 117.249 86.3207 117.28Z" fill="#4B4A4B"/>
<path d="M59.5147 90.6409C59.2836 90.6532 59.0524 90.6178 58.8349 90.5368C58.6174 90.4558 58.418 90.3309 58.2486 90.1694L51.573 83.5685C51.2775 83.2169 51.1228 82.7639 51.1397 82.3004C51.1567 81.8368 51.3441 81.3969 51.6643 81.0689C51.9846 80.7409 52.4142 80.549 52.8668 80.5316C53.3195 80.5143 53.7618 80.6728 54.1051 80.9753L60.7807 87.5762C61.1125 87.9222 61.2984 88.3878 61.2984 88.8728C61.2984 89.3578 61.1125 89.8234 60.7807 90.1694C60.6113 90.3309 60.412 90.4558 60.1945 90.5368C59.977 90.6178 59.7458 90.6532 59.5147 90.6409Z" fill="#4B4A4B"/>
<path d="M46.0368 77.2742C45.8057 77.2865 45.5745 77.2511 45.357 77.1701C45.1395 77.0891 44.9402 76.9642 44.7708 76.8027L38.0951 70.2018C37.7997 69.8502 37.6449 69.3972 37.6619 68.9336C37.6788 68.4701 37.8662 68.0302 38.1865 67.7022C38.5068 67.3742 38.9363 67.1823 39.389 67.1649C39.8416 67.1475 40.2839 67.306 40.6273 67.6086L47.3029 74.2095C47.6347 74.5555 47.8206 75.0211 47.8206 75.5061C47.8206 75.991 47.6347 76.4566 47.3029 76.8027C47.1335 76.9642 46.9341 77.0891 46.7166 77.1701C46.4991 77.2511 46.2679 77.2865 46.0368 77.2742Z" fill="#4B4A4B"/>
<path d="M32.6856 64.1196C32.4545 64.1319 32.2233 64.0965 32.0058 64.0155C31.7883 63.9345 31.5889 63.8096 31.4195 63.6481L24.7439 57.0473C24.5566 56.8822 24.4046 56.6793 24.2974 56.4513C24.1901 56.2233 24.13 55.9751 24.1208 55.7222C24.1116 55.4694 24.1534 55.2172 24.2437 54.9817C24.3339 54.7461 24.4707 54.5322 24.6454 54.3532C24.8202 54.1743 25.0291 54.0342 25.2591 53.9418C25.4891 53.8493 25.7353 53.8065 25.9822 53.8159C26.2291 53.8254 26.4715 53.887 26.6941 53.9968C26.9168 54.1066 27.1149 54.2622 27.276 54.4541L33.9517 61.0549C34.2834 61.401 34.4693 61.8665 34.4693 62.3515C34.4693 62.8365 34.2834 63.3021 33.9517 63.6481C33.5818 63.925 33.1427 64.0885 32.6856 64.1196Z" fill="#4B4A4B"/>
<path d="M19.2307 50.8C18.9996 50.8123 18.7685 50.777 18.551 50.696C18.3335 50.615 18.1341 50.49 17.9647 50.3285L11.2891 43.7277C11.1018 43.5626 10.9497 43.3597 10.8425 43.1317C10.7353 42.9037 10.6752 42.6555 10.666 42.4027C10.6567 42.1498 10.6985 41.8977 10.7888 41.6621C10.8791 41.4265 11.0159 41.2126 11.1906 41.0336C11.3653 40.8547 11.5742 40.7146 11.8042 40.6222C12.0343 40.5297 12.2804 40.4869 12.5274 40.4964C12.7743 40.5058 13.0167 40.5674 13.2393 40.6772C13.4619 40.787 13.66 40.9427 13.8212 41.1345L20.4968 47.7353C20.8286 48.0814 21.0145 48.547 21.0145 49.0319C21.0145 49.5169 20.8286 49.9825 20.4968 50.3285C20.1269 50.6054 19.6879 50.7689 19.2307 50.8Z" fill="#4B4A4B"/>
<path d="M89.1981 108.557H88.7377C88.5184 108.504 88.3117 108.406 88.1293 108.27C87.947 108.134 87.7926 107.963 87.675 107.766C87.5574 107.568 87.4789 107.35 87.444 107.121C87.4091 106.893 87.4185 106.66 87.4717 106.436L89.7736 97.1238C89.8265 96.8994 89.9221 96.6878 90.0548 96.5012C90.1876 96.3146 90.3549 96.1565 90.5473 96.0361C90.7397 95.9157 90.9533 95.8353 91.176 95.7995C91.3987 95.7636 91.6262 95.7731 91.8453 95.8272C92.0645 95.8814 92.2711 95.9793 92.4534 96.1152C92.6356 96.2512 92.7899 96.4226 92.9074 96.6196C93.025 96.8166 93.1035 97.0354 93.1385 97.2635C93.1735 97.4916 93.1643 97.7245 93.1114 97.949L90.8095 107.261C90.7275 107.634 90.5224 107.966 90.2289 108.203C89.9354 108.439 89.5713 108.564 89.1981 108.557Z" fill="#4B4A4B"/>
<path d="M93.802 89.9336H93.3416C93.1224 89.8797 92.9156 89.782 92.7332 89.6461C92.5509 89.5102 92.3965 89.3388 92.2789 89.1417C92.1613 88.9447 92.0828 88.7258 92.0479 88.4976C92.013 88.2694 92.0224 88.0364 92.0756 87.8119L94.3775 78.5C94.4843 78.0467 94.7627 77.6555 95.1512 77.4123C95.5397 77.1691 96.0066 77.094 96.4493 77.2034C96.8919 77.3128 97.2739 77.5978 97.5114 77.9957C97.7488 78.3936 97.8222 78.8718 97.7153 79.3251L95.4134 88.637C95.3354 89.0121 95.1315 89.3473 94.837 89.5842C94.5426 89.8212 94.1763 89.9448 93.802 89.9336Z" fill="#4B4A4B"/>
<path d="M98.2908 71.3805H97.8304C97.6111 71.3266 97.4044 71.2289 97.222 71.093C97.0397 70.9571 96.8853 70.7857 96.7677 70.5886C96.6501 70.3915 96.5716 70.1726 96.5367 69.9445C96.5018 69.7163 96.5112 69.4833 96.5644 69.2588L98.8663 59.9469C98.9731 59.4936 99.2514 59.1023 99.64 58.8592C100.028 58.616 100.495 58.5409 100.938 58.6503C101.381 58.7597 101.763 59.0447 102 59.4426C102.238 59.8405 102.311 60.3187 102.204 60.772L99.9022 70.0839C99.8202 70.4569 99.6151 70.7895 99.3216 71.0256C99.0281 71.2618 98.664 71.3872 98.2908 71.3805Z" fill="#4B4A4B"/>
<path d="M102.78 52.9217H102.319C102.1 52.8678 101.893 52.7701 101.711 52.6342C101.528 52.4983 101.374 52.3269 101.256 52.1298C101.139 51.9327 101.06 51.7138 101.025 51.4856C100.991 51.2575 101 51.0245 101.053 50.8L103.355 41.4881C103.462 41.0348 103.74 40.6435 104.129 40.4004C104.517 40.1572 104.984 40.0821 105.427 40.1915C105.869 40.3009 106.251 40.5859 106.489 40.9838C106.726 41.3817 106.8 41.8599 106.693 42.3132L104.391 51.6251C104.309 51.9981 104.104 52.3306 103.81 52.5668C103.517 52.803 103.153 52.9283 102.78 52.9217Z" fill="#4B4A4B"/>
<path d="M107.268 34.2979H106.808C106.589 34.2439 106.382 34.1462 106.2 34.0103C106.017 33.8745 105.863 33.7031 105.745 33.506C105.628 33.3089 105.549 33.09 105.514 32.8618C105.479 32.6336 105.489 32.4006 105.542 32.1762L107.844 22.8643C107.897 22.6398 107.992 22.4282 108.125 22.2416C108.258 22.055 108.425 21.897 108.617 21.7766C108.81 21.6562 109.024 21.5757 109.246 21.5399C109.469 21.5041 109.696 21.5135 109.916 21.5677C110.135 21.6219 110.341 21.7197 110.524 21.8557C110.706 21.9916 110.86 22.163 110.978 22.36C111.095 22.557 111.174 22.7758 111.209 23.0039C111.244 23.232 111.235 23.4649 111.182 23.6894L108.88 33.0013C108.798 33.3742 108.593 33.7068 108.299 33.943C108.006 34.1792 107.642 34.3045 107.268 34.2979Z" fill="#4B4A4B"/>
<path d="M111.757 15.792H111.308C111.089 15.738 110.882 15.6403 110.7 15.5044C110.518 15.3685 110.363 15.1972 110.246 15.0001C110.128 14.803 110.049 14.5841 110.015 14.3559C109.98 14.1277 109.989 13.8947 110.042 13.6703L112.344 4.35836C112.397 4.13391 112.493 3.92233 112.625 3.7357C112.758 3.54907 112.925 3.39105 113.118 3.27065C113.31 3.15025 113.524 3.06983 113.747 3.03399C113.969 2.99815 114.197 3.00759 114.416 3.06177C114.635 3.11594 114.842 3.2138 115.024 3.34974C115.206 3.48569 115.36 3.65707 115.478 3.85408C115.596 4.0511 115.674 4.26991 115.709 4.498C115.744 4.7261 115.735 4.95902 115.682 5.18347L113.38 14.4954C113.298 14.8703 113.091 15.2045 112.795 15.4409C112.499 15.6773 112.132 15.8014 111.757 15.792Z" fill="#4B4A4B"/>
<path d="M24.7439 32.2941C24.3556 32.3084 23.974 32.1882 23.6607 31.9529C23.3474 31.7176 23.1208 31.381 23.0174 30.9975C22.8985 30.5443 22.951 30.0619 23.1644 29.6467C23.3778 29.2315 23.7363 28.9141 24.1684 28.7579L33.146 26.1647C33.3685 26.0817 33.6052 26.0458 33.8417 26.0593C34.0782 26.0727 34.3096 26.1352 34.5218 26.243C34.734 26.3507 34.9227 26.5015 35.0763 26.6861C35.2299 26.8708 35.3453 27.0855 35.4155 27.3171C35.4857 27.5488 35.5093 27.7927 35.4847 28.0339C35.4602 28.2752 35.388 28.5089 35.2727 28.7207C35.1573 28.9326 35.0011 29.1183 34.8136 29.2665C34.6261 29.4147 34.4112 29.5224 34.1818 29.583L25.2043 32.1762C25.0892 32.2941 24.9856 32.2941 24.7439 32.2941Z" fill="#4B4A4B"/>
<path d="M42.699 27.1077C42.3107 27.122 41.9291 27.0018 41.6158 26.7665C41.3025 26.5312 41.0759 26.1946 40.9725 25.8111C40.8536 25.3579 40.9061 24.8755 41.1195 24.4603C41.3329 24.0451 41.6915 23.7277 42.1235 23.5715L51.1011 20.9783C51.3236 20.8953 51.5603 20.8594 51.7968 20.8729C52.0333 20.8863 52.2647 20.9488 52.4769 21.0566C52.6891 21.1644 52.8778 21.3151 53.0314 21.4998C53.185 21.6844 53.3004 21.8991 53.3706 22.1307C53.4408 22.3624 53.4644 22.6063 53.4398 22.8476C53.4153 23.0888 53.3431 23.3225 53.2278 23.5343C53.1124 23.7462 52.9562 23.9319 52.7687 24.0801C52.5812 24.2283 52.3663 24.336 52.1369 24.3966L43.1594 26.9898C43.0443 26.9898 42.9292 27.1077 42.699 27.1077Z" fill="#4B4A4B"/>
<path d="M60.6656 21.8034C60.2774 21.8178 59.8958 21.6976 59.5825 21.4623C59.2692 21.227 59.0425 20.8904 58.9392 20.5068C58.8203 20.0537 58.8728 19.5713 59.0861 19.1561C59.2995 18.7408 59.6581 18.4234 60.0902 18.2672L69.0677 15.6741C69.5102 15.5523 69.9812 15.606 70.3867 15.8246C70.7921 16.0431 71.1021 16.4103 71.2545 16.8528C71.3735 17.3059 71.321 17.7883 71.1076 18.2035C70.8942 18.6188 70.5356 18.9362 70.1036 19.0924L61.126 21.6855C60.9994 21.8034 60.8843 21.8034 60.6656 21.8034Z" fill="#4B4A4B"/>
<path d="M6.78877 37.5983C6.40052 37.6126 6.0189 37.4925 5.7056 37.2572C5.39231 37.0219 5.16567 36.6853 5.06232 36.3017C4.94341 35.8486 4.99589 35.3662 5.20928 34.951C5.42267 34.5357 5.78124 34.2183 6.21329 34.0621L15.1908 31.469C15.6259 31.354 16.0876 31.4148 16.48 31.6389C16.8725 31.8631 17.1657 32.2332 17.2989 32.6727C17.4321 33.1122 17.395 33.5874 17.1954 33.9997C16.9958 34.4119 16.6489 34.7298 16.2267 34.8872L7.36426 37.4804C7.18754 37.5757 6.98769 37.6167 6.78877 37.5983Z" fill="#4B4A4B"/>
<path d="M78.6092 16.4992C78.221 16.5135 77.8393 16.3933 77.526 16.158C77.2128 15.9227 76.9861 15.5861 76.8828 15.2026C76.7638 14.7494 76.8163 14.267 77.0297 13.8518C77.2431 13.4366 77.6017 13.1192 78.0337 12.963L87.0113 10.3698C87.4538 10.248 87.9248 10.3018 88.3302 10.5203C88.7357 10.7388 89.0456 11.1061 89.1981 11.5485C89.317 12.0017 89.2645 12.4841 89.0512 12.8993C88.8378 13.3145 88.4792 13.6319 88.0472 13.7881L79.0696 16.3813C78.9545 16.4992 78.8394 16.4992 78.6092 16.4992Z" fill="#4B4A4B"/>
<path d="M96.5643 11.1949C96.1761 11.2092 95.7944 11.0891 95.4811 10.8538C95.1678 10.6185 94.9412 10.2819 94.8379 9.89831C94.7189 9.44518 94.7714 8.96277 94.9848 8.54755C95.1982 8.13233 95.5568 7.8149 95.9888 7.65874L104.966 5.06555C105.409 4.94377 105.88 4.99752 106.285 5.21605C106.691 5.43459 107.001 5.8018 107.153 6.24427C107.272 6.69741 107.22 7.17982 107.006 7.59503C106.793 8.01025 106.434 8.32768 106.002 8.48385L97.0247 11.077C96.9096 11.1949 96.7945 11.1949 96.5643 11.1949Z" fill="#4B4A4B"/>
<path d="M30.1534 33.8264C33.0117 33.7854 35.802 32.9282 38.2102 31.3511C40.6295 29.7471 42.4847 27.3929 43.5047 24.6324C44.6278 21.9164 44.9091 18.9127 44.3104 16.0277C43.7187 13.1288 42.3195 10.4675 40.282 8.36597C38.2472 6.25551 35.6412 4.81844 32.8007 4.24044C29.9712 3.65281 27.0348 3.94484 24.3687 5.07904C21.7025 6.21323 19.4283 8.1378 17.8381 10.6055C16.2478 13.0479 15.4061 15.9211 15.421 18.8566C15.4107 20.8254 15.7817 22.7768 16.5127 24.5977C17.2437 26.4187 18.3201 28.0731 19.6796 29.4651C22.5351 32.1778 26.2598 33.7288 30.1534 33.8264Z" fill="#FFC853"/>
<path d="M30.1534 34.2979C28.1876 34.3003 26.2407 33.9059 24.4238 33.1373C22.6069 32.3688 20.9557 31.2411 19.5645 29.8187C18.1637 28.4031 17.0548 26.7138 16.3035 24.851C15.5522 22.9882 15.1738 20.9899 15.1908 18.9745C15.2152 15.9175 16.0939 12.9316 17.723 10.3698C19.3657 7.81458 21.7366 5.83916 24.5137 4.71193C27.2321 3.5033 30.2561 3.21426 33.1459 3.88683C36.0814 4.45548 38.7742 5.93726 40.8574 8.13023C42.9603 10.2742 44.3987 13.006 44.9924 15.9834C45.5861 18.9608 45.3088 22.0514 44.1953 24.8681C43.0628 27.693 41.1409 30.1124 38.6706 31.8226C36.0888 33.3893 33.1539 34.2423 30.1534 34.2979ZM30.1534 4.47619C27.8339 4.45293 25.5455 5.02288 23.4955 6.13436C21.4454 7.24583 19.6987 8.8637 18.4135 10.8413C16.8766 13.2217 16.0379 16.0032 15.9965 18.8566C16.0112 22.6991 17.4992 26.3819 20.14 29.1115C21.4533 30.4602 23.0142 31.5295 24.7327 32.2578C26.4513 32.9861 28.2936 33.3589 30.1534 33.3549C32.9481 33.369 35.6798 32.5051 37.98 30.8796C40.2759 29.2698 42.0733 27.02 43.1594 24.3966C44.2358 21.7462 44.5151 18.827 43.9614 16.013C43.4078 13.1991 42.0464 10.6184 40.0518 8.60172C38.0874 6.56599 35.5533 5.20657 32.8007 4.71193C31.9326 4.51157 31.0422 4.43227 30.1534 4.47619Z" fill="#FFC853"/>
<path d="M70.5525 72.1349C74.5405 72.1598 78.4389 70.925 81.7169 68.5987C85.0374 66.3314 87.6064 63.0839 89.0831 59.2868C90.6094 55.5227 91.01 51.3793 90.2341 47.3817C89.4783 43.3904 87.5509 39.7304 84.7094 36.8911C81.8614 34.0217 78.2641 32.0568 74.3507 31.2332C70.4593 30.4405 66.4259 30.8459 62.7593 32.3983C59.0927 33.9506 55.9572 36.5804 53.7483 39.9558C51.5767 43.3549 50.417 47.3273 50.4105 51.3894C50.4397 54.0928 50.9467 56.7684 51.9068 59.2868C52.9176 61.8 54.4041 64.0833 56.2808 66.0052C58.1574 67.9271 60.387 69.4496 62.841 70.4847C65.2767 71.5611 67.8997 72.1224 70.5525 72.1349Z" fill="#FFC853"/>
<path d="M70.4374 72.5592C66.3785 72.5122 62.4212 71.2538 59.0501 68.9383C55.679 66.6228 53.0405 63.3506 51.4579 59.5226C50.4061 56.9456 49.8587 54.1823 49.8465 51.3894C49.8047 47.2294 51.0099 43.1564 53.2994 39.72C55.5456 36.2473 58.7513 33.5389 62.5072 31.9404C66.2505 30.3246 70.3853 29.9135 74.3622 30.7617C77.3515 31.3684 80.1726 32.6456 82.6226 34.5016C85.0727 36.3576 87.091 38.7462 88.5325 41.4959C89.9741 44.2457 90.803 47.2882 90.9599 50.405C91.1168 53.5219 90.5977 56.6356 89.4399 59.5226C87.9109 63.3886 85.2592 66.6804 81.8435 68.9524C78.5064 71.3493 74.5249 72.6261 70.4489 72.6064L70.4374 72.5592ZM70.4374 31.3039C67.8678 31.2879 65.322 31.8093 62.9561 32.8363C59.364 34.3837 56.286 36.9628 54.0936 40.2622C51.9096 43.5675 50.7466 47.4691 50.7558 51.4601C50.7175 54.0938 51.2276 56.7057 52.2521 59.1218C53.2189 61.5609 54.6689 63.7684 56.5107 65.6048C58.3666 67.4678 60.5547 68.9484 62.9561 69.9661C65.322 70.993 67.8678 71.5144 70.4374 71.4984C74.3351 71.4899 78.1428 70.2984 81.3796 68.0746C84.6164 65.8507 87.1369 62.6942 88.6227 59.0039C90.0982 55.3095 90.498 51.2566 89.7736 47.3346C88.9834 43.45 87.103 39.8862 84.3633 37.0804C81.6236 34.2747 78.1437 32.349 74.3507 31.5397C73.0846 31.4689 71.7034 31.3039 70.4374 31.3039Z" fill="#FFC853"/>
<path d="M114.289 39.4843C115.927 39.4882 117.528 38.9961 118.893 38.0698C120.252 37.1339 121.329 35.8274 122.001 34.2979C122.463 33.1272 122.668 31.8667 122.602 30.6057C122.536 29.3446 122.2 28.1139 121.618 27.0006C121.036 25.8872 120.223 24.9185 119.235 24.163C118.246 23.4075 117.108 22.8836 115.901 22.6285C114.278 22.3094 112.601 22.473 111.067 23.1C109.551 23.7512 108.265 24.8617 107.383 26.2826C106.479 27.6802 105.998 29.3207 106.002 30.9975C106.017 33.2464 106.883 35.4017 108.419 37.0089C110.001 38.5636 112.098 39.448 114.289 39.4843Z" fill="#FFC853"/>
<path d="M114.289 39.9558C111.966 39.9554 109.736 39.0247 108.074 37.3626C106.463 35.6425 105.522 33.3788 105.427 30.9975C105.393 29.2255 105.918 27.4896 106.923 26.0468C107.858 24.5545 109.227 23.4002 110.836 22.7464C112.437 22.0618 114.205 21.8972 115.901 22.2749C117.601 22.6328 119.162 23.4936 120.389 24.7506C121.616 26.0077 122.457 27.6059 122.806 29.3472C123.175 31.0835 123.015 32.8939 122.346 34.5336C121.708 36.1819 120.581 37.5836 119.123 38.5413C117.665 39.4485 115.995 39.937 114.289 39.9558ZM114.289 22.8643C112.997 22.8587 111.722 23.1782 110.579 23.7947C109.435 24.4113 108.456 25.3061 107.729 26.4004C106.847 27.7148 106.403 29.2858 106.463 30.8796C106.472 33.0025 107.299 35.0358 108.765 36.537C110.231 38.0381 112.216 38.8856 114.289 38.8949C115.857 38.9154 117.391 38.4196 118.663 37.4804C119.951 36.5775 120.952 35.3068 121.54 33.8264C122.096 32.3646 122.255 30.7762 122.001 29.2294C121.678 27.666 120.919 26.2323 119.815 25.1024C118.712 23.9724 117.312 23.1949 115.786 22.8643C115.288 22.9234 114.786 22.9234 114.289 22.8643Z" fill="#FFC853"/>
<path d="M54.554 117.516C57.0098 117.521 59.4125 116.783 61.4598 115.394C63.5301 113.991 65.1356 111.977 66.0637 109.618C66.9792 107.261 67.2187 104.685 66.7542 102.192C66.262 99.7265 65.0592 97.4683 63.3013 95.7094C61.51 93.9479 59.2803 92.7246 56.8559 92.1732C54.4224 91.6975 51.9069 91.9429 49.6048 92.8804C47.302 93.8309 45.3353 95.475 43.965 97.5953C42.6087 99.692 41.8879 102.153 41.8933 104.668C41.9201 106.36 42.2316 108.035 42.8141 109.618C43.4068 111.196 44.353 112.609 45.5764 113.744C46.7204 114.925 48.0924 115.848 49.6048 116.455C51.1511 117.199 52.846 117.563 54.554 117.516Z" fill="#FFC853"/>
<path d="M54.554 117.987C52.8503 117.988 51.1651 117.627 49.6048 116.926C48.0392 116.237 46.5993 115.28 45.3462 114.097C44.1154 112.876 43.1709 111.385 42.5839 109.736C41.9 108.138 41.5473 106.412 41.548 104.668C41.5815 102.031 42.3394 99.4576 43.7348 97.2417C45.1102 95.052 47.1236 93.3612 49.4897 92.409C51.8443 91.3554 54.4678 91.1074 56.971 91.7017C59.508 92.1941 61.8373 93.4691 63.6466 95.3558C65.4476 97.24 66.6856 99.6119 67.2146 102.192C67.7241 104.764 67.4828 107.432 66.5207 109.863C65.5587 112.295 63.9185 114.383 61.8051 115.866C59.6318 117.259 57.118 117.995 54.554 117.987ZM54.4389 92.5268C52.4661 92.5342 50.5245 93.0313 48.7805 93.9757C47.0365 94.92 45.5421 96.2834 44.4254 97.949C43.1064 99.976 42.387 102.35 42.3537 104.786C42.3709 106.402 42.6832 108.001 43.2745 109.5C43.8695 111.013 44.7718 112.38 45.9217 113.508C47.0542 114.648 48.3804 115.567 49.835 116.219C51.2988 116.825 52.8602 117.145 54.4389 117.162C56.825 117.181 59.1578 116.439 61.1145 115.04C63.0532 113.653 64.5693 111.732 65.4882 109.5C66.4028 107.267 66.6433 104.803 66.1787 102.428C65.7217 100.043 64.5559 97.8611 62.8409 96.1809C61.1784 94.4769 59.0522 93.3266 56.7408 92.8804C56.0104 92.5824 55.2225 92.4614 54.4389 92.5268Z" fill="#FFC853"/>
<path d="M31.0747 15.7144L28.0775 19.6254L70.904 54.0465L73.9011 50.1355L31.0747 15.7144Z" fill="#FFC853"/>
<path d="M115.601 27.7064L66.757 49.5293L68.69 54.0669L117.534 32.2441L115.601 27.7064Z" fill="#FFC853"/>
<path d="M68.5423 47.1141L54.7767 99.7088L59.4657 100.996L73.2313 48.4013L68.5423 47.1141Z" fill="#FFC853"/>
</svg>
