<svg width="150" height="99" viewBox="0 0 150 99" fill="none" xmlns="http://www.w3.org/2000/svg">
<path d="M9.57131 75.2791V72.7766C9.1914 73.6148 8.57502 74.3237 7.79784 74.8165C7.02066 75.3092 6.1165 75.5642 5.19639 75.5503C4.47603 75.5736 3.76028 75.4274 3.10677 75.1234C2.45327 74.8195 1.88029 74.3663 1.43398 73.8004C0.447248 72.404 -0.0313821 70.7118 0.0777656 69.0055C-0.00865069 67.103 0.545942 65.2266 1.65272 63.6768C2.1164 63.0313 2.73142 62.5093 3.44386 62.1569C4.15631 61.8045 4.94438 61.6324 5.73888 61.6556C6.4725 61.6568 7.19677 61.8205 7.85947 62.1353C8.52217 62.45 9.1068 62.9077 9.57131 63.4756V55.907H11.9687V75.2878L9.57131 75.2791ZM9.57131 65.1556C8.62545 64.2015 7.36727 63.6205 6.02764 63.5193C5.51547 63.4942 5.0059 63.6067 4.55196 63.8452C4.09802 64.0837 3.71627 64.4395 3.44643 64.8756C2.76812 66.0695 2.44625 67.4329 2.51895 68.8042C2.51895 71.9017 3.55142 73.4854 5.62512 73.4854C6.39977 73.4432 7.15546 73.2298 7.83779 72.8607C8.52012 72.4915 9.11215 71.9757 9.57131 71.3504V65.1556ZM23.676 73.5904C22.206 74.9028 20.8411 75.6116 19.4761 75.6116C18.9757 75.6312 18.4765 75.549 18.0088 75.37C17.541 75.191 17.1145 74.919 16.7549 74.5703C16.4037 74.2307 16.126 73.8223 15.9394 73.3707C15.7527 72.9192 15.661 72.434 15.6699 71.9454C15.6389 71.2806 15.7895 70.6199 16.1055 70.0341C16.4215 69.4484 16.891 68.9597 17.4637 68.6205C19.0708 67.7476 20.8868 67.3329 22.7136 67.4218H23.256V65.838C23.256 64.3156 22.4423 63.5543 20.8586 63.5543C19.4002 63.5993 17.9766 64.0116 16.7199 64.753V62.7406C18.1687 62.1248 19.7221 61.7921 21.2961 61.7606C22.4687 61.6639 23.6344 62.0139 24.5598 62.7406C24.9492 63.1513 25.2478 63.6393 25.4362 64.1729C25.6246 64.7066 25.6987 65.2739 25.6535 65.838V71.8841C25.6535 73.2491 26.091 73.9579 26.9047 73.9579C27.0696 73.9611 27.2342 73.9434 27.3947 73.9054L27.5609 75.2091C26.9983 75.476 26.3811 75.6079 25.7585 75.5941C24.6648 75.6116 23.9035 74.9028 23.6323 73.5904H23.676ZM23.291 72.2867V68.8567H22.4773C21.3362 68.8004 20.2014 69.0576 19.1961 69.6005C18.8358 69.785 18.5338 70.066 18.3237 70.412C18.1137 70.7581 18.0037 71.1556 18.0061 71.5604C18.0001 71.833 18.0497 72.104 18.152 72.3568C18.2543 72.6095 18.4072 72.8388 18.6011 73.0304C18.994 73.414 19.522 73.6277 20.0711 73.6254C21.2456 73.5295 22.3585 73.0604 23.2473 72.2867H23.291ZM36.582 75.2791C35.9645 75.4772 35.3227 75.5891 34.6746 75.6116C34.148 75.6412 33.6208 75.5642 33.1247 75.3853C32.6286 75.2064 32.1736 74.9292 31.7871 74.5703C31.4249 74.1758 31.1466 73.7117 30.9691 73.2063C30.7916 72.701 30.7187 72.1648 30.7547 71.6304V63.8431H29.1184V62.0494H30.7547V59.6519L33.1433 59.4332V62.1018H36.6433V63.8956H33.1433V71.2542C33.1433 73.0042 33.9133 73.8791 35.3833 73.8791C35.7673 73.8715 36.1491 73.8186 36.5208 73.7216V75.2966L36.582 75.2791ZM48.3418 75.2791V72.7766C47.0293 74.6229 45.5069 75.5503 43.6606 75.5503C43.1475 75.5679 42.6361 75.4808 42.1577 75.2943C41.6794 75.1078 41.244 74.8257 40.8782 74.4654C40.5202 74.068 40.2445 73.6035 40.0673 73.0989C39.8901 72.5942 39.8147 72.0594 39.8457 71.5254V61.9969H42.2432V70.7467C42.1918 71.4793 42.3432 72.2119 42.6807 72.8641C42.8496 73.0868 43.0749 73.2601 43.3334 73.3663C43.5919 73.4724 43.874 73.5075 44.1506 73.4679C45.6206 73.4679 46.9768 72.4879 48.2893 70.5804V61.9794H50.678V75.2616L48.3418 75.2791ZM55.5867 75.2791V61.9969H57.9753V64.4993C59.1741 62.6444 60.644 61.7169 62.499 61.7169C63.3338 61.6931 64.1514 61.9563 64.8155 62.4627C65.4795 62.9691 65.9497 63.688 66.1477 64.4993C66.5679 63.6734 67.2056 62.9778 67.9919 62.4875C68.7783 61.9972 69.6835 61.7307 70.6101 61.7169C71.1122 61.6806 71.6162 61.7551 72.0864 61.935C72.5566 62.115 72.9816 62.3959 73.3313 62.7581C74.0257 63.5538 74.3778 64.5915 74.3113 65.6455V75.2704H71.9226V66.0218C71.9226 64.4993 71.3188 63.7381 70.1201 63.7381C68.9214 63.7381 67.5651 64.6131 66.2002 66.4068V75.2791H63.8027V66.0218C63.8027 64.4993 63.2077 63.7381 61.9565 63.7381C60.7053 63.7381 59.4453 64.6131 58.0366 66.4068V75.2791H55.5867Z" fill="#4A4A4A"/>
<path d="M86.7991 68.2532C87.6043 68.4046 88.3332 68.8277 88.864 69.4519C89.3807 70.0788 89.654 70.871 89.634 71.6831C89.6599 72.2115 89.5533 72.7379 89.3241 73.2146C89.0949 73.6914 88.7503 74.1033 88.3215 74.4131C87.1632 75.1234 85.8082 75.4453 84.4541 75.3318H78.1367V61.6121H84.0779C85.3129 61.5472 86.537 61.8716 87.5778 62.5395C87.9973 62.8298 88.3336 63.2248 88.5531 63.6853C88.7726 64.1459 88.8677 64.6558 88.829 65.1645C88.8585 65.8586 88.6687 66.5443 88.2865 67.1245C87.8996 67.626 87.3862 68.0156 86.7991 68.2532ZM79.5717 62.8108V67.7632H83.9466C84.8475 67.817 85.743 67.5908 86.5103 67.1157C86.7983 66.8997 87.032 66.6197 87.193 66.2977C87.354 65.9758 87.4378 65.6207 87.4378 65.2608C87.4378 64.9008 87.354 64.5458 87.193 64.2238C87.032 63.9018 86.7983 63.6218 86.5103 63.4058C85.743 62.9307 84.8475 62.7045 83.9466 62.7583H79.5717V62.8108ZM84.4191 74.1331C85.3909 74.2067 86.362 73.9807 87.2015 73.4856C87.5048 73.2628 87.7449 72.965 87.8983 72.6214C88.0518 72.2777 88.1131 71.9002 88.0765 71.5256C88.0765 69.8369 86.8253 68.9619 84.3753 68.9619H79.5717V74.1331H84.4191ZM104.894 75.3318L101.735 70.9569C101.376 71.0094 101.013 71.0299 100.65 71.0181H96.9839V75.393H95.5139V61.6121H100.633C102.114 61.5447 103.575 61.9862 104.771 62.8633C105.262 63.2843 105.65 63.8126 105.905 64.4072C106.16 65.0019 106.275 65.6471 106.241 66.2932C106.274 67.266 105.985 68.2224 105.419 69.0144C104.836 69.7625 104.04 70.3151 103.135 70.5982L106.512 75.2793H104.946L104.894 75.3318ZM100.65 69.7232C101.761 69.7917 102.861 69.4664 103.756 68.8044C104.099 68.4776 104.372 68.0846 104.558 67.6491C104.745 67.2137 104.841 66.745 104.841 66.2714C104.841 65.7977 104.745 65.329 104.558 64.8936C104.372 64.4582 104.099 64.0651 103.756 63.7383C102.864 63.069 101.763 62.7401 100.65 62.8108H97.0714V69.6706H100.72L100.65 69.7232ZM120.958 71.6306H113.337L111.701 75.2793H110.196L116.461 61.5596H117.878L124.196 75.2793H122.673L120.958 71.6306ZM120.416 70.4844L117.152 63.1345L113.88 70.4844H120.416ZM129.017 61.6121H130.487V75.3318H129.017V61.6121ZM149.063 61.6121V75.3318H147.864L139.071 64.1758V75.2793H137.601V61.5596H138.799L147.628 72.6631V61.5596H149.098L149.063 61.6121Z" fill="#4A4A4A"/>
<path d="M78.7931 46.6414C78.5714 46.6476 78.3556 46.5695 78.1894 46.4227L75.0307 43.3515C74.9159 43.2835 74.8182 43.1902 74.745 43.0786C74.6718 42.9671 74.6251 42.8403 74.6084 42.708C74.5917 42.5756 74.6056 42.4413 74.6488 42.3151C74.692 42.1889 74.7636 42.0742 74.8579 41.9799C74.9522 41.8856 75.0668 41.8141 75.193 41.7708C75.3192 41.7276 75.4536 41.7138 75.5859 41.7305C75.7183 41.7472 75.8451 41.7939 75.9566 41.8671C76.0682 41.9402 76.1614 42.038 76.2294 42.1527L79.3881 45.2064C79.5407 45.3687 79.6256 45.583 79.6256 45.8058C79.6256 46.0285 79.5407 46.2429 79.3881 46.4051C79.2155 46.5376 79.0095 46.6194 78.7931 46.6414Z" fill="#4B4A4B"/>
<path d="M85.1122 52.7925C85.0021 52.7984 84.8918 52.782 84.7881 52.7444C84.6844 52.7069 84.5893 52.6488 84.5085 52.5737L81.3235 49.52C81.2072 49.4527 81.1079 49.3595 81.0334 49.2476C80.9589 49.1357 80.9112 49.0082 80.8939 48.8749C80.8767 48.7416 80.8904 48.6061 80.934 48.4789C80.9776 48.3518 81.0499 48.2364 81.1453 48.1417C81.2407 48.047 81.3566 47.9756 81.4841 47.9329C81.6115 47.8903 81.7471 47.8776 81.8803 47.8958C82.0135 47.914 82.1406 47.9626 82.252 48.0379C82.3633 48.1132 82.4558 48.2132 82.5223 48.3301L85.6809 51.375C85.8335 51.5373 85.9185 51.7516 85.9185 51.9744C85.9185 52.1971 85.8335 52.4115 85.6809 52.5737C85.5134 52.6944 85.3175 52.7698 85.1122 52.7925Z" fill="#4B4A4B"/>
<path d="M72.4133 40.4814C72.3045 40.4866 72.1958 40.4699 72.0936 40.4323C71.9914 40.3948 71.8978 40.3371 71.8183 40.2627L68.6596 37.2265C68.5448 37.1585 68.4471 37.0652 68.3739 36.9536C68.3007 36.8421 68.254 36.7153 68.2373 36.583C68.2207 36.4506 68.2345 36.3163 68.2777 36.1901C68.3209 36.0639 68.3924 35.9492 68.4867 35.8549C68.5811 35.7606 68.6957 35.6891 68.8219 35.6458C68.9481 35.6026 69.0825 35.5888 69.2149 35.6055C69.3472 35.6222 69.474 35.6689 69.5855 35.7421C69.697 35.8152 69.7904 35.913 69.8583 36.0277L73.017 39.0814C73.1671 39.2432 73.2504 39.4557 73.2504 39.6764C73.2504 39.8971 73.1671 40.1096 73.017 40.2714C72.9355 40.3449 72.84 40.4014 72.7364 40.4374C72.6327 40.4735 72.5228 40.4885 72.4133 40.4814Z" fill="#4B4A4B"/>
<path d="M66.0459 34.33C65.9371 34.3357 65.8283 34.3192 65.726 34.2816C65.6237 34.244 65.5301 34.1861 65.4509 34.1112L62.2922 31.1013C62.1397 30.939 62.0547 30.7247 62.0547 30.5019C62.0547 30.2792 62.1397 30.0648 62.2922 29.9026C62.4545 29.75 62.6689 29.665 62.8916 29.665C63.1143 29.665 63.3287 29.75 63.491 29.9026L66.6496 32.9475C66.8022 33.1098 66.8872 33.3241 66.8872 33.5469C66.8872 33.7696 66.8022 33.984 66.6496 34.1462C66.566 34.2151 66.4697 34.2668 66.3661 34.2983C66.2625 34.3298 66.1537 34.3406 66.0459 34.33Z" fill="#4B4A4B"/>
<path d="M59.7245 28.2312C59.6157 28.2364 59.507 28.2197 59.4048 28.1822C59.3026 28.1446 59.209 28.0869 59.1295 28.0125L55.9446 24.9763C55.792 24.814 55.707 24.5997 55.707 24.3769C55.707 24.1542 55.792 23.9398 55.9446 23.7776C56.1068 23.625 56.3212 23.54 56.5439 23.54C56.7667 23.54 56.981 23.625 57.1433 23.7776L60.3195 26.8137C60.4721 26.976 60.557 27.1904 60.557 27.4131C60.557 27.6358 60.4721 27.8502 60.3195 28.0125C60.1461 28.1407 59.9397 28.2166 59.7245 28.2312Z" fill="#4B4A4B"/>
<path d="M53.3195 22.08C53.2106 22.0867 53.1014 22.0708 52.999 22.0331C52.8966 21.9954 52.8031 21.9369 52.7245 21.8612L49.6008 18.8513C49.4483 18.689 49.3633 18.4747 49.3633 18.2519C49.3633 18.0292 49.4483 17.8148 49.6008 17.6526C49.7631 17.5 49.9774 17.415 50.2002 17.415C50.4229 17.415 50.6373 17.5 50.7995 17.6526L53.9582 20.7062C54.1108 20.8685 54.1958 21.0829 54.1958 21.3056C54.1958 21.5283 54.1108 21.7427 53.9582 21.905C53.766 22.0221 53.5446 22.0828 53.3195 22.08Z" fill="#4B4A4B"/>
<path d="M86.4631 48.7584H86.2444C86.1406 48.7338 86.0427 48.6888 85.9564 48.626C85.8702 48.5633 85.7973 48.484 85.7419 48.3928C85.6865 48.3016 85.6498 48.2004 85.634 48.0949C85.6181 47.9894 85.6233 47.8818 85.6494 47.7784L86.7344 43.4822C86.7591 43.3782 86.804 43.2801 86.8667 43.1935C86.9293 43.1069 87.0083 43.0334 87.0993 42.9774C87.1903 42.9213 87.2915 42.8837 87.397 42.8668C87.5025 42.8498 87.6104 42.8538 87.7143 42.8785C87.8183 42.9032 87.9164 42.9481 88.0031 43.0108C88.0897 43.0734 88.1631 43.1524 88.2192 43.2434C88.2752 43.3344 88.3128 43.4356 88.3298 43.5411C88.3468 43.6466 88.3428 43.7545 88.3181 43.8584L87.2244 48.1634C87.1859 48.3353 87.089 48.4886 86.9502 48.5971C86.8114 48.7056 86.6393 48.7626 86.4631 48.7584Z" fill="#4B4A4B"/>
<path d="M88.6428 40.1573H88.4241C88.3203 40.1327 88.2224 40.0877 88.1361 40.025C88.0498 39.9622 87.9769 39.883 87.9216 39.7918C87.8662 39.7006 87.8295 39.5993 87.8137 39.4939C87.7978 39.3884 87.803 39.2808 87.8291 39.1774L88.9141 34.8724C88.9651 34.6624 89.0975 34.4813 89.2821 34.3689C89.4667 34.2565 89.6884 34.222 89.8984 34.2731C90.1084 34.3241 90.2896 34.4565 90.402 34.6411C90.5144 34.8257 90.5488 35.0474 90.4978 35.2574L89.404 39.5623C89.3656 39.7343 89.2687 39.8876 89.1299 39.9961C88.9911 40.1046 88.819 40.1616 88.6428 40.1573Z" fill="#4B4A4B"/>
<path d="M90.7703 31.6091H90.5516C90.4476 31.5844 90.3495 31.5395 90.2628 31.4769C90.1762 31.4142 90.1028 31.3352 90.0467 31.2442C89.9906 31.1532 89.9531 31.052 89.9361 30.9465C89.9191 30.841 89.9231 30.7331 89.9478 30.6291L91.0416 26.3242C91.1069 26.1314 91.2421 25.97 91.4206 25.872C91.599 25.774 91.8077 25.7464 92.0055 25.7948C92.2033 25.8431 92.3758 25.9638 92.4889 26.1331C92.602 26.3024 92.6475 26.508 92.6165 26.7092L91.5316 31.0054C91.4934 31.1782 91.3968 31.3325 91.2582 31.4425C91.1195 31.5524 90.9473 31.6112 90.7703 31.6091Z" fill="#4B4A4B"/>
<path d="M92.8973 23.0603H92.6961C92.5921 23.0356 92.494 22.9906 92.4074 22.928C92.3207 22.8654 92.2473 22.7864 92.1912 22.6953C92.1352 22.6043 92.0976 22.5032 92.0806 22.3976C92.0637 22.2921 92.0676 22.1843 92.0924 22.0803L93.1861 17.7754C93.2514 17.5825 93.3867 17.4212 93.5651 17.3232C93.7436 17.2251 93.9523 17.1976 94.1501 17.2459C94.3478 17.2943 94.5203 17.415 94.6334 17.5843C94.7465 17.7536 94.7921 17.9591 94.7611 18.1604L93.6761 22.4565C93.6358 22.6315 93.5363 22.7872 93.3944 22.8972C93.2525 23.0072 93.0769 23.0648 92.8973 23.0603Z" fill="#4B4A4B"/>
<path d="M95.0139 14.4771H94.7952C94.6914 14.4525 94.5935 14.4075 94.5072 14.3448C94.421 14.282 94.348 14.2028 94.2926 14.1116C94.2373 14.0204 94.2006 13.9191 94.1848 13.8136C94.1689 13.7082 94.1741 13.6006 94.2001 13.4971L95.2852 9.20098C95.3351 8.99096 95.4663 8.80937 95.6501 8.69614C95.8339 8.58292 96.0551 8.54734 96.2651 8.59724C96.4752 8.64713 96.6568 8.7784 96.77 8.96218C96.8832 9.14596 96.9188 9.3672 96.8689 9.57721L95.7752 13.8821C95.7367 14.0541 95.6398 14.2074 95.501 14.3159C95.3622 14.4244 95.1901 14.4814 95.0139 14.4771Z" fill="#4B4A4B"/>
<path d="M97.1389 5.90193H96.9202C96.8164 5.87733 96.7185 5.83234 96.6322 5.76959C96.5459 5.70684 96.473 5.62758 96.4177 5.5364C96.3623 5.44522 96.3256 5.34394 96.3097 5.23845C96.2939 5.13297 96.2991 5.02536 96.3252 4.92192L97.4102 0.625783C97.46 0.415768 97.5913 0.234171 97.7751 0.120948C97.9588 0.00772518 98.1801 -0.0278504 98.3901 0.0220425C98.6001 0.0719354 98.7817 0.203202 98.895 0.386983C99.0082 0.570765 99.0438 0.792005 98.9939 1.00202L97.9439 5.30692C97.9043 5.48664 97.8009 5.64594 97.6529 5.75533C97.5049 5.86472 97.3223 5.91681 97.1389 5.90193Z" fill="#4B4A4B"/>
<path d="M55.9455 13.5314C55.7612 13.5393 55.5798 13.4835 55.4317 13.3736C55.2836 13.2637 55.1777 13.1063 55.1318 12.9277C55.0794 12.719 55.1058 12.4983 55.2059 12.3079C55.3059 12.1174 55.4727 11.9705 55.6742 11.8952L59.9179 10.6965C60.0243 10.6546 60.1383 10.6351 60.2527 10.6392C60.367 10.6434 60.4792 10.6711 60.5823 10.7206C60.6855 10.7702 60.7773 10.8405 60.852 10.9271C60.9267 11.0138 60.9827 11.1149 61.0165 11.2242C61.0503 11.3335 61.0612 11.4486 61.0485 11.5623C61.0358 11.676 60.9997 11.7859 60.9426 11.885C60.8855 11.9841 60.8085 12.0704 60.7165 12.1384C60.6245 12.2064 60.5194 12.2547 60.4079 12.2802L56.1642 13.4702C56.138 13.5314 56.0767 13.5314 55.9455 13.5314Z" fill="#4B4A4B"/>
<path d="M64.4691 11.1342C64.2841 11.1408 64.1022 11.0849 63.953 10.9753C63.8037 10.8657 63.6958 10.709 63.6466 10.5305C63.5948 10.3207 63.6225 10.0991 63.7242 9.90849C63.826 9.71786 63.9947 9.57164 64.1979 9.49799L68.4416 8.29927C68.646 8.2525 68.8605 8.28469 69.0421 8.38939C69.2238 8.49409 69.3591 8.66357 69.4211 8.86387C69.483 9.06416 69.467 9.28048 69.3763 9.46948C69.2855 9.65847 69.1267 9.80617 68.9316 9.88299L64.6966 11.0817C64.6354 11.0817 64.5741 11.1342 64.4691 11.1342Z" fill="#4B4A4B"/>
<path d="M72.9652 8.68402C72.7802 8.69065 72.5983 8.63465 72.4491 8.52508C72.2998 8.41552 72.1919 8.2588 72.1427 8.08028C72.0909 7.87049 72.1185 7.64893 72.2203 7.4583C72.3221 7.26767 72.4908 7.12145 72.694 7.0478L76.9376 5.84908C77.142 5.80231 77.3565 5.83447 77.5382 5.93918C77.7198 6.04388 77.8552 6.21338 77.9172 6.41368C77.9791 6.61398 77.9632 6.83029 77.8724 7.01929C77.7816 7.20828 77.6227 7.35598 77.4276 7.4328L73.184 8.63152C73.1227 8.68402 73.0702 8.68402 72.9652 8.68402Z" fill="#4B4A4B"/>
<path d="M47.4767 15.9816C47.2928 15.9878 47.1122 15.9315 46.9644 15.8218C46.8166 15.7122 46.7104 15.5557 46.663 15.3779C46.6107 15.1692 46.6371 14.9485 46.7371 14.758C46.8372 14.5676 47.0039 14.4207 47.2055 14.3454L51.4491 13.1467C51.5556 13.1047 51.6696 13.0853 51.7839 13.0894C51.8983 13.0936 52.0105 13.1213 52.1136 13.1708C52.2167 13.2204 52.3085 13.2907 52.3832 13.3773C52.4579 13.464 52.514 13.5651 52.5478 13.6744C52.5816 13.7837 52.5925 13.8988 52.5798 14.0125C52.567 14.1262 52.531 14.2361 52.4739 14.3352C52.4167 14.4343 52.3398 14.5206 52.2477 14.5886C52.1557 14.6566 52.0506 14.7049 51.9391 14.7304L47.748 15.9291C47.6645 15.9723 47.5703 15.9905 47.4767 15.9816Z" fill="#4B4A4B"/>
<path d="M81.462 6.23382C81.277 6.24045 81.0951 6.18448 80.9459 6.07491C80.7966 5.96534 80.6887 5.80863 80.6395 5.6301C80.5872 5.42141 80.6137 5.20075 80.7137 5.01029C80.8138 4.81983 80.9805 4.6729 81.1821 4.5976L85.4345 3.39888C85.6389 3.3521 85.8534 3.3843 86.035 3.489C86.2167 3.5937 86.3521 3.76318 86.414 3.96348C86.476 4.16377 86.46 4.38009 86.3692 4.56908C86.2784 4.75808 86.1196 4.90578 85.9245 4.9826L81.6721 6.17259C81.6196 6.23384 81.567 6.23382 81.462 6.23382Z" fill="#4B4A4B"/>
<path d="M89.9494 3.78407C89.7658 3.78871 89.586 3.7318 89.4385 3.62239C89.291 3.51297 89.1844 3.35736 89.1357 3.18033C89.0833 2.97164 89.1097 2.75097 89.2098 2.56051C89.3099 2.37005 89.4766 2.22315 89.6781 2.14785L93.9305 0.949133C94.1392 0.8968 94.3599 0.923186 94.5504 1.02326C94.7408 1.12333 94.8878 1.29007 94.9631 1.49162C95.0178 1.70154 94.9926 1.92432 94.8924 2.11672C94.7921 2.30912 94.624 2.45743 94.4205 2.53285L90.1681 3.72281C90.1156 3.78406 90.0719 3.78407 89.9494 3.78407Z" fill="#4B4A4B"/>
<path d="M58.5707 14.2403C59.9242 14.2207 61.2454 13.8238 62.3856 13.094C63.5299 12.3523 64.4068 11.2638 64.888 9.98783C65.4234 8.73519 65.5579 7.34753 65.273 6.0154C64.9949 4.67398 64.3321 3.44262 63.3655 2.47173C62.4115 1.50604 61.1942 0.842634 59.8656 0.564272C58.5262 0.29261 57.1361 0.428284 55.8745 0.953833C54.6128 1.47938 53.5375 2.37072 52.787 3.51296C52.0304 4.6373 51.6309 5.96393 51.6408 7.31914C51.6357 8.22835 51.8109 9.12955 52.1564 9.9706C52.5018 10.8117 53.0106 11.5759 53.6533 12.219C54.9945 13.4646 56.7412 14.1825 58.5707 14.2403Z" fill="#FFC853"/>
<path d="M58.5709 14.4767C56.6951 14.4778 54.8954 13.7353 53.5661 12.4117C52.9042 11.7561 52.3798 10.9749 52.0237 10.114C51.6676 9.25305 51.4869 8.32972 51.4923 7.39808C51.506 5.98688 51.9219 4.60885 52.6911 3.42565C53.4699 2.24121 54.5939 1.32483 55.911 0.800703C57.1949 0.242406 58.624 0.110542 59.9884 0.424467C61.3773 0.686797 62.6515 1.37123 63.6371 2.38442C64.6315 3.37567 65.312 4.63783 65.5937 6.01338C65.8753 7.38892 65.7456 8.81695 65.2208 10.1193C64.6801 11.4242 63.7672 12.541 62.5958 13.3305C61.3761 14.0547 59.9892 14.4496 58.5709 14.4767ZM58.5709 0.704468C56.804 0.702117 55.108 1.39937 53.8538 2.64383C52.5995 3.88829 51.8889 5.57872 51.8773 7.34558C51.8842 9.12209 52.588 10.8249 53.8373 12.088C54.4584 12.7103 55.1963 13.2038 56.0086 13.5401C56.821 13.8765 57.6917 14.0491 58.5709 14.048C59.8956 14.0533 61.1901 13.6533 62.2809 12.9017C63.3663 12.1584 64.2163 11.1201 64.7308 9.90928C65.2353 8.68557 65.3663 7.33985 65.107 6.04184C64.8498 4.73914 64.2065 3.54402 63.2608 2.61192C62.3317 1.67045 61.1333 1.04065 59.8309 0.809461C59.4184 0.711474 58.9948 0.667363 58.5709 0.678219V0.704468Z" fill="#FFC853"/>
<path d="M77.6465 31.9766C79.5213 31.9808 81.3528 31.4131 82.8964 30.3491C84.454 29.2879 85.6657 27.7926 86.3812 26.049C87.0967 24.3053 87.2845 22.39 86.9214 20.5405C86.5616 18.6947 85.6456 17.0032 84.2964 15.6932C82.9531 14.3603 81.2503 13.4481 79.3965 13.0682C77.5517 12.6985 75.6385 12.8874 73.9016 13.6107C72.1735 14.3382 70.6955 15.5547 69.6492 17.1106C68.6306 18.6729 68.0838 20.4956 68.0742 22.3605C68.088 23.6096 68.3281 24.8458 68.783 26.0092C69.2581 27.1715 69.9601 28.2274 70.848 29.1153C71.7359 30.0032 72.7919 30.7052 73.9541 31.1803C75.1178 31.6946 76.3743 31.9655 77.6465 31.9766Z" fill="#FFC853"/>
<path d="M77.5917 32.1516C76.3196 32.1475 75.0611 31.8887 73.8906 31.3904C71.5277 30.385 69.6461 28.5034 68.6407 26.1405C68.1438 24.9511 67.8852 23.6758 67.8794 22.3868C67.8589 20.4662 68.4268 18.5853 69.5069 16.9969C70.5752 15.3899 72.0984 14.1378 73.8818 13.4007C75.6528 12.6543 77.6092 12.4651 79.4904 12.8583C81.3886 13.229 83.1333 14.157 84.5016 15.5237C85.87 16.8905 86.7999 18.6341 87.1728 20.5319C87.5413 22.4144 87.3528 24.3635 86.6303 26.1405C85.9095 27.9336 84.6538 29.4612 83.0342 30.5154C81.4568 31.625 79.5727 32.2153 77.6442 32.2041L77.5917 32.1516ZM77.5917 13.0945C76.3893 13.0935 75.1991 13.3346 74.0918 13.8033C72.3929 14.518 70.9373 15.7092 69.9007 17.2332C68.8673 18.7597 68.3157 20.561 68.3169 22.4043C68.2998 23.6224 68.5414 24.8302 69.0257 25.948C69.484 27.0752 70.1724 28.0944 71.0469 28.9404C71.921 29.8033 72.9554 30.4869 74.0918 30.9529C75.1991 31.4216 76.3893 31.6626 77.5917 31.6617C79.4362 31.6594 81.2384 31.1092 82.7697 30.0811C84.3011 29.0529 85.4925 27.5931 86.1928 25.8868C86.8933 24.1809 87.0818 22.3081 86.7353 20.4969C86.3615 18.7021 85.4719 17.0556 84.1756 15.7593C82.8793 14.463 81.2327 13.5733 79.4379 13.1995C78.8429 13.147 78.1867 13.0945 77.5917 13.0945Z" fill="#FFC853"/>
<path d="M98.3418 16.8481C99.1155 16.8481 99.8724 16.6232 100.521 16.2007C101.177 15.7781 101.69 15.1663 101.991 14.4461C102.293 13.726 102.369 12.9312 102.209 12.167C102.047 11.4046 101.667 10.7056 101.116 10.1545C100.562 9.60634 99.8641 9.22699 99.1031 9.0608C98.3364 8.91754 97.5449 8.99336 96.8194 9.27955C96.1007 9.58112 95.4905 10.0937 95.0694 10.7495C94.6469 11.3976 94.4219 12.1546 94.4219 12.9282C94.4302 13.9673 94.8374 14.9634 95.5594 15.7107C96.3111 16.4259 97.3044 16.832 98.3418 16.8481Z" fill="#FFC853"/>
<path d="M98.3404 17.1016C97.2413 17.1021 96.1858 16.6717 95.4004 15.9028C94.6376 15.109 94.1923 14.063 94.1492 12.9629C94.1333 12.1452 94.3819 11.3443 94.8579 10.6792C95.2959 9.98848 95.9426 9.45523 96.7041 9.15674C97.461 8.83588 98.2992 8.75941 99.1016 8.93799C99.9072 9.09855 100.647 9.49425 101.228 10.0751C101.809 10.656 102.205 11.396 102.365 12.2017C102.539 13.0043 102.465 13.8408 102.152 14.6002C101.84 15.3597 101.304 16.0062 100.615 16.4541C99.9251 16.869 99.1368 17.0924 98.3316 17.1016H98.3404ZM98.3404 9.22672C97.8554 9.23138 97.3753 9.32326 96.9229 9.49797C96.2482 9.78991 95.6648 10.2584 95.2342 10.8542C94.818 11.4634 94.6093 12.1907 94.6391 12.9279C94.6391 13.9095 95.0291 14.8509 95.7232 15.545C96.4173 16.2391 97.3587 16.6291 98.3404 16.6291C99.0798 16.6368 99.8027 16.4101 100.405 15.9816C101.015 15.5639 101.49 14.9769 101.77 14.2929C102.031 13.6161 102.106 12.8822 101.989 12.1667C101.837 11.4443 101.478 10.7818 100.956 10.2598C100.434 9.73782 99.7714 9.37888 99.0491 9.22672C98.8116 9.23564 98.5739 9.21804 98.3404 9.17423V9.22672Z" fill="#FFC853"/>
<path d="M70.0757 52.8969C71.2367 52.9011 72.3727 52.56 73.3394 51.9169C74.3206 51.2701 75.0807 50.339 75.5181 49.2482C75.9501 48.1591 76.0654 46.97 75.8506 45.8182C75.6143 44.6805 75.0447 43.6387 74.2143 42.8258C73.3658 42.0106 72.3094 41.4445 71.1607 41.1896C70.0091 40.9699 68.8186 41.0853 67.7307 41.5221C66.6393 41.9584 65.7079 42.7188 65.062 43.7008C64.4227 44.6692 64.082 45.8041 64.082 46.9645C64.096 47.7451 64.244 48.5176 64.5195 49.2482C64.7991 49.9771 65.2456 50.6304 65.8232 51.1556C66.3665 51.6992 67.0158 52.1251 67.7307 52.4069C68.4629 52.7524 69.2664 52.9203 70.0757 52.8969Z" fill="#FFC853"/>
<path d="M70.077 53.1159C69.2696 53.1191 68.4705 52.9521 67.732 52.626C66.9916 52.3096 66.3109 51.8686 65.7195 51.3222C65.1405 50.7569 64.6951 50.0693 64.4158 49.3098C64.0906 48.5709 63.9237 47.7721 63.9258 46.9648C63.9392 45.7469 64.2971 44.5577 64.9583 43.5349C65.6285 42.5322 66.5828 41.7525 67.699 41.2958C68.8152 40.839 70.0423 40.726 71.2232 40.9712C72.4208 41.2068 73.5207 41.7948 74.3819 42.6599C75.2297 43.5324 75.8123 44.6278 76.0618 45.8186C76.2837 47.007 76.1716 48.2337 75.7381 49.3623C75.2617 50.4733 74.4901 51.4326 73.5069 52.136C72.4796 52.7813 71.2901 53.1212 70.077 53.1159ZM70.0245 41.3562C69.2773 41.3653 68.5384 41.5137 67.8457 41.7937C66.7983 42.2148 65.901 42.9399 65.2695 43.8756C64.6379 44.8113 64.3009 45.9147 64.302 47.0436C64.3112 47.7907 64.4596 48.5295 64.7395 49.2223C65.0223 49.9213 65.4485 50.5532 65.9907 51.0772C66.5295 51.6016 67.1577 52.0254 67.8457 52.3285C68.5384 52.6084 69.2773 52.7568 70.0245 52.766C71.1531 52.772 72.2561 52.4298 73.1831 51.786C74.096 51.1395 74.8109 50.2518 75.2481 49.2223C75.6809 48.1915 75.7937 47.0543 75.5718 45.9586C75.3384 44.8724 74.7911 43.8786 73.9978 43.1009C73.2044 42.3231 72.2001 41.7955 71.1094 41.5837C70.7709 41.4229 70.399 41.3449 70.0245 41.3562Z" fill="#FFC853"/>
<path d="M58.7126 6.05639L57.3047 7.85449L77.4973 23.6647L78.9051 21.8666L58.7126 6.05639Z" fill="#FFC853"/>
<path d="M98.9646 11.3595L75.8594 21.4395L76.7726 23.5326L99.8777 13.4526L98.9646 11.3595Z" fill="#FFC853"/>
<path d="M76.5086 20.7226L70.0039 44.9141L72.2093 45.5071L78.714 21.3156L76.5086 20.7226Z" fill="#FFC853"/>
<path d="M1.90746 97.0927V92.5515H0V91.8341H2.86121V97.084L1.90746 97.0927ZM1.78495 90.6441V89.4541H2.98367V90.6441H1.78495Z" fill="#4B4A4B"/>
<path d="M6.01172 97.0931V91.8432H6.94796V92.832C7.11332 92.5076 7.36319 92.234 7.67122 92.0399C7.97924 91.8459 8.33398 91.7386 8.69792 91.7295C9.6954 91.7295 10.1942 92.3245 10.1942 93.4795V97.0756H9.24041V93.7419C9.26332 93.4377 9.19641 93.1335 9.04794 92.867C8.97021 92.7758 8.87136 92.705 8.76003 92.6608C8.64871 92.6166 8.52825 92.6002 8.40916 92.6132C7.92792 92.6132 7.42921 92.9545 6.90422 93.6369V97.0756L6.01172 97.0931Z" fill="#4B4A4B"/>
<path d="M11.9688 97.0931V91.8432H12.9225V92.832C13.0879 92.5076 13.3377 92.234 13.6458 92.0399C13.9538 91.8459 14.3085 91.7386 14.6725 91.7295C15.6699 91.7295 16.1687 92.3245 16.1687 93.4795V97.0756H15.2587V93.7419C15.2816 93.4377 15.2147 93.1335 15.0662 92.867C14.9885 92.7758 14.8896 92.705 14.7783 92.6608C14.667 92.6166 14.5465 92.6002 14.4274 92.6132C13.9462 92.6132 13.4475 92.9545 12.9225 93.6369V97.0756L11.9688 97.0931Z" fill="#4B4A4B"/>
<path d="M20.0713 97.2063C19.7336 97.2225 19.3964 97.1661 19.0824 97.0408C18.7684 96.9155 18.485 96.7243 18.2513 96.4801C17.7887 95.9149 17.5546 95.1969 17.595 94.4677C17.5509 93.7365 17.7889 93.0162 18.26 92.4552C18.7482 91.9898 19.3968 91.7302 20.0713 91.7302C20.7457 91.7302 21.3943 91.9898 21.8825 92.4552C22.3144 93.0373 22.5475 93.7429 22.5475 94.4677C22.5475 95.1925 22.3144 95.898 21.8825 96.4801C21.6511 96.725 21.3693 96.9168 21.0566 97.0422C20.7439 97.1676 20.4077 97.2236 20.0713 97.2063ZM20.0713 96.4976C20.2816 96.5035 20.49 96.457 20.6779 96.3623C20.8658 96.2676 21.0271 96.1277 21.1475 95.9551C21.4003 95.4985 21.5329 94.9852 21.5329 94.4633C21.5329 93.9414 21.4003 93.428 21.1475 92.9714C21.0208 92.8063 20.8579 92.6725 20.6713 92.5805C20.4847 92.4884 20.2794 92.4405 20.0713 92.4405C19.8632 92.4405 19.6578 92.4884 19.4712 92.5805C19.2846 92.6725 19.1217 92.8063 18.995 92.9714C18.7423 93.428 18.6096 93.9414 18.6096 94.4633C18.6096 94.9852 18.7423 95.4985 18.995 95.9551C19.1154 96.1277 19.2768 96.2676 19.4646 96.3623C19.6525 96.457 19.861 96.5035 20.0713 96.4976Z" fill="#4B4A4B"/>
<path d="M25.5069 97.0927L23.3281 91.8428H24.3082L26.0581 96.0514L27.8606 91.8428H28.7356L26.5043 97.0927H25.5069Z" fill="#4B4A4B"/>
<path d="M33.029 96.4537C32.5528 96.8996 31.931 97.1577 31.279 97.18C30.8451 97.1953 30.421 97.0487 30.0891 96.7687C29.9399 96.64 29.821 96.4799 29.7408 96.2999C29.6606 96.1199 29.6212 95.9245 29.6253 95.7275C29.6236 95.4648 29.6895 95.2061 29.8167 94.9762C29.9439 94.7464 30.1281 94.5531 30.3515 94.415C30.9244 94.057 31.5931 93.883 32.2678 93.9163H32.854V93.47C32.8691 93.3277 32.8552 93.1837 32.8131 93.0468C32.771 92.91 32.7016 92.7831 32.609 92.6738C32.3744 92.4942 32.0807 92.4099 31.7865 92.4376C31.1886 92.4513 30.603 92.6105 30.0803 92.9013V92.0876C30.6871 91.8559 31.3296 91.7315 31.979 91.7201C32.4841 91.6695 32.9898 91.81 33.3965 92.1138C33.7078 92.5004 33.8555 92.9935 33.8077 93.4875V95.6837C33.7899 95.9049 33.826 96.127 33.9127 96.3312C33.9529 96.3925 34.0095 96.4414 34.0759 96.4723C34.1424 96.5032 34.2162 96.515 34.289 96.5062C34.3898 96.5002 34.4896 96.4826 34.5865 96.4537L34.674 97.0225C34.4439 97.1102 34.2021 97.1633 33.9565 97.18C33.7425 97.1818 33.5342 97.111 33.3657 96.9791C33.1972 96.8471 33.0785 96.6619 33.029 96.4537ZM32.8803 95.8325V94.5113H32.5915C31.2878 94.5113 30.6403 94.8613 30.6403 95.57C30.6344 95.6837 30.6533 95.7974 30.6956 95.9031C30.7379 96.0089 30.8026 96.1042 30.8853 96.1825C31.0713 96.3447 31.3125 96.4293 31.559 96.4187C32.0526 96.3906 32.5205 96.1892 32.8803 95.85V95.8325Z" fill="#4B4A4B"/>
<path d="M40.2924 97.0842C39.8362 97.1669 39.3736 97.2079 38.91 97.2067C38.6326 97.2851 38.3394 97.2884 38.0604 97.2163C37.7813 97.1442 37.5264 96.9993 37.3217 96.7964C37.117 96.5935 36.9699 96.3399 36.8953 96.0614C36.8208 95.783 36.8215 95.4898 36.8975 95.2118V92.6743H35.5938V91.9568H36.8975V90.8281H37.8512V91.9568H40.1962V92.6743H37.86V95.3605C37.8475 95.5695 37.8682 95.7792 37.9212 95.9818C37.9642 96.1047 38.0474 96.2096 38.1574 96.2792C38.4517 96.4403 38.785 96.5161 39.12 96.498C39.5176 96.4946 39.9137 96.4477 40.3012 96.358L40.2924 97.0842Z" fill="#4B4A4B"/>
<path d="M46.2352 96.8823C45.6528 97.0868 45.0412 97.1961 44.424 97.2061C43.6659 97.2586 42.9177 97.0103 42.3416 96.5148C42.0882 96.2512 41.8928 95.9376 41.7677 95.594C41.6427 95.2505 41.5908 94.8846 41.6153 94.5199C41.5855 93.7862 41.8322 93.068 42.3065 92.5074C42.5236 92.257 42.7926 92.0569 43.0948 91.9209C43.397 91.785 43.7251 91.7164 44.0565 91.7199C44.3561 91.696 44.6573 91.743 44.9354 91.857C45.2136 91.971 45.461 92.1488 45.6577 92.3762C46.0469 92.9782 46.2283 93.6912 46.174 94.4061V94.7124H42.5953C42.5853 94.9602 42.6298 95.2071 42.7256 95.4359C42.8213 95.6646 42.9661 95.8696 43.1496 96.0364C43.3331 96.2032 43.5508 96.3278 43.7876 96.4014C44.0245 96.4749 44.2745 96.4958 44.5202 96.4623C45.0985 96.4473 45.6685 96.3226 46.2002 96.0948L46.2352 96.8823ZM42.6565 93.9949H45.194V93.8549C45.194 92.9099 44.7915 92.4374 44.004 92.4374C43.8285 92.4328 43.6543 92.4672 43.4939 92.5384C43.3334 92.6095 43.1908 92.7155 43.0765 92.8487C42.8191 93.1769 42.6721 93.5781 42.6565 93.9949Z" fill="#4B4A4B"/>
<path d="M67.6445 97.1452V89.4541H68.5895V92.8228C68.7541 92.4979 69.0039 92.2237 69.312 92.0295C69.6202 91.8354 69.9753 91.7285 70.3395 91.7203C70.6131 91.7106 70.8848 91.7687 71.1305 91.8892C71.3763 92.0098 71.5884 92.1893 71.7482 92.4115C72.1196 92.9661 72.3008 93.6263 72.2645 94.2928C72.2969 95.0438 72.0817 95.7847 71.652 96.4015C71.4728 96.6559 71.2338 96.8623 70.9562 97.0027C70.6785 97.143 70.3706 97.213 70.0595 97.2064C69.7805 97.2075 69.5051 97.1441 69.2546 97.0211C69.0042 96.8982 68.7856 96.719 68.6157 96.4977L68.3795 97.1452H67.6445ZM68.5895 95.7802C68.748 95.9828 68.9461 96.151 69.1717 96.2743C69.3974 96.3977 69.6459 96.4737 69.902 96.4977C70.0995 96.5016 70.2944 96.4516 70.4655 96.3529C70.6367 96.2542 70.7777 96.1107 70.8732 95.9377C71.1263 95.4623 71.2443 94.9267 71.2145 94.389C71.2145 93.1553 70.847 92.534 70.112 92.534C69.7952 92.5642 69.4907 92.6718 69.2252 92.8472C68.9597 93.0227 68.7415 93.2607 68.5895 93.5403V95.7802Z" fill="#4B4A4B"/>
<path d="M77.8202 91.834V97.0839H76.9452V96.0951C76.778 96.4272 76.5216 96.7063 76.2048 96.901C75.8881 97.0957 75.5234 97.1984 75.1515 97.1976C74.1628 97.1976 73.6641 96.6114 73.6641 95.4477V91.8515H74.6178V95.1852C74.5894 95.4897 74.6566 95.7956 74.8103 96.0601C74.8866 96.1535 74.985 96.2264 75.0965 96.2722C75.208 96.318 75.3291 96.3354 75.449 96.3226C75.9302 96.3226 76.429 95.9814 76.9452 95.2901V91.8515L77.8202 91.834Z" fill="#4B4A4B"/>
<path d="M81.4865 97.0927V92.5515H79.5703V91.8341H82.4403V97.084L81.4865 97.0927ZM81.364 90.6441V89.4541H82.554V90.6441H81.364Z" fill="#4B4A4B"/>
<path d="M87.569 97.0927V90.1716H85.5391V89.4541H88.5227V97.0927H87.569Z" fill="#4B4A4B"/>
<path d="M94.9286 97.0927V96.104C94.7632 96.4283 94.5133 96.7019 94.2053 96.896C93.8973 97.09 93.5425 97.1973 93.1786 97.2064C92.9061 97.217 92.6354 97.1593 92.3909 97.0386C92.1464 96.9179 91.9359 96.738 91.7786 96.5152C91.4073 95.9606 91.2261 95.3004 91.2624 94.634C91.2266 93.8826 91.4421 93.1407 91.8749 92.5253C92.0546 92.2715 92.2936 92.0654 92.5712 91.9251C92.8487 91.7848 93.1564 91.7145 93.4673 91.7203C93.7464 91.7168 94.0223 91.7801 94.2719 91.9049C94.5215 92.0297 94.7377 92.2124 94.9023 92.4378V89.4541H95.856V97.0927H94.9286ZM94.9286 93.1553C94.7733 92.9514 94.5771 92.7822 94.3526 92.6587C94.1281 92.5351 93.8802 92.4599 93.6248 92.4378C93.4271 92.4333 93.2317 92.4821 93.0593 92.5791C92.8869 92.6761 92.7437 92.8177 92.6449 92.989C92.3907 93.4672 92.2726 94.0059 92.3036 94.5465C92.3036 95.7802 92.6711 96.4015 93.4148 96.4015C93.7309 96.369 94.0342 96.2595 94.2981 96.0825C94.562 95.9055 94.7785 95.6666 94.9286 95.3865V93.1553Z" fill="#4B4A4B"/>
<path d="M115.445 97.0934V91.8435H116.399V92.8322C116.597 92.492 116.883 92.2107 117.226 92.017C117.568 91.8233 117.957 91.7241 118.35 91.7297C118.677 91.7364 119.003 91.7775 119.321 91.8522V93.3397H118.604V92.6134C118.478 92.5799 118.349 92.5623 118.219 92.5609C117.884 92.5551 117.553 92.643 117.265 92.8147C116.92 93.0472 116.623 93.3443 116.39 93.6897V97.1109L115.445 97.0934Z" fill="#4B4A4B"/>
<path d="M125.213 96.8826C124.627 97.0864 124.013 97.1957 123.393 97.2064C122.635 97.259 121.886 97.0106 121.31 96.5152C121.057 96.2515 120.862 95.9379 120.736 95.5944C120.611 95.2508 120.56 94.885 120.584 94.5202C120.553 93.7848 120.803 93.0652 121.284 92.5077C121.5 92.256 121.769 92.0549 122.071 91.9188C122.374 91.7827 122.702 91.7149 123.034 91.7203C123.334 91.6957 123.635 91.7423 123.913 91.8564C124.192 91.9704 124.439 92.1486 124.635 92.3765C125.024 92.9786 125.206 93.6916 125.151 94.4065V94.7127H121.573C121.563 94.9605 121.607 95.2074 121.703 95.4362C121.799 95.6649 121.944 95.8699 122.127 96.0367C122.311 96.2035 122.528 96.3281 122.765 96.4017C123.002 96.4753 123.252 96.4961 123.498 96.4627C124.079 96.4477 124.652 96.323 125.186 96.0952L125.213 96.8826ZM121.625 93.9952H124.198V93.8552C124.198 92.9102 123.795 92.4377 123.008 92.4377C122.832 92.4331 122.658 92.4676 122.498 92.5387C122.337 92.6098 122.195 92.7158 122.08 92.849C121.81 93.1728 121.651 93.5744 121.625 93.9952Z" fill="#4B4A4B"/>
<path d="M126.734 98.9998V91.8337H127.697V92.8224C127.86 92.4963 128.109 92.2211 128.418 92.0267C128.726 91.8323 129.082 91.7262 129.447 91.72C129.72 91.7095 129.992 91.7672 130.238 91.8879C130.484 92.0085 130.696 92.1883 130.856 92.4112C131.227 92.9658 131.408 93.626 131.372 94.2924C131.404 95.0434 131.189 95.7843 130.759 96.4011C130.581 96.6566 130.342 96.8639 130.065 97.0044C129.787 97.1449 129.478 97.2142 129.167 97.2061C128.888 97.2106 128.613 97.1487 128.364 97.0254C128.114 96.9021 127.897 96.7211 127.732 96.4974V98.9998H126.734ZM127.688 95.7799C127.844 95.983 128.04 96.1516 128.265 96.2751C128.489 96.3986 128.737 96.4742 128.992 96.4974C129.19 96.5033 129.385 96.454 129.557 96.3551C129.728 96.2562 129.869 96.1116 129.963 95.9374C130.22 95.463 130.341 94.9272 130.313 94.3886C130.313 93.1549 129.937 92.5337 129.202 92.5337C128.886 92.5645 128.583 92.6724 128.319 92.8479C128.055 93.0233 127.839 93.261 127.688 93.5399V95.7799Z" fill="#4B4A4B"/>
<path d="M137.134 96.883C136.551 97.0874 135.94 97.1967 135.322 97.2067C134.564 97.2603 133.816 97.0118 133.24 96.5155C132.987 96.2519 132.791 95.9382 132.666 95.5947C132.541 95.2512 132.489 94.8853 132.514 94.5205C132.484 93.7868 132.731 93.0686 133.205 92.5081C133.422 92.2577 133.691 92.0576 133.993 91.9216C134.295 91.7856 134.624 91.717 134.955 91.7206C135.255 91.6974 135.555 91.7447 135.833 91.8586C136.111 91.9726 136.359 92.15 136.556 92.3768C136.945 92.9789 137.127 93.6919 137.072 94.4068V94.713H133.494C133.484 94.9608 133.528 95.2078 133.624 95.4365C133.72 95.6653 133.864 95.8702 134.048 96.037C134.231 96.2039 134.449 96.3284 134.686 96.402C134.923 96.4756 135.173 96.4964 135.419 96.463C135.997 96.448 136.567 96.3233 137.099 96.0955L137.134 96.883ZM133.555 93.9955H136.092V93.8555C136.092 92.9106 135.69 92.4381 134.902 92.4381C134.727 92.4334 134.553 92.4679 134.392 92.539C134.232 92.6102 134.089 92.7162 133.975 92.8493C133.718 93.1775 133.571 93.5787 133.555 93.9955Z" fill="#4B4A4B"/>
<path d="M141.834 96.4541C141.356 96.898 140.735 97.1557 140.084 97.1804C139.65 97.1957 139.226 97.0491 138.894 96.7691C138.745 96.6404 138.626 96.4803 138.545 96.3003C138.465 96.1203 138.426 95.9249 138.43 95.7279C138.427 95.4649 138.492 95.2055 138.619 94.9754C138.746 94.7452 138.932 94.5522 139.156 94.4154C139.729 94.0574 140.398 93.8834 141.072 93.9167H141.694V93.4704C141.709 93.328 141.695 93.1841 141.653 93.0472C141.611 92.9103 141.541 92.7835 141.449 92.6742C141.214 92.4946 140.92 92.4103 140.626 92.438C140.028 92.4517 139.443 92.6109 138.92 92.9017V92.088C139.527 91.8563 140.169 91.7319 140.819 91.7205C141.324 91.6716 141.829 91.8119 142.236 92.1142C142.547 92.5008 142.695 92.9939 142.647 93.4879V95.6841C142.632 95.9044 142.665 96.1253 142.744 96.3316C142.787 96.3922 142.845 96.4404 142.912 96.4711C142.98 96.5019 143.055 96.5141 143.129 96.5066C143.229 96.4998 143.329 96.4822 143.426 96.4541L143.514 97.0229C143.283 97.1098 143.042 97.1628 142.796 97.1804C142.576 97.1904 142.36 97.1233 142.184 96.9907C142.008 96.8581 141.884 96.6683 141.834 96.4541ZM141.694 95.8504V94.5292H141.405C140.101 94.5292 139.454 94.8792 139.454 95.5879C139.448 95.7016 139.467 95.8153 139.509 95.921C139.551 96.0268 139.616 96.1221 139.699 96.2004C139.884 96.3642 140.126 96.449 140.372 96.4366C140.868 96.4022 141.336 96.1947 141.694 95.8504Z" fill="#4B4A4B"/>
<path d="M149.098 97.0842C148.642 97.1665 148.179 97.2075 147.716 97.2067C147.438 97.2851 147.145 97.2884 146.866 97.2163C146.587 97.1442 146.332 96.9993 146.127 96.7964C145.923 96.5935 145.775 96.3399 145.701 96.0614C145.626 95.783 145.627 95.4898 145.703 95.2118V92.6743H144.391V91.9568H145.703V90.8281H146.657V91.9568H148.984V92.6743H146.657V95.3605C146.647 95.569 146.665 95.7778 146.709 95.9818C146.759 96.1035 146.844 96.2073 146.954 96.2792C147.245 96.4414 147.576 96.5173 147.908 96.498C148.309 96.4951 148.708 96.4482 149.098 96.358V97.0842Z" fill="#4B4A4B"/>
</svg>
