<svg width="1369" height="295" viewBox="0 0 1369 295" fill="none" xmlns="http://www.w3.org/2000/svg">
<g clip-path="url(#clip0_2963_17041)">
<rect width="1369" height="295" fill="#373A41"/>
<g style="mix-blend-mode:hard-light" opacity="0.8">
<g style="mix-blend-mode:overlay" clip-path="url(#clip1_2963_17041)">
<g style="mix-blend-mode:multiply" opacity="0.59">
<path d="M92.9986 283.128C92.9986 283.128 92.8344 283.292 92.7358 283.26C92.6045 283.26 92.5388 283.096 92.5716 282.997L105.874 229.509C105.874 229.509 106.038 229.312 106.136 229.345C106.268 229.345 106.333 229.509 106.301 229.607L92.9986 283.096C92.9986 283.096 92.9986 283.096 92.9986 283.128Z" fill="#0BFAE9"/>
</g>
<g style="mix-blend-mode:multiply" opacity="0.5">
<path d="M92.933 283.095C92.933 283.095 92.8673 283.194 92.8016 283.194L-23.4671 290.409C-23.4671 290.409 -23.6313 290.343 -23.6313 290.278C-23.6313 290.212 -23.5657 290.114 -23.5 290.114L92.7688 282.899C92.7688 282.899 92.933 282.964 92.933 283.03C92.933 283.03 92.933 283.063 92.933 283.095Z" fill="#0BFAE9"/>
</g>
<g style="mix-blend-mode:multiply" opacity="0.64">
<path d="M350.136 334.846C350.136 334.846 350.071 334.944 350.005 334.977C349.874 335.01 349.742 334.977 349.677 334.846L324.255 268.83C324.255 268.83 324.255 268.567 324.387 268.502C324.518 268.469 324.649 268.502 324.715 268.633L350.136 334.649C350.136 334.649 350.136 334.78 350.136 334.846Z" fill="#0BFAE9"/>
</g>
<g style="mix-blend-mode:multiply" opacity="0.53">
<path d="M56.7713 319.793C56.7713 319.793 56.7056 319.891 56.6399 319.891C56.5414 319.891 56.4757 319.826 56.4757 319.727L56.6399 232.001C56.6399 232.001 56.7056 231.837 56.8041 231.837C56.9027 231.837 56.9684 231.903 56.9684 232.001L56.8041 319.727C56.8041 319.727 56.8041 319.76 56.8041 319.793H56.7713Z" fill="#0BFAE9"/>
</g>
<g style="mix-blend-mode:multiply" opacity="0.55">
<path d="M490.086 293.131C490.086 293.131 490.053 293.196 490.02 293.229L405.019 337.765C405.019 337.765 404.822 337.765 404.789 337.699C404.756 337.601 404.789 337.502 404.855 337.47L489.856 292.934C489.856 292.934 490.053 292.934 490.086 293C490.086 293.065 490.086 293.098 490.086 293.164V293.131Z" fill="#0BFAE9"/>
</g>
<g style="mix-blend-mode:multiply" opacity="0.54">
<path d="M56.9685 232.067C56.9685 232.067 56.9028 232.132 56.87 232.165C56.7714 232.165 56.6729 232.165 56.6401 232.067L42.944 196.091C42.944 196.091 42.944 195.894 43.0425 195.861C43.1411 195.861 43.2396 195.861 43.2724 195.959L56.9685 231.935C56.9685 231.935 56.9685 232.034 56.9685 232.067Z" fill="#0BFAE9"/>
</g>
<g style="mix-blend-mode:multiply" opacity="0.56">
<path d="M2.54544 142.963C2.54544 142.963 2.51258 143.028 2.47974 143.028L-91.8162 210.16C-91.8162 210.16 -92.0133 210.192 -92.0789 210.127C-92.1446 210.028 -92.1118 209.93 -92.0461 209.865L2.24983 142.733C2.24983 142.733 2.4469 142.7 2.51259 142.766C2.54543 142.832 2.54543 142.897 2.51259 142.963H2.54544Z" fill="#0BFAE9"/>
</g>
<g style="mix-blend-mode:multiply" opacity="0.55">
<path d="M21.1682 236.756C21.1682 236.756 21.0368 236.887 20.9383 236.855L-91.9475 210.192C-91.9475 210.192 -92.1118 210.061 -92.0789 209.963C-92.0789 209.864 -91.9475 209.799 -91.849 209.832L21.0368 236.494C21.0368 236.494 21.201 236.625 21.1682 236.724C21.1682 236.724 21.1682 236.724 21.1682 236.756Z" fill="#0BFAE9"/>
</g>
<g style="mix-blend-mode:multiply" opacity="0.54">
<path d="M43.2396 196.091C43.2396 196.091 43.1739 196.189 43.1082 196.189L-91.8818 210.192C-91.8818 210.192 -92.0789 210.127 -92.0789 210.028C-92.0789 209.93 -92.0132 209.832 -91.9146 209.832L43.0754 195.828C43.0754 195.828 43.2724 195.894 43.2724 195.992C43.2724 195.992 43.2724 196.058 43.2724 196.091H43.2396Z" fill="#0BFAE9"/>
</g>
<g style="mix-blend-mode:multiply" opacity="0.67">
<path d="M43.371 196.123C43.371 196.123 43.3053 196.222 43.2725 196.255C43.1411 196.353 42.944 196.32 42.8455 196.189L2.15142 143.061C2.15142 143.061 2.08575 142.733 2.21713 142.635C2.3485 142.537 2.54556 142.569 2.64409 142.701L43.3382 195.861C43.3382 195.861 43.4038 196.058 43.371 196.156V196.123Z" fill="#0BFAE9"/>
</g>
<g style="mix-blend-mode:multiply" opacity="0.58">
<path d="M63.2417 215.144C63.2417 215.144 63.2417 215.177 63.2089 215.21C63.1432 215.308 63.0118 215.308 62.9133 215.21L42.9439 196.156C42.9439 196.156 42.8454 195.927 42.9439 195.861C43.0096 195.763 43.141 195.763 43.2396 195.861L63.2089 214.915C63.2089 214.915 63.2745 215.079 63.2417 215.144Z" fill="#0BFAE9"/>
</g>
<g style="mix-blend-mode:multiply" opacity="0.68">
<path d="M43.3709 196.156L21.2667 236.822C21.2667 236.822 21.004 237.019 20.8397 236.953C20.6755 236.855 20.6427 236.691 20.7084 236.527L42.8126 195.861C42.8126 195.861 43.0753 195.664 43.2395 195.73C43.3709 195.795 43.4366 195.992 43.3709 196.123V196.156Z" fill="#0BFAE9"/>
</g>
<g style="mix-blend-mode:multiply" opacity="0.6">
<path d="M59.2019 212.127C59.2019 212.127 59.169 212.193 59.1033 212.226L21.1025 236.887C21.1025 236.887 20.8397 236.92 20.774 236.822C20.7084 236.724 20.7412 236.56 20.8397 236.494L58.8406 211.832C58.8406 211.832 59.1033 211.799 59.169 211.898C59.2019 211.963 59.2347 212.062 59.169 212.127H59.2019Z" fill="#0BFAE9"/>
</g>
<g style="mix-blend-mode:multiply" opacity="0.54">
<path d="M21.1353 236.756C21.1353 236.756 21.0696 236.855 21.0039 236.855C20.9054 236.855 20.8069 236.822 20.8069 236.724L2.21704 142.93C2.21704 142.93 2.24986 142.733 2.3484 142.733C2.44693 142.733 2.54548 142.766 2.54548 142.864L21.1353 236.658C21.1353 236.658 21.1353 236.723 21.1353 236.756Z" fill="#0BFAE9"/>
</g>
<g style="mix-blend-mode:multiply" opacity="0.68">
<path d="M63.3403 215.21C63.3403 215.21 63.2746 215.341 63.2089 215.374L21.1354 236.986C21.1354 236.986 20.7741 236.986 20.7084 236.855C20.6427 236.691 20.7084 236.494 20.8398 236.428L62.9133 214.816C62.9133 214.816 63.2746 214.816 63.3403 214.948C63.3731 215.046 63.3731 215.144 63.3403 215.21Z" fill="#0BFAE9"/>
</g>
<g style="mix-blend-mode:multiply" opacity="0.8">
<path d="M63.5702 215.309C63.5702 215.309 63.5373 215.374 63.5045 215.407C63.3074 215.669 62.9462 215.702 62.7162 215.505L58.6436 212.455C58.3808 212.259 58.3479 211.898 58.545 211.668C58.7421 211.406 59.1034 211.373 59.3333 211.57L63.406 214.62C63.6359 214.784 63.7016 215.079 63.5702 215.309Z" fill="#0BFAE9"/>
</g>
<g style="mix-blend-mode:multiply" opacity="0.61">
<path d="M110.439 251.481C110.439 251.481 110.439 251.514 110.439 251.547C110.34 251.645 110.209 251.678 110.078 251.58L62.9132 215.276C62.9132 215.276 62.7819 215.046 62.8804 214.915C62.9789 214.816 63.1103 214.784 63.2417 214.882L110.406 251.186C110.406 251.186 110.537 251.383 110.472 251.481H110.439Z" fill="#0BFAE9"/>
</g>
<g style="mix-blend-mode:multiply" opacity="0.67">
<path d="M110.505 251.514C110.505 251.514 110.505 251.547 110.472 251.58C110.373 251.711 110.176 251.744 110.012 251.645L58.7749 212.291C58.7749 212.291 58.6107 211.996 58.7092 211.832C58.8078 211.701 59.0048 211.668 59.169 211.767L110.406 251.121C110.406 251.121 110.57 251.383 110.505 251.514Z" fill="#0BFAE9"/>
</g>
<g style="mix-blend-mode:multiply" opacity="0.93">
<path d="M89.9112 281.751C90.6338 280.177 92.5059 279.455 94.0825 280.177C95.659 280.898 96.3816 282.768 95.659 284.342C94.9364 285.916 93.0643 286.637 91.4878 285.916C89.9113 285.194 89.1887 283.325 89.9112 281.751Z" fill="#0BFAE9"/>
</g>
<g style="mix-blend-mode:multiply" opacity="0.97">
<path d="M103.213 228.262C103.936 226.688 105.808 225.967 107.384 226.688C108.961 227.41 109.684 229.279 108.961 230.853C108.238 232.427 106.366 233.149 104.79 232.427C103.213 231.706 102.491 229.837 103.213 228.262Z" fill="#0BFAE9"/>
</g>
<g style="mix-blend-mode:multiply">
<path d="M321.398 267.354C322.153 265.649 324.157 264.894 325.864 265.649C327.572 266.403 328.328 268.403 327.572 270.109C326.817 271.814 324.813 272.568 323.106 271.814C321.398 271.06 320.642 269.059 321.398 267.354Z" fill="#0BFAE9"/>
</g>
<g style="mix-blend-mode:multiply">
<path d="M486.736 291.622C487.524 289.851 489.593 289.064 491.367 289.884C493.14 290.704 493.929 292.737 493.108 294.508C492.319 296.279 490.25 297.066 488.477 296.246C486.703 295.426 485.915 293.393 486.736 291.622Z" fill="#0BFAE9"/>
</g>
<g style="mix-blend-mode:multiply" opacity="0.83">
<path d="M440.255 37.7299C440.912 36.2541 442.652 35.5982 444.13 36.2541C445.608 36.91 446.265 38.6482 445.608 40.1239C444.951 41.5997 443.211 42.2556 441.733 41.5997C440.255 40.9438 439.598 39.2057 440.255 37.7299Z" fill="#0BFAE9"/>
</g>
<g style="mix-blend-mode:multiply">
<path d="M53.7169 230.624C54.4723 228.918 56.4758 228.164 58.1837 228.918C59.8916 229.673 60.647 231.673 59.8916 233.378C59.1362 235.084 57.1327 235.838 55.4248 235.084C53.7169 234.33 52.9615 232.329 53.7169 230.624Z" fill="#0BFAE9"/>
</g>
<g style="mix-blend-mode:multiply">
<path d="M39.791 194.549C40.6121 192.746 42.747 191.926 44.5534 192.746C46.3598 193.565 47.1809 195.697 46.3598 197.501C45.5387 199.305 43.4038 200.124 41.5974 199.305C39.791 198.485 38.9699 196.353 39.791 194.549Z" fill="#0BFAE9"/>
</g>
<g style="mix-blend-mode:multiply">
<path d="M17.5881 235.149C18.4421 233.28 20.6427 232.427 22.5148 233.28C24.3869 234.133 25.2409 236.33 24.3869 238.199C23.533 240.069 21.3324 240.921 19.4603 240.069C17.5881 239.216 16.7342 237.019 17.5881 235.149Z" fill="#0BFAE9"/>
</g>
<g style="mix-blend-mode:multiply">
<path d="M59.6616 213.538C60.5156 211.668 62.7161 210.816 64.5883 211.668C66.4604 212.521 67.3143 214.718 66.4604 216.587C65.6064 218.457 63.4059 219.309 61.5338 218.457C59.6616 217.604 58.8077 215.407 59.6616 213.538Z" fill="#0BFAE9"/>
</g>
<g style="mix-blend-mode:multiply">
<path d="M106.728 249.809C107.582 247.874 109.848 247.021 111.786 247.874C113.723 248.726 114.577 250.989 113.723 252.924C112.869 254.859 110.603 255.712 108.665 254.859C106.728 254.006 105.874 251.744 106.728 249.809Z" fill="#0BFAE9"/>
</g>
<g style="mix-blend-mode:multiply">
<path d="M-0.903134 141.389C-0.0820267 139.585 2.05287 138.765 3.8593 139.585C5.66574 140.405 6.48683 142.536 5.66572 144.34C4.84462 146.144 2.70975 146.964 0.903312 146.144C-0.903124 145.324 -1.72424 143.192 -0.903134 141.389Z" fill="#0BFAE9"/>
</g>
<g style="mix-blend-mode:multiply">
<path d="M55.4905 210.455C56.3445 208.52 58.6107 207.667 60.5485 208.52C62.4863 209.373 63.3403 211.635 62.4864 213.57C61.6324 215.505 59.3661 216.358 57.4283 215.505C55.4905 214.653 54.6366 212.39 55.4905 210.455Z" fill="#0BFAE9"/>
</g>
<g style="mix-blend-mode:multiply" opacity="0.35">
<path d="M605.041 22.3104C605.074 22.212 605.205 22.1792 605.304 22.212L621.167 30.3124C621.167 30.3124 621.299 30.4763 621.266 30.5747C621.233 30.6731 621.102 30.7059 621.003 30.6731L605.139 22.5728C605.139 22.5728 605.008 22.4088 605.041 22.3104Z" fill="#0BFAE9"/>
</g>
<g style="mix-blend-mode:multiply" opacity="0.37">
<path d="M906.65 -2.08912C906.65 -2.08912 906.715 -2.1875 906.781 -2.1875C906.88 -2.1875 906.945 -2.12191 906.945 -2.05632L912.398 63.2711C912.398 63.2711 912.332 63.4351 912.266 63.4351C912.168 63.4351 912.102 63.3695 912.102 63.304L906.65 -2.02352V-2.08912Z" fill="#0BFAE9"/>
</g>
<g style="mix-blend-mode:multiply" opacity="0.32">
<path d="M906.683 -2.0891C906.683 -2.0891 906.781 -2.18748 906.847 -2.15468L989.713 32.5095C989.713 32.5095 989.812 32.6079 989.779 32.6735C989.779 32.7391 989.68 32.7719 989.614 32.7391L906.748 -1.92512C906.748 -1.92512 906.65 -2.02351 906.683 -2.0891Z" fill="#0BFAE9"/>
</g>
<g style="mix-blend-mode:multiply" opacity="0.36">
<path d="M912.102 63.2384C912.135 63.14 912.234 63.1072 912.332 63.1728L948.297 80.3901C948.297 80.3901 948.428 80.5213 948.362 80.6197C948.33 80.7181 948.231 80.7509 948.132 80.6853L912.168 63.4679C912.168 63.4679 912.037 63.3368 912.102 63.2384Z" fill="#0BFAE9"/>
</g>
<g style="mix-blend-mode:multiply" opacity="0.34">
<path d="M912.135 63.2712C912.135 63.2712 912.168 63.2056 912.2 63.2056L989.582 32.5424C989.582 32.5424 989.713 32.5424 989.746 32.608C989.746 32.6736 989.746 32.7392 989.68 32.7719L912.299 63.4352C912.299 63.4352 912.168 63.4352 912.135 63.3696C912.135 63.3696 912.135 63.304 912.135 63.2712Z" fill="#0BFAE9"/>
</g>
<g style="mix-blend-mode:multiply" opacity="0.34">
<path d="M857.384 119.613C857.384 119.613 857.384 119.613 857.384 119.58L912.135 63.2057C912.135 63.2057 912.266 63.1401 912.332 63.2057C912.398 63.2713 912.398 63.3368 912.332 63.4024L857.581 119.777C857.581 119.777 857.449 119.842 857.384 119.777C857.351 119.744 857.318 119.678 857.384 119.613Z" fill="#0BFAE9"/>
</g>
<g style="mix-blend-mode:multiply" opacity="0.47">
<path d="M1145.56 -33.9001C1145.56 -33.9001 1145.66 -34.0312 1145.76 -34.0312C1145.89 -34.0312 1145.95 -33.9329 1145.95 -33.8017L1143.62 2.4039C1143.62 2.4039 1143.52 2.60067 1143.39 2.60067C1143.26 2.60067 1143.19 2.50228 1143.19 2.3711L1145.53 -33.8345V-33.9001H1145.56Z" fill="#0BFAE9"/>
</g>
<g style="mix-blend-mode:multiply" opacity="0.52">
<path d="M1118.92 -11.3044C1118.99 -11.4355 1119.15 -11.4683 1119.25 -11.4028L1143.52 2.17434C1143.52 2.17434 1143.65 2.4039 1143.62 2.50229C1143.56 2.63347 1143.39 2.66626 1143.29 2.60067L1119.02 -10.9764C1119.02 -10.9764 1118.86 -11.1732 1118.92 -11.3044Z" fill="#0BFAE9"/>
</g>
<g style="mix-blend-mode:multiply" opacity="0.53">
<path d="M309.234 22.4411C309.234 22.4411 309.287 22.3908 309.36 22.3826L390.943 16.7084C390.943 16.7084 391.128 16.7762 391.125 16.8799C391.133 16.9528 391.068 17.0338 390.953 17.0616L309.371 22.7357C309.371 22.7357 309.186 22.6679 309.189 22.5642C309.2 22.5334 309.222 22.4719 309.234 22.4411Z" fill="#0BFAE9"/>
</g>
<g style="mix-blend-mode:multiply" opacity="0.6">
<path d="M393.458 -68.4331C393.458 -68.4331 393.589 -68.5643 393.655 -68.5643C393.786 -68.5643 393.885 -68.4659 393.885 -68.3348L391.849 16.9648C391.849 16.9648 391.75 17.1944 391.619 17.1944C391.487 17.1944 391.389 17.096 391.389 16.9648L393.425 -68.3348C393.425 -68.3348 393.425 -68.4004 393.425 -68.4331H393.458Z" fill="#0BFAE9"/>
</g>
<g style="mix-blend-mode:multiply" opacity="0.54">
<path d="M556.924 -101.982C556.924 -101.982 556.99 -102.081 557.055 -102.081C557.154 -102.081 557.253 -102.015 557.253 -101.917L576.138 20.1132C576.138 20.1132 576.072 20.3099 575.974 20.3099C575.875 20.3099 575.777 20.2443 575.777 20.146L556.891 -101.884C556.891 -101.884 556.891 -101.95 556.891 -101.982H556.924Z" fill="#0BFAE9"/>
</g>
<g style="mix-blend-mode:multiply" opacity="0.55">
<path d="M1312.21 94.4264C1312.21 94.4264 1312.31 94.328 1312.41 94.328C1312.51 94.328 1312.57 94.4264 1312.57 94.5248L1304.1 165.821C1304.1 165.821 1304 165.985 1303.9 165.985C1303.8 165.985 1303.74 165.887 1303.74 165.788L1312.21 94.492C1312.21 94.492 1312.21 94.4592 1312.21 94.4264Z" fill="#0BFAE9"/>
</g>
<g style="mix-blend-mode:multiply" opacity="0.6">
<path d="M1232.47 49.6942C1232.47 49.6942 1232.6 49.563 1232.66 49.563C1232.76 49.563 1232.86 49.6614 1232.86 49.7926L1223.96 136.338C1223.96 136.338 1223.86 136.535 1223.73 136.535C1223.63 136.535 1223.53 136.437 1223.53 136.306L1232.43 49.7597C1232.43 49.7597 1232.43 49.727 1232.43 49.6942H1232.47Z" fill="#0BFAE9"/>
</g>
<g style="mix-blend-mode:multiply" opacity="0.83">
<path d="M1232.14 49.5301C1232.27 49.2677 1232.56 49.1365 1232.83 49.2021C1233.15 49.3005 1233.32 49.6285 1233.25 49.9236L1228.56 66.6818C1228.49 67.0098 1228.13 67.1738 1227.83 67.1082C1227.51 67.0098 1227.34 66.6818 1227.41 66.3867L1232.1 49.6285C1232.1 49.6285 1232.1 49.5629 1232.1 49.5301H1232.14Z" fill="#0BFAE9"/>
</g>
<g style="mix-blend-mode:multiply" opacity="0.55">
<path d="M1132.19 81.702C1132.19 81.702 1132.26 81.6364 1132.29 81.6036L1232.63 49.6285C1232.63 49.6285 1232.79 49.6285 1232.83 49.7269C1232.83 49.8253 1232.83 49.8909 1232.73 49.9237L1132.39 81.8987C1132.39 81.8987 1132.19 81.8987 1132.19 81.8003C1132.19 81.7675 1132.19 81.702 1132.19 81.6692V81.702Z" fill="#0BFAE9"/>
</g>
<g style="mix-blend-mode:multiply" opacity="0.56">
<path d="M1132.16 81.7019C1132.22 81.6035 1132.32 81.6035 1132.39 81.6363L1223.83 136.174C1223.83 136.174 1223.96 136.338 1223.89 136.404C1223.83 136.502 1223.73 136.502 1223.66 136.469L1132.22 81.9315C1132.22 81.9315 1132.13 81.8003 1132.16 81.7019Z" fill="#0BFAE9"/>
</g>
<g style="mix-blend-mode:multiply" opacity="0.55">
<path d="M1087.88 106.626C1087.88 106.626 1087.92 106.561 1087.95 106.561L1132.26 81.6364C1132.26 81.6364 1132.45 81.6364 1132.49 81.702C1132.52 81.7675 1132.49 81.8659 1132.42 81.9315L1088.11 106.856C1088.11 106.856 1087.92 106.856 1087.88 106.79C1087.88 106.757 1087.88 106.692 1087.88 106.626Z" fill="#0BFAE9"/>
</g>
<g style="mix-blend-mode:multiply" opacity="0.59">
<path d="M1132.16 81.7019C1132.16 81.7019 1132.22 81.6036 1132.29 81.6036L1227.93 66.3867C1227.93 66.3867 1228.13 66.4523 1228.16 66.5507C1228.16 66.6491 1228.1 66.7474 1228 66.7802L1132.36 81.9971C1132.36 81.9971 1132.16 81.9315 1132.13 81.8331C1132.13 81.8003 1132.13 81.7675 1132.13 81.7347L1132.16 81.7019Z" fill="#0BFAE9"/>
</g>
<g style="mix-blend-mode:multiply" opacity="0.55">
<path d="M1148.45 -63.0549C1148.45 -63.0549 1148.48 -63.1205 1148.52 -63.1532C1148.61 -63.2188 1148.71 -63.1533 1148.78 -63.0877L1195.42 8.99557C1195.42 8.99557 1195.42 9.19231 1195.35 9.2579C1195.25 9.32349 1195.15 9.25791 1195.09 9.19232L1148.45 -62.8909C1148.45 -62.8909 1148.42 -63.0221 1148.45 -63.0877V-63.0549Z" fill="#0BFAE9"/>
</g>
<g style="mix-blend-mode:multiply" opacity="0.53">
<path d="M618.868 -124.414C618.868 -124.414 618.967 -124.512 619.033 -124.512C619.131 -124.512 619.23 -124.447 619.23 -124.348L624.583 6.07689C624.583 6.07689 624.518 6.27367 624.419 6.27367C624.321 6.27367 624.222 6.20807 624.222 6.10968L618.868 -124.316V-124.381V-124.414Z" fill="#0BFAE9"/>
</g>
<g style="mix-blend-mode:multiply" opacity="0.56">
<path d="M443.052 38.8168C443.052 38.8168 443.052 38.8168 443.052 38.7948L492.785 -20.9708C492.785 -20.9708 492.915 -21.0367 492.959 -20.9708C493.002 -20.9269 493.024 -20.839 492.959 -20.795L443.226 38.9706C443.226 38.9706 443.096 39.0365 443.052 38.9706C443.009 38.9266 442.987 38.8607 443.009 38.8168H443.052Z" fill="#0BFAE9"/>
</g>
<g style="mix-blend-mode:multiply" opacity="0.61">
<path d="M493.108 -20.5854C493.173 -20.7166 493.305 -20.7493 493.436 -20.6838L576.072 19.9163C576.072 19.9163 576.236 20.1131 576.171 20.2443C576.105 20.3755 575.974 20.4083 575.842 20.3427L493.206 -20.2574C493.206 -20.2574 493.042 -20.4542 493.108 -20.5526V-20.5854Z" fill="#0BFAE9"/>
</g>
<g style="mix-blend-mode:multiply" opacity="0.59">
<path d="M1187.44 172.937C1187.44 172.937 1187.6 172.773 1187.7 172.806C1187.83 172.806 1187.9 172.97 1187.86 173.069L1174.56 226.557C1174.56 226.557 1174.4 226.754 1174.3 226.721C1174.17 226.721 1174.1 226.557 1174.13 226.459L1187.44 172.97C1187.44 172.97 1187.44 172.97 1187.44 172.937Z" fill="#0BFAE9"/>
</g>
<g style="mix-blend-mode:multiply" opacity="0.5">
<path d="M1187.5 172.97C1187.5 172.97 1187.57 172.872 1187.63 172.872L1303.9 165.657C1303.9 165.657 1304.07 165.722 1304.07 165.788C1304.07 165.854 1304 165.952 1303.93 165.952L1187.67 173.167C1187.67 173.167 1187.5 173.101 1187.5 173.036C1187.5 173.036 1187.5 173.003 1187.5 172.97Z" fill="#0BFAE9"/>
</g>
<g style="mix-blend-mode:multiply" opacity="0.65">
<path d="M1227.74 66.4524C1227.74 66.4524 1227.87 66.2884 1227.97 66.3212C1228.1 66.3212 1228.2 66.4524 1228.2 66.5836L1223.99 136.371C1223.99 136.371 1223.86 136.601 1223.73 136.601C1223.6 136.601 1223.5 136.47 1223.5 136.338L1227.7 66.5508C1227.7 66.5508 1227.7 66.4852 1227.7 66.4524H1227.74Z" fill="#0BFAE9"/>
</g>
<g style="mix-blend-mode:multiply" opacity="0.64">
<path d="M930.298 121.22C930.298 121.22 930.364 121.121 930.429 121.089C930.561 121.056 930.692 121.089 930.758 121.22L956.179 187.236C956.179 187.236 956.179 187.498 956.048 187.564C955.916 187.597 955.785 187.564 955.719 187.433L930.298 121.417C930.298 121.417 930.298 121.285 930.298 121.22Z" fill="#0BFAE9"/>
</g>
<g style="mix-blend-mode:multiply" opacity="0.59">
<path d="M575.744 20.0475C575.744 20.0475 575.809 19.9491 575.875 19.9163L624.32 5.84729C624.32 5.84729 624.55 5.88009 624.583 6.01127C624.616 6.14245 624.583 6.24085 624.419 6.27364L575.974 20.3427C575.974 20.3427 575.744 20.3427 575.711 20.1787C575.711 20.1131 575.711 20.0803 575.711 20.0147L575.744 20.0475Z" fill="#0BFAE9"/>
</g>
<g style="mix-blend-mode:multiply" opacity="0.53">
<path d="M1223.63 136.273C1223.63 136.273 1223.7 136.174 1223.76 136.174C1223.86 136.174 1223.93 136.24 1223.93 136.338L1223.76 224.065C1223.76 224.065 1223.7 224.229 1223.6 224.229C1223.5 224.229 1223.43 224.163 1223.43 224.065L1223.6 136.338C1223.6 136.338 1223.6 136.305 1223.6 136.273H1223.63Z" fill="#0BFAE9"/>
</g>
<g style="mix-blend-mode:multiply" opacity="0.53">
<path d="M1368.37 13.1933L1434.56 -84.306C1434.56 -84.306 1434.72 -84.4044 1434.82 -84.3388C1434.92 -84.2732 1434.92 -84.1748 1434.85 -84.0764L1368.67 13.4229C1368.67 13.4229 1368.51 13.5212 1368.41 13.4557C1368.34 13.3901 1368.31 13.3245 1368.34 13.2261L1368.37 13.1933Z" fill="#0BFAE9"/>
</g>
<g style="mix-blend-mode:multiply" opacity="0.53">
<path d="M1132.36 3.4861C1132.36 3.4861 1132.45 3.3877 1132.52 3.3877L1195.25 8.93004C1195.25 8.93004 1195.42 9.02842 1195.42 9.12681C1195.42 9.22519 1195.32 9.29079 1195.22 9.29079L1132.49 3.74844C1132.49 3.74844 1132.32 3.65006 1132.32 3.55168C1132.32 3.55168 1132.32 3.5189 1132.32 3.4861H1132.36Z" fill="#0BFAE9"/>
</g>
<g style="mix-blend-mode:multiply" opacity="0.64">
<path d="M1194.99 8.99562C1195.06 8.86444 1195.22 8.79883 1195.35 8.89722L1258.28 43.627C1258.28 43.627 1258.45 43.8566 1258.41 43.9878C1258.35 44.119 1258.18 44.1846 1258.05 44.0862L1195.12 9.35635C1195.12 9.35635 1194.96 9.1268 1194.99 8.99562Z" fill="#0BFAE9"/>
</g>
<g style="mix-blend-mode:multiply" opacity="0.55">
<path d="M790.315 162.935C790.315 162.935 790.348 162.869 790.381 162.837L875.382 118.301C875.382 118.301 875.579 118.301 875.612 118.367C875.645 118.465 875.612 118.563 875.546 118.596L790.545 163.132C790.545 163.132 790.348 163.132 790.315 163.066C790.315 163.001 790.315 162.968 790.315 162.902V162.935Z" fill="#0BFAE9"/>
</g>
<g style="mix-blend-mode:multiply" opacity="0.56">
<path d="M1258.02 43.7582C1258.02 43.7582 1258.15 43.627 1258.28 43.6598L1321.41 61.4674C1321.41 61.4674 1321.57 61.5986 1321.54 61.7298C1321.54 61.8282 1321.41 61.8938 1321.28 61.861L1258.15 44.0533C1258.15 44.0533 1257.99 43.9221 1258.02 43.791V43.7582Z" fill="#0BFAE9"/>
</g>
<g style="mix-blend-mode:multiply" opacity="0.69">
<path d="M1321.01 61.5002C1321.01 61.5002 1321.05 61.4346 1321.08 61.4018L1368.28 12.9965C1368.28 12.9965 1368.64 12.8654 1368.77 12.9965C1368.9 13.1277 1368.9 13.3573 1368.77 13.4885L1321.57 61.8938C1321.57 61.8938 1321.21 62.0249 1321.08 61.8938C1320.98 61.7954 1320.95 61.6314 1321.01 61.5002Z" fill="#0BFAE9"/>
</g>
<g style="mix-blend-mode:multiply" opacity="0.54">
<path d="M1258.02 43.7582C1258.02 43.7582 1258.08 43.6598 1258.15 43.6598L1368.47 13.0621C1368.47 13.0621 1368.67 13.0621 1368.7 13.1933C1368.7 13.2917 1368.7 13.3901 1368.57 13.4229L1258.25 44.0205C1258.25 44.0205 1258.05 44.0205 1258.02 43.8894C1258.02 43.8566 1258.02 43.791 1258.02 43.7582Z" fill="#0BFAE9"/>
</g>
<g style="mix-blend-mode:multiply" opacity="0.63">
<path d="M1257.95 43.7254C1258.02 43.5943 1258.18 43.5615 1258.31 43.6599L1318.12 81.8004C1318.12 81.8004 1318.29 82.0627 1318.19 82.1611C1318.12 82.2923 1317.96 82.3251 1317.83 82.2267L1258.02 44.0862C1258.02 44.0862 1257.85 43.8894 1257.92 43.7583L1257.95 43.7254Z" fill="#0BFAE9"/>
</g>
<g style="mix-blend-mode:multiply" opacity="0.53">
<path d="M1132.36 3.48611C1132.36 3.48611 1132.49 3.35491 1132.59 3.38771C1132.68 3.38771 1132.75 3.51889 1132.72 3.61727L1111.17 79.0456C1111.17 79.0456 1111.04 79.2095 1110.94 79.1768C1110.84 79.1768 1110.78 79.0456 1110.81 78.9472L1132.36 3.51889V3.48611Z" fill="#0BFAE9"/>
</g>
<g style="mix-blend-mode:multiply" opacity="0.58">
<path d="M1086.34 100.264L1132.32 3.45322C1132.32 3.45322 1132.52 3.28925 1132.62 3.35484C1132.72 3.42043 1132.78 3.5516 1132.72 3.64998L1086.74 100.461C1086.74 100.461 1086.54 100.625 1086.44 100.559C1086.34 100.493 1086.28 100.362 1086.34 100.264Z" fill="#0BFAE9"/>
</g>
<g style="mix-blend-mode:multiply" opacity="0.66">
<path d="M1082.96 -34.1953C1082.96 -34.1953 1082.96 -34.2281 1082.99 -34.2609C1083.09 -34.392 1083.29 -34.4249 1083.45 -34.3265L1132.75 3.2893C1132.75 3.2893 1132.91 3.61725 1132.82 3.74843C1132.72 3.87961 1132.52 3.91242 1132.36 3.81403L1083.06 -33.8017C1083.06 -33.8017 1082.89 -34.0641 1082.96 -34.1953Z" fill="#0BFAE9"/>
</g>
<g style="mix-blend-mode:multiply" opacity="0.55">
<path d="M1083.06 -34.1625C1083.06 -34.1625 1083.12 -34.2609 1083.19 -34.2937C1083.29 -34.2937 1083.42 -34.2609 1083.45 -34.1297L1111.17 78.9471C1111.17 78.9471 1111.14 79.1767 1111.01 79.2095C1110.91 79.2095 1110.78 79.1767 1110.74 79.0455L1083.02 -34.0313C1083.02 -34.0313 1083.02 -34.1297 1083.02 -34.1625H1083.06Z" fill="#0BFAE9"/>
</g>
<g style="mix-blend-mode:multiply" opacity="0.54">
<path d="M1083.06 -34.1625C1083.06 -34.1625 1083.16 -34.2937 1083.25 -34.2937C1083.35 -34.2937 1083.45 -34.1953 1083.45 -34.0969L1086.77 100.329C1086.77 100.329 1086.67 100.526 1086.57 100.526C1086.47 100.526 1086.37 100.428 1086.37 100.329L1083.06 -34.0969C1083.06 -34.0969 1083.06 -34.1625 1083.06 -34.1953V-34.1625Z" fill="#0BFAE9"/>
</g>
<g style="mix-blend-mode:multiply" opacity="0.54">
<path d="M1223.47 223.999C1223.47 223.999 1223.53 223.933 1223.56 223.901C1223.66 223.901 1223.76 223.901 1223.79 223.999L1237.49 259.975C1237.49 259.975 1237.49 260.172 1237.39 260.205C1237.29 260.205 1237.19 260.205 1237.16 260.106L1223.47 224.13C1223.47 224.13 1223.47 224.032 1223.47 223.999Z" fill="#0BFAE9"/>
</g>
<g style="mix-blend-mode:multiply" opacity="0.67">
<path d="M1086.24 100.231C1086.24 100.231 1086.28 100.165 1086.34 100.133L1110.78 78.7832C1110.78 78.7832 1111.14 78.6848 1111.24 78.7832C1111.37 78.9144 1111.34 79.144 1111.24 79.2424L1086.8 100.592C1086.8 100.592 1086.44 100.69 1086.34 100.592C1086.24 100.493 1086.24 100.362 1086.28 100.231H1086.24Z" fill="#0BFAE9"/>
</g>
<g style="mix-blend-mode:multiply" opacity="0.56">
<path d="M1277.86 313.103C1277.86 313.103 1277.89 313.037 1277.92 313.037L1372.22 245.906C1372.22 245.906 1372.41 245.873 1372.48 245.939C1372.55 246.037 1372.51 246.136 1372.45 246.201L1278.15 313.333C1278.15 313.333 1277.95 313.365 1277.89 313.3C1277.86 313.234 1277.86 313.169 1277.89 313.103H1277.86Z" fill="#0BFAE9"/>
</g>
<g style="mix-blend-mode:multiply" opacity="0.55">
<path d="M1259.27 219.309C1259.27 219.309 1259.4 219.178 1259.5 219.211L1372.38 245.873C1372.38 245.873 1372.55 246.005 1372.51 246.103C1372.51 246.201 1372.38 246.267 1372.28 246.234L1259.4 219.572C1259.4 219.572 1259.23 219.441 1259.27 219.342C1259.27 219.342 1259.27 219.342 1259.27 219.309Z" fill="#0BFAE9"/>
</g>
<g style="mix-blend-mode:multiply" opacity="0.54">
<path d="M1237.16 259.975C1237.16 259.975 1237.23 259.877 1237.29 259.877L1372.28 245.873C1372.28 245.873 1372.48 245.939 1372.48 246.037C1372.48 246.136 1372.41 246.234 1372.32 246.234L1237.33 260.237C1237.33 260.237 1237.13 260.172 1237.13 260.073C1237.13 260.073 1237.13 260.008 1237.13 259.975H1237.16Z" fill="#0BFAE9"/>
</g>
<g style="mix-blend-mode:multiply" opacity="0.67">
<path d="M1237.06 259.942C1237.06 259.942 1237.13 259.844 1237.16 259.811C1237.29 259.713 1237.49 259.746 1237.59 259.877L1278.28 313.004C1278.28 313.004 1278.35 313.332 1278.22 313.431C1278.09 313.529 1277.89 313.496 1277.79 313.365L1237.1 260.205C1237.1 260.205 1237.03 260.008 1237.06 259.909V259.942Z" fill="#0BFAE9"/>
</g>
<g style="mix-blend-mode:multiply" opacity="0.58">
<path d="M1217.19 240.921C1217.19 240.921 1217.19 240.889 1217.23 240.856C1217.29 240.757 1217.42 240.757 1217.52 240.856L1237.49 259.91C1237.49 259.91 1237.59 260.139 1237.49 260.205C1237.42 260.303 1237.29 260.303 1237.19 260.205L1217.23 241.151C1217.23 241.151 1217.16 240.987 1217.19 240.921Z" fill="#0BFAE9"/>
</g>
<g style="mix-blend-mode:multiply" opacity="0.68">
<path d="M1237.03 259.91L1259.13 219.244C1259.13 219.244 1259.4 219.047 1259.56 219.113C1259.73 219.211 1259.76 219.375 1259.69 219.539L1237.59 260.205C1237.59 260.205 1237.33 260.402 1237.16 260.336C1237.03 260.27 1236.96 260.074 1237.03 259.942V259.91Z" fill="#0BFAE9"/>
</g>
<g style="mix-blend-mode:multiply" opacity="0.6">
<path d="M1221.23 243.938C1221.23 243.938 1221.27 243.873 1221.33 243.84L1259.33 219.178C1259.33 219.178 1259.59 219.145 1259.66 219.244C1259.73 219.342 1259.69 219.506 1259.59 219.572L1221.59 244.233C1221.59 244.233 1221.33 244.266 1221.27 244.168C1221.23 244.102 1221.2 244.004 1221.27 243.938H1221.23Z" fill="#0BFAE9"/>
</g>
<g style="mix-blend-mode:multiply" opacity="0.54">
<path d="M1259.27 219.309C1259.27 219.309 1259.33 219.211 1259.4 219.211C1259.5 219.211 1259.59 219.244 1259.59 219.342L1278.18 313.136C1278.18 313.136 1278.15 313.333 1278.05 313.333C1277.95 313.333 1277.86 313.3 1277.86 313.201L1259.27 219.408C1259.27 219.408 1259.27 219.342 1259.27 219.309Z" fill="#0BFAE9"/>
</g>
<g style="mix-blend-mode:multiply" opacity="0.68">
<path d="M1217.09 240.856C1217.09 240.856 1217.16 240.724 1217.23 240.692L1259.3 219.08C1259.3 219.08 1259.66 219.08 1259.73 219.211C1259.79 219.375 1259.73 219.572 1259.59 219.637L1217.52 241.249C1217.52 241.249 1217.16 241.249 1217.09 241.118C1217.06 241.02 1217.06 240.921 1217.09 240.856Z" fill="#0BFAE9"/>
</g>
<g style="mix-blend-mode:multiply" opacity="0.8">
<path d="M1216.86 240.757C1216.86 240.757 1216.9 240.692 1216.93 240.659C1217.13 240.397 1217.49 240.364 1217.72 240.561L1221.79 243.61C1222.05 243.807 1222.09 244.168 1221.89 244.398C1221.69 244.66 1221.33 244.693 1221.1 244.496L1217.03 241.446C1216.8 241.282 1216.73 240.987 1216.86 240.757Z" fill="#0BFAE9"/>
</g>
<g style="mix-blend-mode:multiply" opacity="0.61">
<path d="M1169.96 204.585C1169.96 204.585 1169.96 204.552 1169.96 204.519C1170.06 204.421 1170.19 204.388 1170.32 204.486L1217.49 240.79C1217.49 240.79 1217.62 241.02 1217.52 241.151C1217.42 241.249 1217.29 241.282 1217.16 241.184L1170 204.88C1170 204.88 1169.86 204.683 1169.93 204.585H1169.96Z" fill="#0BFAE9"/>
</g>
<g style="mix-blend-mode:multiply" opacity="0.67">
<path d="M1169.93 204.552C1169.93 204.552 1169.93 204.519 1169.96 204.486C1170.06 204.355 1170.26 204.322 1170.42 204.42L1221.66 243.774C1221.66 243.774 1221.82 244.07 1221.73 244.234C1221.63 244.365 1221.43 244.397 1221.27 244.299L1170.03 204.945C1170.03 204.945 1169.86 204.683 1169.93 204.552Z" fill="#0BFAE9"/>
</g>
<g style="mix-blend-mode:multiply" opacity="0.56">
<path d="M1145.59 81.9315C1145.59 81.9315 1145.62 81.866 1145.66 81.8332L1223.53 27.328C1223.53 27.328 1223.76 27.2952 1223.83 27.3936C1223.89 27.492 1223.86 27.6232 1223.76 27.6888L1145.89 82.1939C1145.89 82.1939 1145.66 82.2267 1145.59 82.1283C1145.56 82.0627 1145.53 81.9643 1145.59 81.8987V81.9315Z" fill="#0BFAE9"/>
</g>
<g style="mix-blend-mode:multiply" opacity="0.59">
<path d="M1110.74 78.8816C1110.74 78.8816 1110.81 78.7833 1110.88 78.7505L1223.56 27.2625C1223.56 27.2625 1223.83 27.2624 1223.89 27.3936C1223.96 27.5248 1223.89 27.656 1223.76 27.7216L1111.07 79.2096C1111.07 79.2096 1110.81 79.2096 1110.74 79.0784C1110.74 79.0128 1110.74 78.9472 1110.74 78.8816Z" fill="#0BFAE9"/>
</g>
<g style="mix-blend-mode:multiply" opacity="0.58">
<path d="M1042.36 96.6893C1042.36 96.6893 1042.46 96.5581 1042.53 96.5581L1110.94 78.7505C1110.94 78.7505 1111.2 78.7833 1111.24 78.9145C1111.24 79.0457 1111.2 79.1768 1111.07 79.2096L1042.66 97.0173C1042.66 97.0173 1042.4 96.9845 1042.36 96.8533C1042.36 96.7877 1042.36 96.7549 1042.36 96.6893Z" fill="#0BFAE9"/>
</g>
<g style="mix-blend-mode:multiply" opacity="0.63">
<path d="M1110.71 78.8815C1110.71 78.8815 1110.88 78.6848 1111.01 78.7176L1145.82 81.7347C1145.82 81.7347 1146.08 81.8987 1146.08 82.0626C1146.08 82.2266 1145.92 82.325 1145.76 82.325L1110.94 79.3079C1110.94 79.3079 1110.68 79.1439 1110.68 78.9799C1110.68 78.9471 1110.68 78.9143 1110.68 78.8815H1110.71Z" fill="#0BFAE9"/>
</g>
<g style="mix-blend-mode:multiply" opacity="0.53">
<path d="M952.632 22.2121C952.632 22.2121 952.632 22.2121 952.632 22.1793C952.698 22.0809 952.829 22.0809 952.928 22.1793L1042.69 96.6893C1042.69 96.6893 1042.79 96.8861 1042.69 96.9845C1042.63 97.0828 1042.49 97.0828 1042.4 96.9845L952.632 22.4744C952.632 22.4744 952.533 22.3104 952.566 22.2448L952.632 22.2121Z" fill="#0BFAE9"/>
</g>
<g style="mix-blend-mode:multiply" opacity="0.64">
<path d="M1042.3 96.6565C1042.3 96.6565 1042.43 96.4925 1042.53 96.4597L1145.76 81.6692C1145.92 81.6692 1146.08 81.7676 1146.12 81.9316C1146.12 82.0955 1146.02 82.2595 1145.85 82.2923L1042.63 97.0828C1042.46 97.0828 1042.3 96.9844 1042.26 96.8204C1042.26 96.7549 1042.26 96.6893 1042.26 96.6565H1042.3Z" fill="#0BFAE9"/>
</g>
<g style="mix-blend-mode:multiply" opacity="0.51">
<path d="M607.274 23.2941C606.749 24.4419 605.435 24.9339 604.285 24.442C603.136 23.9172 602.643 22.6054 603.169 21.4576C603.694 20.3098 605.008 19.8179 606.158 20.3426C607.307 20.8673 607.8 22.1791 607.274 23.3269V23.2941Z" fill="#0BFAE9"/>
</g>
<g style="mix-blend-mode:multiply" opacity="0.53">
<path d="M623.237 31.4602C622.711 32.6408 621.299 33.1983 620.116 32.6408C618.934 32.1161 618.376 30.7059 618.934 29.5253C619.46 28.3447 620.872 27.7872 622.054 28.3447C623.237 28.8694 623.795 30.2796 623.237 31.4602Z" fill="#0BFAE9"/>
</g>
<g style="mix-blend-mode:multiply" opacity="0.62">
<path d="M909.048 -1.00681C908.489 0.239395 907.011 0.796899 905.763 0.239386C904.515 -0.318128 903.957 -1.7939 904.515 -3.04011C905.073 -4.28631 906.551 -4.84382 907.799 -4.2863C909.048 -3.72879 909.606 -2.25302 909.048 -1.00681Z" fill="#0BFAE9"/>
</g>
<g style="mix-blend-mode:multiply" opacity="0.58">
<path d="M950.497 81.5707C949.939 82.8169 948.461 83.3744 947.213 82.8169C945.964 82.2594 945.406 80.7836 945.965 79.5374C946.523 78.2912 948.001 77.7337 949.249 78.2912C950.497 78.8487 951.055 80.3245 950.497 81.5707Z" fill="#0BFAE9"/>
</g>
<g style="mix-blend-mode:multiply" opacity="0.64">
<path d="M992.012 33.6903C991.421 35.0021 989.877 35.5923 988.596 35.002C987.283 34.4117 986.691 32.8704 987.283 31.5914C987.874 30.3124 989.418 29.6893 990.699 30.2796C991.979 30.8699 992.603 32.4113 992.012 33.6903Z" fill="#0BFAE9"/>
</g>
<g style="mix-blend-mode:multiply" opacity="0.6">
<path d="M914.533 64.3207C913.974 65.5669 912.496 66.1244 911.248 65.5669C910 65.0094 909.442 63.5336 910 62.2874C910.558 61.0412 912.036 60.4837 913.284 61.0412C914.533 61.5987 915.091 63.0745 914.533 64.3207Z" fill="#0BFAE9"/>
</g>
<g style="mix-blend-mode:multiply" opacity="0.6">
<path d="M859.781 120.695C859.223 121.941 857.745 122.499 856.497 121.941C855.249 121.384 854.69 119.908 855.249 118.662C855.807 117.416 857.285 116.858 858.533 117.416C859.781 117.973 860.34 119.449 859.781 120.695Z" fill="#0BFAE9"/>
</g>
<g style="mix-blend-mode:multiply" opacity="0.76">
<path d="M1145.99 3.5516C1145.36 4.96178 1143.69 5.61768 1142.27 4.96178C1140.86 4.33868 1140.21 2.66615 1140.86 1.25597C1141.52 -0.154216 1143.16 -0.810115 1144.57 -0.154217C1145.99 0.468887 1146.64 2.14142 1145.99 3.5516Z" fill="#0BFAE9"/>
</g>
<g style="mix-blend-mode:multiply" opacity="0.91">
<path d="M909.507 -0.0885501C908.818 1.45281 907.011 2.14151 905.5 1.45282C903.957 0.764122 903.267 -1.0396 903.957 -2.54817C904.647 -4.05673 906.453 -4.77823 907.964 -4.08953C909.507 -3.40084 910.197 -1.59712 909.507 -0.0885501Z" fill="#0BFAE9"/>
</g>
<g style="mix-blend-mode:multiply">
<path d="M311.76 24.903C310.464 26.2445 308.323 26.2637 306.979 24.9681C305.635 23.6725 305.613 21.5342 306.909 20.1927C308.205 18.8512 310.346 18.8319 311.69 20.1276C313.034 21.4232 313.056 23.5615 311.76 24.903Z" fill="#0BFAE9"/>
</g>
<g style="mix-blend-mode:multiply">
<path d="M394.805 18.375C394.016 20.1459 391.947 20.933 390.174 20.1132C388.4 19.2933 387.612 17.26 388.433 15.4891C389.221 13.7182 391.29 12.9311 393.064 13.751C394.837 14.5708 395.626 16.6041 394.805 18.375Z" fill="#0BFAE9"/>
</g>
<g style="mix-blend-mode:multiply" opacity="0.7">
<path d="M1172.29 296.771C1171.67 298.116 1170.09 298.739 1168.71 298.116C1167.37 297.493 1166.74 295.918 1167.37 294.541C1167.99 293.196 1169.57 292.573 1170.95 293.196C1172.29 293.82 1172.92 295.394 1172.29 296.771Z" fill="#0BFAE9"/>
</g>
<g style="mix-blend-mode:multiply" opacity="0.94">
<path d="M1315.23 95.8038C1314.51 97.3779 1312.64 98.0994 1311.06 97.378C1309.48 96.6565 1308.76 94.7871 1309.48 93.213C1310.21 91.6388 1312.08 90.9174 1313.66 91.6389C1315.23 92.3603 1315.96 94.2296 1315.23 95.8038Z" fill="#0BFAE9"/>
</g>
<g style="mix-blend-mode:multiply">
<path d="M1235.65 51.1371C1234.93 52.7769 1232.99 53.5312 1231.32 52.7769C1229.67 52.0554 1228.92 50.1205 1229.67 48.448C1230.43 46.8082 1232.33 46.0539 1234.01 46.8082C1235.65 47.5297 1236.41 49.4646 1235.65 51.1371Z" fill="#0BFAE9"/>
</g>
<g style="mix-blend-mode:multiply">
<path d="M1135.31 83.1121C1134.59 84.7518 1132.65 85.5061 1130.98 84.7518C1129.33 84.0304 1128.58 82.0955 1129.33 80.4229C1130.09 78.7504 1131.99 78.0289 1133.67 78.7832C1135.31 79.5375 1136.07 81.4396 1135.31 83.1121Z" fill="#0BFAE9"/>
</g>
<g style="mix-blend-mode:multiply" opacity="0.93">
<path d="M1190.52 174.315C1189.8 175.889 1187.93 176.61 1186.35 175.889C1184.78 175.167 1184.05 173.298 1184.78 171.724C1185.5 170.15 1187.37 169.428 1188.95 170.15C1190.52 170.871 1191.25 172.741 1190.52 174.315Z" fill="#0BFAE9"/>
</g>
<g style="mix-blend-mode:multiply">
<path d="M1230.95 67.8953C1230.2 69.5351 1228.29 70.2893 1226.62 69.5351C1224.98 68.7808 1224.22 66.8787 1224.98 65.2061C1225.73 63.5664 1227.64 62.8121 1229.31 63.5664C1230.95 64.3207 1231.71 66.2228 1230.95 67.8953Z" fill="#0BFAE9"/>
</g>
<g style="mix-blend-mode:multiply">
<path d="M1091.1 108.069C1090.35 109.774 1088.34 110.529 1086.64 109.774C1084.93 109.02 1084.17 107.02 1084.93 105.314C1085.68 103.609 1087.69 102.855 1089.4 103.609C1091.1 104.363 1091.86 106.364 1091.1 108.069Z" fill="#0BFAE9"/>
</g>
<g style="mix-blend-mode:multiply">
<path d="M933.615 122.696C932.86 124.401 930.856 125.155 929.148 124.401C927.44 123.647 926.685 121.646 927.44 119.941C928.196 118.235 930.199 117.481 931.907 118.235C933.615 118.99 934.371 120.99 933.615 122.696Z" fill="#0BFAE9"/>
</g>
<g style="mix-blend-mode:multiply">
<path d="M579.357 21.6545C578.503 23.5238 576.302 24.3764 574.43 23.5238C572.558 22.6711 571.704 20.4738 572.558 18.6045C573.412 16.7352 575.612 15.8826 577.485 16.7352C579.357 17.5879 580.211 19.7852 579.357 21.6545Z" fill="#0BFAE9"/>
</g>
<g style="mix-blend-mode:multiply">
<path d="M627.9 7.65102C627.046 9.58592 624.78 10.4386 622.842 9.58591C620.905 8.73325 620.051 6.47042 620.905 4.53552C621.759 2.60062 624.025 1.74794 625.963 2.60061C627.9 3.45327 628.754 5.71613 627.9 7.65102Z" fill="#0BFAE9"/>
</g>
<g style="mix-blend-mode:multiply" opacity="0.98">
<path d="M1306.79 167.1C1306.07 168.674 1304.2 169.396 1302.62 168.674C1301.04 167.953 1300.32 166.083 1301.04 164.509C1301.77 162.935 1303.64 162.214 1305.21 162.935C1306.79 163.656 1307.51 165.526 1306.79 167.1Z" fill="#0BFAE9"/>
</g>
<g style="mix-blend-mode:multiply" opacity="0.97">
<path d="M1177.22 227.803C1176.5 229.377 1174.63 230.099 1173.05 229.377C1171.47 228.656 1170.75 226.787 1171.47 225.213C1172.2 223.638 1174.07 222.917 1175.64 223.638C1177.22 224.36 1177.94 226.229 1177.22 227.803Z" fill="#0BFAE9"/>
</g>
<g style="mix-blend-mode:multiply">
<path d="M1226.75 137.65C1226.03 139.29 1224.09 140.044 1222.41 139.29C1220.77 138.568 1220.02 136.633 1220.77 134.961C1221.5 133.321 1223.43 132.567 1225.11 133.321C1226.75 134.043 1227.51 135.978 1226.75 137.65Z" fill="#0BFAE9"/>
</g>
<g style="mix-blend-mode:multiply">
<path d="M959.004 188.712C958.248 190.417 956.245 191.171 954.537 190.417C952.829 189.663 952.074 187.662 952.829 185.957C953.584 184.252 955.588 183.497 957.296 184.252C959.004 185.006 959.759 187.006 959.004 188.712Z" fill="#0BFAE9"/>
</g>
<g style="mix-blend-mode:multiply">
<path d="M1198.64 10.6026C1197.78 12.4719 1195.58 13.3246 1193.71 12.4719C1191.84 11.6192 1190.98 9.42197 1191.84 7.55266C1192.69 5.68335 1194.89 4.83068 1196.76 5.68335C1198.64 6.53602 1199.49 8.73328 1198.64 10.6026Z" fill="#0BFAE9"/>
</g>
<g style="mix-blend-mode:multiply">
<path d="M793.665 164.444C792.877 166.214 790.808 167.002 789.034 166.182C787.261 165.362 786.473 163.328 787.294 161.558C788.115 159.787 790.151 159 791.925 159.819C793.698 160.607 794.487 162.673 793.665 164.444Z" fill="#0BFAE9"/>
</g>
<g style="mix-blend-mode:multiply">
<path d="M1324.72 63.1728C1323.87 65.0421 1321.67 65.8948 1319.8 65.0421C1317.93 64.1894 1317.07 61.9922 1317.93 60.1228C1318.78 58.2535 1320.98 57.4009 1322.85 58.2535C1324.72 59.1062 1325.58 61.3035 1324.72 63.1728Z" fill="#0BFAE9"/>
</g>
<g style="mix-blend-mode:multiply">
<path d="M1372.02 14.8332C1371.17 16.7681 1368.9 17.6207 1366.96 16.768C1365.02 15.9154 1364.17 13.6525 1365.02 11.7176C1365.88 9.78273 1368.14 8.93007 1370.08 9.78274C1372.02 10.6354 1372.87 12.8983 1372.02 14.8332Z" fill="#0BFAE9"/>
</g>
<g style="mix-blend-mode:multiply">
<path d="M1261.7 45.398C1260.84 47.3329 1258.58 48.1855 1256.64 47.3329C1254.7 46.4802 1253.85 44.2173 1254.7 42.2824C1255.55 40.3475 1257.82 39.4949 1259.76 40.3476C1261.7 41.2002 1262.55 43.4631 1261.7 45.398Z" fill="#0BFAE9"/>
</g>
<g style="mix-blend-mode:multiply">
<path d="M1136.13 5.15856C1135.25 7.15905 1132.91 8.04451 1130.91 7.12625C1128.91 6.24079 1128.02 3.91236 1128.94 1.91187C1129.83 -0.0886154 1132.16 -0.974073 1134.16 -0.0558154C1136.17 0.829647 1137.05 3.15807 1136.13 5.15856Z" fill="#0BFAE9"/>
</g>
<g style="mix-blend-mode:multiply">
<path d="M878.864 120.006C878.01 121.876 875.809 122.728 873.937 121.876C872.065 121.023 871.211 118.826 872.065 116.956C872.919 115.087 875.119 114.234 876.992 115.087C878.864 115.94 879.718 118.137 878.864 120.006Z" fill="#0BFAE9"/>
</g>
<g style="mix-blend-mode:multiply">
<path d="M1226.72 225.442C1225.96 227.147 1223.96 227.902 1222.25 227.147C1220.54 226.393 1219.79 224.393 1220.54 222.687C1221.3 220.982 1223.3 220.228 1225.01 220.982C1226.72 221.736 1227.47 223.737 1226.72 225.442Z" fill="#0BFAE9"/>
</g>
<g style="mix-blend-mode:multiply">
<path d="M1090.25 102.002C1089.33 104.035 1086.93 104.954 1084.9 104.035C1082.86 103.117 1081.94 100.723 1082.86 98.6898C1083.78 96.6565 1086.18 95.7382 1088.21 96.6565C1090.25 97.5747 1091.17 99.9687 1090.25 102.002Z" fill="#0BFAE9"/>
</g>
<g style="mix-blend-mode:multiply">
<path d="M1375.7 247.579C1374.84 249.448 1372.64 250.3 1370.77 249.448C1368.9 248.595 1368.05 246.398 1368.9 244.529C1369.75 242.659 1371.95 241.807 1373.83 242.659C1375.7 243.512 1376.55 245.709 1375.7 247.579Z" fill="#0BFAE9"/>
</g>
<g style="mix-blend-mode:multiply">
<path d="M1240.61 261.517C1239.79 263.32 1237.65 264.14 1235.85 263.32C1234.04 262.5 1233.22 260.369 1234.04 258.565C1234.86 256.761 1237 255.941 1238.8 256.761C1240.61 257.581 1241.43 259.713 1240.61 261.517Z" fill="#0BFAE9"/>
</g>
<g style="mix-blend-mode:multiply">
<path d="M1262.85 220.916C1261.99 222.786 1259.79 223.638 1257.92 222.786C1256.05 221.933 1255.19 219.736 1256.05 217.867C1256.9 215.997 1259.1 215.145 1260.97 215.997C1262.85 216.85 1263.7 219.047 1262.85 220.916Z" fill="#0BFAE9"/>
</g>
<g style="mix-blend-mode:multiply">
<path d="M1220.77 242.528C1219.92 244.398 1217.72 245.25 1215.85 244.398C1213.97 243.545 1213.12 241.348 1213.97 239.478C1214.83 237.609 1217.03 236.756 1218.9 237.609C1220.77 238.462 1221.63 240.659 1220.77 242.528Z" fill="#0BFAE9"/>
</g>
<g style="mix-blend-mode:multiply">
<path d="M1321.7 83.6368C1320.78 85.6701 1318.39 86.5883 1316.35 85.6701C1314.31 84.7518 1313.39 82.3578 1314.31 80.3245C1315.23 78.2912 1317.63 77.373 1319.67 78.2912C1321.7 79.2095 1322.62 81.6035 1321.7 83.6368Z" fill="#0BFAE9"/>
</g>
<g style="mix-blend-mode:multiply">
<path d="M1173.71 206.257C1172.85 208.192 1170.59 209.045 1168.65 208.192C1166.71 207.339 1165.86 205.076 1166.71 203.142C1167.56 201.207 1169.83 200.354 1171.77 201.207C1173.71 202.059 1174.56 204.322 1173.71 206.257Z" fill="#0BFAE9"/>
</g>
<g style="mix-blend-mode:multiply">
<path d="M1227.57 29.2628C1226.62 31.4273 1224.06 32.3784 1221.92 31.4273C1219.75 30.4762 1218.8 27.9182 1219.75 25.7866C1220.71 23.6221 1223.27 22.6711 1225.4 23.6221C1227.57 24.5732 1228.52 27.1312 1227.57 29.2628Z" fill="#0BFAE9"/>
</g>
<g style="mix-blend-mode:multiply">
<path d="M1114.78 80.6853C1113.83 82.7842 1111.37 83.7353 1109.27 82.7842C1107.16 81.8332 1106.21 79.3736 1107.16 77.2747C1108.12 75.1758 1110.58 74.2247 1112.68 75.1758C1114.78 76.1269 1115.74 78.5865 1114.78 80.6853Z" fill="#0BFAE9"/>
</g>
<g style="mix-blend-mode:multiply">
<path d="M1046.47 98.5585C1045.52 100.723 1042.95 101.674 1040.82 100.723C1038.65 99.7719 1037.7 97.2139 1038.65 95.0822C1039.6 92.9178 1042.17 91.9667 1044.3 92.9178C1046.47 93.8688 1047.42 96.4268 1046.47 98.5585Z" fill="#0BFAE9"/>
</g>
<g style="mix-blend-mode:multiply">
<path d="M956.934 24.1141C955.916 26.3769 953.256 27.3936 950.99 26.3769C948.723 25.3603 947.705 22.7039 948.723 20.4411C949.742 18.1782 952.402 17.1616 954.668 18.1782C956.934 19.1949 957.953 21.8512 956.934 24.1141Z" fill="#0BFAE9"/>
</g>
<g style="mix-blend-mode:multiply">
<path d="M1224.91 245.611C1224.06 247.546 1221.79 248.399 1219.85 247.546C1217.92 246.693 1217.06 244.43 1217.92 242.495C1218.77 240.561 1221.04 239.708 1222.97 240.561C1224.91 241.413 1225.76 243.676 1224.91 245.611Z" fill="#0BFAE9"/>
</g>
<g style="mix-blend-mode:multiply">
<path d="M1149.83 83.8008C1148.84 85.998 1146.25 87.0147 1144.02 85.998C1141.81 85.0142 1140.8 82.4234 1141.81 80.1934C1142.8 77.9961 1145.39 76.9794 1147.63 77.9961C1149.86 79.0127 1150.85 81.5707 1149.83 83.8008Z" fill="#0BFAE9"/>
</g>
<g style="mix-blend-mode:multiply">
<path d="M1234.73 1.25599C1233.65 3.65002 1230.86 4.69944 1228.49 3.61721C1226.09 2.53497 1225.04 -0.252574 1226.13 -2.61381C1227.21 -5.00784 1230 -6.05728 1232.37 -4.97505C1234.76 -3.89281 1235.82 -1.10524 1234.73 1.25599Z" fill="#0BFAE9"/>
</g>
</g>
</g>
<path d="M614.183 108.821V90.129C614.183 86.0094 610.924 82.8121 606.805 82.8121C602.808 82.8121 599.426 86.0709 599.426 90.129V108.821H589.896V73.8967H599.426V76.4176C601.763 74.0811 604.284 73.2203 606.805 73.2203C611.355 73.2203 615.659 75.0034 618.856 78.0777C622.053 81.3365 623.836 85.6405 623.836 90.129V108.821H614.183Z" fill="white"/>
<path d="M644.004 109.681C641.79 109.681 639.515 109.128 637.363 108.144C635.396 107.284 633.551 105.931 631.891 104.148C629.247 101.258 627.648 97.4458 627.218 93.4492C627.156 92.7729 627.095 92.0965 627.095 91.2972C627.095 89.7601 627.341 88.1614 627.71 86.5628C628.386 83.4885 629.862 80.6601 631.891 78.5696C633.428 76.9095 635.15 75.6183 637.363 74.5115C639.392 73.5278 641.729 73.0359 644.065 73.0359C646.524 73.0359 648.738 73.4663 650.767 74.5115C653.042 75.5568 654.887 76.971 656.239 78.5696C658.207 80.7216 659.744 83.427 660.482 86.5628C660.851 88.0385 661.035 89.5141 661.035 91.2972C661.035 91.9121 661.035 92.5269 661.035 93.0803H635.457L635.519 93.6337C636.502 98.3681 640.068 101.811 644.065 101.811H644.127C646.34 101.688 648.799 100.274 650.214 99.0444L651.074 98.3681L657.407 103.84L656.239 104.824C655.378 105.562 654.333 106.484 653.165 107.099H653.103C650.337 108.698 647.385 109.559 644.004 109.62V109.681ZM636.564 86.3168L636.256 86.9317H652.058L651.751 86.3168C649.968 83.0581 647.078 81.0291 644.127 81.0291C641.175 81.0291 638.162 83.1196 636.564 86.3168Z" fill="white"/>
<path d="M669.643 105.132C666.507 102.18 664.847 98.1222 664.847 93.7567V77.5859H674.439V93.7567C674.439 97.3229 677.39 100.213 681.141 100.213C684.891 100.213 687.904 97.3229 687.904 93.7567V73.8967H697.558V93.7567C697.558 97.9992 695.774 102.057 692.7 105.132C689.626 108.083 685.629 109.682 681.202 109.682C676.714 109.682 672.594 108.083 669.643 105.132Z" fill="white"/>
<path d="M727.378 104.332C723.935 100.766 722.029 96.0931 722.029 91.3587C722.029 86.5628 723.935 81.8899 727.378 78.3852C730.883 75.0035 735.494 73.0974 740.352 73.0974C745.394 73.0974 749.944 75.0035 753.264 78.3852C756.768 81.8899 758.675 86.5013 758.675 91.3587C758.675 96.2161 756.768 100.828 753.264 104.332C749.821 107.775 745.271 109.682 740.352 109.682C735.617 109.682 730.944 107.775 727.378 104.332ZM731.006 91.3587C731.006 96.6465 735.187 100.889 740.29 100.889C745.455 100.889 749.698 96.6465 749.698 91.3587C749.698 86.0709 745.517 81.8284 740.29 81.8284C735.248 81.8284 731.006 86.1324 731.006 91.3587Z" fill="white"/>
<path d="M720.615 82.6277C721.66 80.2298 723.136 78.0163 725.042 76.1102C725.534 75.6798 726.026 75.2494 726.517 74.819C725.534 74.2656 723.197 73.0974 720.615 73.0974C717.848 73.0974 713.728 74.0197 711.023 76.7866V73.9582H701.431V108.821H711.023V90.3135C711.023 86.1324 714.712 82.6277 719.201 82.6277C719.692 82.6277 720.615 82.6277 720.615 82.6277Z" fill="white"/>
<path d="M796.243 108.821H794.275V77.1556L780.687 95.7858L767.16 77.1556V108.821H765.192V73.8353H767.16L780.687 92.4656L794.275 73.8353H796.243V108.821Z" fill="white"/>
<path d="M804.789 108.821H802.821V73.8353H804.789V108.821Z" fill="white"/>
<path d="M821.206 109.066C817.885 108.267 814.442 106.484 811.306 103.779L812.598 102.303C819.115 107.96 825.264 108.329 828.891 106.669C831.781 105.316 833.441 102.733 833.441 99.5362C833.441 97.1382 832.335 95.2936 829.937 94.0024C827.846 92.8957 825.448 92.4038 824.034 92.1579C823.665 92.0349 823.419 92.0349 823.173 91.9734C822.866 91.8504 822.558 91.8504 822.066 91.7275C820.345 91.3586 817.762 90.8667 815.672 89.6369C812.966 88.0383 811.614 85.7018 811.614 82.689C811.614 81.0289 812.106 79.3688 813.09 77.9546C814.012 76.6019 815.364 75.4952 816.963 74.6959C819.3 73.5891 822.005 73.4047 824.71 73.8966C827.846 74.4499 830.859 75.8026 833.749 78.2006L832.519 79.7377C827.6 75.6796 822.128 74.3884 817.762 76.4175C815.119 77.7087 813.458 80.0451 813.52 82.689C813.52 87.6079 818.07 88.9606 822.374 89.7599C822.804 89.8829 823.235 89.8829 823.481 90.0059C823.665 90.0673 823.972 90.1288 824.28 90.1288C825.756 90.4363 828.461 90.9896 830.797 92.2194C832.15 92.9572 833.195 93.8795 833.933 94.9862C834.794 96.3389 835.286 97.8146 835.286 99.5362C835.286 101.504 834.794 103.348 833.749 104.885C832.765 106.423 831.351 107.529 829.629 108.329C828.031 109.005 826.309 109.435 824.464 109.435C823.542 109.497 822.374 109.312 821.206 109.066Z" fill="white"/>
<path d="M842.418 75.7414V86.4399H859.142V88.2845H842.418V106.976H861.479V108.821H840.451V73.8353H861.479V75.6799H842.418V75.7414Z" fill="white"/>
<path d="M879.74 77.0326C879.74 77.7089 879.617 78.3853 879.371 79.0001C879.126 79.615 878.757 80.1684 878.326 80.5988C877.896 81.0292 877.342 81.3981 876.728 81.644C876.113 81.89 875.498 82.0129 874.76 82.0129H874.699C874.022 82.0129 873.346 81.89 872.731 81.644C872.116 81.3981 871.563 81.0292 871.132 80.5988C870.702 80.1684 870.333 79.615 870.087 79.0001C869.841 78.3853 869.718 77.7089 869.718 77.0326V76.9711C869.718 76.2947 869.841 75.6184 870.087 75.0035C870.333 74.3887 870.702 73.8968 871.132 73.4049C871.563 72.9745 872.116 72.6056 872.731 72.3596C873.346 72.1137 874.022 71.9907 874.699 71.9907H874.76C875.436 71.9907 876.113 72.1137 876.728 72.3596C877.342 72.6056 877.834 72.9745 878.326 73.4049C878.757 73.8353 879.126 74.3887 879.371 75.0035C879.617 75.6184 879.74 76.2332 879.74 76.9711V77.0326ZM878.265 74.8806C877.896 74.2657 877.404 73.7738 876.789 73.4049C876.174 73.036 875.498 72.8515 874.699 72.8515H874.637C873.899 72.8515 873.161 73.036 872.547 73.4049C871.932 73.7738 871.44 74.2657 871.071 74.8806C870.702 75.4954 870.517 76.1718 870.517 76.9711V77.0326C870.517 77.7704 870.702 78.5082 871.071 79.1231C871.44 79.7379 871.932 80.2298 872.547 80.5988C873.161 80.9677 873.838 81.1521 874.637 81.1521H874.699C875.436 81.1521 876.174 80.9677 876.789 80.5988C877.404 80.2298 877.896 79.7379 878.265 79.1231C878.634 78.5082 878.818 77.8319 878.818 77.0326V76.9711C878.818 76.2332 878.634 75.4954 878.265 74.8806ZM872.731 74.3887H874.883C875.498 74.3887 875.99 74.5116 876.297 74.8191C876.666 75.1265 876.789 75.4954 876.789 76.0488C876.789 76.4177 876.666 76.7251 876.482 76.9711C876.297 77.217 876.051 77.4015 875.682 77.5245L876.912 79.615H875.867L874.76 77.7089C874.76 77.7089 874.76 77.7089 874.699 77.7089C874.637 77.7089 874.637 77.7089 874.637 77.7089H873.653V79.615H872.669V74.3887H872.731ZM874.821 76.9096C875.129 76.9096 875.375 76.8481 875.559 76.6637C875.744 76.4792 875.805 76.2947 875.805 76.0488C875.805 75.8028 875.682 75.5569 875.498 75.4339C875.313 75.311 875.067 75.188 874.699 75.188H873.592V76.9096H874.821Z" fill="white"/>
<path d="M591.126 122.25H599.488V123.419H592.417V128.399H599.18V129.567H592.478V134.917H599.549V136.085H591.187V122.25H591.126Z" fill="white"/>
<path d="M601.578 126.124H602.869V127.846C603.054 127.292 603.423 126.862 603.915 126.493C604.407 126.124 605.021 125.94 605.698 125.94C606.19 125.94 606.62 126.001 606.989 126.186C607.358 126.37 607.727 126.616 607.973 126.923C608.219 127.231 608.465 127.6 608.588 128.03H608.649C608.833 127.6 609.018 127.231 609.325 126.923C609.633 126.616 610.002 126.37 610.371 126.186C610.801 126.001 611.231 125.94 611.723 125.94C612.4 125.94 612.953 126.063 613.445 126.37C613.937 126.616 614.306 127.046 614.552 127.538C614.798 128.03 614.982 128.645 614.982 129.321V136.146H613.691V129.629C613.691 128.83 613.506 128.215 613.076 127.784C612.646 127.354 612.092 127.108 611.354 127.108C610.863 127.108 610.432 127.231 610.063 127.477C609.694 127.723 609.387 128.03 609.202 128.461C609.018 128.891 608.895 129.321 608.895 129.875V136.146H607.604V129.506C607.604 128.768 607.419 128.215 606.989 127.784C606.559 127.354 606.005 127.108 605.329 127.108C604.837 127.108 604.407 127.231 604.038 127.477C603.669 127.723 603.361 128.092 603.115 128.522C602.869 128.953 602.808 129.444 602.808 130.059V136.208H601.517V126.124H601.578Z" fill="white"/>
<path d="M617.134 126.124H618.425V128.276C618.61 127.846 618.856 127.415 619.163 127.046C619.471 126.678 619.901 126.432 620.331 126.247C620.762 126.063 621.254 125.94 621.807 125.94C622.668 125.94 623.406 126.124 624.021 126.555C624.635 126.985 625.127 127.6 625.496 128.338C625.865 129.137 626.05 129.998 626.05 131.043C626.05 132.088 625.865 133.011 625.496 133.748C625.127 134.548 624.635 135.101 624.021 135.532C623.406 135.962 622.668 136.146 621.807 136.146C621.254 136.146 620.762 136.023 620.331 135.839C619.901 135.654 619.471 135.409 619.163 135.04C618.856 134.671 618.548 134.302 618.364 133.871V139.344H617.073V126.124H617.134ZM623.283 134.671C623.775 134.363 624.144 133.871 624.389 133.257C624.635 132.642 624.758 131.965 624.758 131.105C624.758 130.305 624.635 129.567 624.389 128.953C624.144 128.338 623.775 127.907 623.283 127.538C622.791 127.231 622.237 127.046 621.623 127.046C621.008 127.046 620.454 127.231 619.962 127.538C619.471 127.846 619.102 128.338 618.794 128.953C618.548 129.567 618.364 130.244 618.364 131.105C618.364 131.904 618.487 132.58 618.794 133.195C619.04 133.81 619.471 134.302 619.962 134.609C620.454 134.917 621.008 135.101 621.623 135.101C622.237 135.163 622.791 135.04 623.283 134.671Z" fill="white"/>
<path d="M629.001 135.962C628.509 135.716 628.14 135.347 627.832 134.917C627.525 134.486 627.402 133.933 627.402 133.379C627.402 132.519 627.709 131.842 628.324 131.35C628.939 130.858 629.8 130.551 630.968 130.49L634.719 130.244V131.227L631.153 131.473C630.353 131.535 629.739 131.719 629.37 132.027C628.939 132.334 628.755 132.765 628.755 133.318C628.755 133.871 628.939 134.302 629.37 134.671C629.8 135.04 630.353 135.162 631.03 135.162C631.645 135.162 632.136 135.04 632.628 134.794C633.12 134.548 633.489 134.179 633.735 133.81C634.043 133.379 634.166 132.888 634.166 132.396V129.444C634.166 128.706 633.92 128.153 633.489 127.723C633.059 127.292 632.444 127.108 631.645 127.108C630.907 127.108 630.353 127.292 629.862 127.6C629.431 127.907 629.124 128.399 629.001 128.952V129.075H627.771V128.952C627.832 128.399 628.017 127.846 628.386 127.415C628.755 126.985 629.124 126.616 629.739 126.37C630.292 126.124 630.968 126.001 631.706 126.001C632.444 126.001 633.12 126.124 633.674 126.431C634.227 126.677 634.657 127.108 634.965 127.6C635.272 128.092 635.395 128.706 635.395 129.383V136.208H634.104V134.363C633.92 134.794 633.674 135.101 633.305 135.408C632.936 135.716 632.567 135.962 632.136 136.085C631.706 136.208 631.214 136.331 630.722 136.331C630.046 136.331 629.493 136.208 629.001 135.962Z" fill="white"/>
<path d="M638.654 135.716C638.224 135.286 638.039 134.671 638.039 133.81V127.231H636.564V126.186H638.039V123.48H639.331V126.186H641.298V127.231H639.331V133.81C639.331 134.363 639.454 134.732 639.7 134.978C639.945 135.224 640.314 135.286 640.745 135.286C640.868 135.286 640.929 135.286 641.052 135.286C641.175 135.286 641.237 135.286 641.298 135.286V136.331C641.175 136.331 641.052 136.392 640.929 136.392C640.806 136.392 640.622 136.392 640.499 136.392C639.638 136.331 639.023 136.146 638.654 135.716Z" fill="white"/>
<path d="M643.143 122.25H644.434V127.969C644.68 127.354 645.11 126.862 645.664 126.493C646.217 126.124 646.893 125.94 647.693 125.94C648.43 125.94 649.045 126.124 649.599 126.432C650.152 126.739 650.582 127.231 650.828 127.846C651.136 128.461 651.259 129.137 651.259 129.998V136.146H650.029V130.182C650.029 129.198 649.783 128.461 649.291 127.907C648.799 127.354 648.123 127.108 647.262 127.108C646.709 127.108 646.217 127.231 645.725 127.538C645.295 127.784 644.926 128.153 644.741 128.645C644.557 129.137 644.372 129.69 644.372 130.305V136.208H643.081V122.25H643.143Z" fill="white"/>
<path d="M653.78 139.467C653.657 139.467 653.534 139.467 653.472 139.405V138.36C653.534 138.36 653.595 138.36 653.657 138.36C653.718 138.36 653.841 138.36 653.903 138.36C654.456 138.36 654.886 138.237 655.255 138.052C655.563 137.806 655.87 137.438 656.055 136.823L656.301 136.208L652.55 126.124H653.903L657.038 135.224L656.731 134.917H657.223L656.915 135.224L660.051 126.124H661.404L657.407 136.884C657.161 137.499 656.915 137.929 656.67 138.36C656.424 138.729 656.055 139.036 655.686 139.221C655.317 139.405 654.825 139.467 654.272 139.467C654.026 139.528 653.903 139.528 653.78 139.467Z" fill="white"/>
<path d="M666.815 122.25H671.303C672.656 122.25 673.886 122.496 674.869 123.05C675.853 123.603 676.591 124.402 677.144 125.386C677.636 126.432 677.944 127.661 677.944 129.137C677.944 130.613 677.698 131.842 677.144 132.888C676.652 133.933 675.853 134.732 674.869 135.285C673.886 135.839 672.717 136.085 671.303 136.085H666.815V122.25ZM671.242 134.978C672.41 134.978 673.332 134.732 674.132 134.302C674.931 133.871 675.546 133.195 675.915 132.334C676.284 131.473 676.529 130.428 676.529 129.198C676.529 127.969 676.345 126.923 675.915 126.063C675.484 125.202 674.931 124.525 674.132 124.095C673.332 123.665 672.348 123.419 671.242 123.419H668.167V134.917H671.242V134.978Z" fill="white"/>
<path d="M679.788 126.124H681.079V127.907C681.264 127.292 681.571 126.8 682.002 126.431C682.432 126.062 682.924 125.878 683.539 125.878C683.723 125.878 683.846 125.878 684.031 125.939C684.154 125.939 684.277 126.001 684.338 126.001V127.231C684.277 127.169 684.154 127.169 683.969 127.108C683.785 127.108 683.6 127.046 683.354 127.046C682.862 127.046 682.493 127.169 682.125 127.415C681.756 127.661 681.51 127.968 681.325 128.399C681.141 128.829 681.018 129.321 681.018 129.875V136.085H679.727V126.124H679.788Z" fill="white"/>
<path d="M685.875 124.095C685.691 123.911 685.629 123.726 685.629 123.48C685.629 123.234 685.691 123.05 685.875 122.865C686.06 122.681 686.244 122.62 686.49 122.62C686.736 122.62 686.921 122.681 687.105 122.865C687.29 123.05 687.351 123.234 687.351 123.48C687.351 123.726 687.29 123.911 687.105 124.095C686.921 124.28 686.736 124.341 686.49 124.341C686.244 124.341 685.998 124.28 685.875 124.095ZM685.814 126.124H687.105V136.085H685.814V126.124Z" fill="white"/>
<path d="M688.458 126.124H689.81L692.823 134.794H692.885L695.959 126.124H697.25L693.561 136.085H692.208L688.458 126.124Z" fill="white"/>
<path d="M699.771 135.716C699.095 135.286 698.541 134.671 698.172 133.933C697.803 133.134 697.619 132.273 697.619 131.228C697.619 130.182 697.803 129.26 698.172 128.461C698.541 127.661 699.033 127.046 699.709 126.616C700.386 126.186 701.124 126.001 702.046 126.001C702.907 126.001 703.706 126.186 704.382 126.616C705.059 127.046 705.551 127.6 705.92 128.338C706.288 129.076 706.473 129.936 706.473 130.982V131.473H698.295V130.49H705.858L705.243 131.412V130.92C705.243 130.121 705.12 129.383 704.874 128.83C704.628 128.276 704.259 127.846 703.768 127.538C703.276 127.231 702.784 127.108 702.169 127.108C701.554 127.108 701.001 127.231 700.57 127.538C700.078 127.846 699.709 128.276 699.464 128.83C699.218 129.383 699.033 130.059 699.033 130.859V131.35C699.033 132.15 699.156 132.826 699.464 133.441C699.709 133.994 700.14 134.425 700.632 134.732C701.124 135.04 701.677 135.163 702.353 135.163C702.845 135.163 703.276 135.101 703.645 134.917C704.013 134.794 704.321 134.548 704.628 134.302C704.874 134.056 705.059 133.687 705.182 133.318V133.257H706.411V133.38C706.35 133.81 706.165 134.179 705.92 134.548C705.674 134.917 705.366 135.224 705.059 135.47C704.69 135.716 704.321 135.962 703.829 136.085C703.337 136.208 702.845 136.331 702.353 136.331C701.247 136.331 700.447 136.146 699.771 135.716Z" fill="white"/>
<path d="M708.133 126.124H709.424V127.846C709.67 127.292 710.101 126.862 710.654 126.493C711.207 126.124 711.884 125.94 712.683 125.94C713.79 125.94 714.651 126.247 715.265 126.923C715.88 127.6 716.188 128.522 716.188 129.69V136.085H714.897V129.936C714.897 129.014 714.651 128.276 714.22 127.784C713.79 127.292 713.113 127.046 712.253 127.046C711.699 127.046 711.146 127.169 710.716 127.415C710.285 127.661 709.916 128.03 709.732 128.522C709.486 129.014 709.363 129.506 709.363 130.182V136.085H708.072V126.124H708.133Z" fill="white"/>
<path d="M722.583 122.25H727.071C728.424 122.25 729.653 122.496 730.637 123.05C731.621 123.603 732.359 124.402 732.912 125.386C733.404 126.432 733.711 127.661 733.711 129.137C733.711 130.613 733.466 131.842 732.912 132.888C732.42 133.933 731.621 134.732 730.637 135.285C729.653 135.839 728.485 136.085 727.071 136.085H722.583V122.25ZM726.948 134.978C728.116 134.978 729.039 134.732 729.838 134.302C730.637 133.871 731.252 133.195 731.621 132.334C731.99 131.473 732.236 130.428 732.236 129.198C732.236 127.969 732.051 126.923 731.621 126.063C731.191 125.202 730.637 124.525 729.838 124.095C729.039 123.665 728.055 123.419 726.948 123.419H723.874V134.917H726.948V134.978Z" fill="white"/>
<path d="M737.093 135.716C736.417 135.286 735.863 134.671 735.494 133.933C735.126 133.134 734.941 132.273 734.941 131.228C734.941 130.182 735.126 129.26 735.494 128.461C735.863 127.661 736.355 127.046 737.032 126.616C737.708 126.186 738.446 126.001 739.368 126.001C740.229 126.001 741.028 126.186 741.704 126.616C742.381 127.046 742.873 127.6 743.242 128.338C743.611 129.076 743.795 129.936 743.795 130.982V131.473H735.617V130.49H743.18L742.565 131.412V130.92C742.565 130.121 742.442 129.383 742.196 128.83C741.95 128.276 741.582 127.846 741.09 127.538C740.598 127.231 740.106 127.108 739.491 127.108C738.876 127.108 738.323 127.231 737.892 127.538C737.4 127.846 737.032 128.276 736.786 128.83C736.54 129.383 736.355 130.059 736.355 130.859V131.35C736.355 132.15 736.478 132.826 736.786 133.441C737.032 133.994 737.462 134.425 737.954 134.732C738.446 135.04 738.999 135.163 739.675 135.163C740.167 135.163 740.598 135.101 740.967 134.917C741.336 134.794 741.643 134.548 741.95 134.302C742.196 134.056 742.381 133.687 742.504 133.318V133.257H743.734V133.38C743.672 133.81 743.488 134.179 743.242 134.548C742.996 134.917 742.688 135.224 742.381 135.47C742.012 135.716 741.643 135.962 741.151 136.085C740.659 136.208 740.167 136.331 739.675 136.331C738.569 136.331 737.769 136.146 737.093 135.716Z" fill="white"/>
<path d="M746.931 135.962C746.377 135.716 745.947 135.347 745.578 134.917C745.271 134.486 745.025 133.933 744.963 133.379V133.318H746.193V133.379C746.316 133.933 746.562 134.425 747.054 134.794C747.484 135.163 748.099 135.286 748.837 135.286C749.329 135.286 749.759 135.224 750.128 135.101C750.497 134.978 750.804 134.732 750.989 134.486C751.173 134.24 751.296 133.933 751.296 133.564C751.296 133.134 751.173 132.765 750.866 132.519C750.62 132.273 750.128 132.027 749.452 131.904L747.915 131.535C746.992 131.289 746.254 130.981 745.824 130.551C745.394 130.121 745.148 129.567 745.148 128.891C745.148 128.338 745.271 127.846 745.578 127.415C745.885 126.985 746.316 126.677 746.808 126.432C747.361 126.186 747.976 126.063 748.652 126.063C749.39 126.063 750.005 126.186 750.497 126.432C751.05 126.677 751.419 127.046 751.727 127.477C752.034 127.907 752.219 128.461 752.28 129.014V129.137H751.05V129.075C750.989 128.522 750.743 128.03 750.312 127.661C749.882 127.292 749.329 127.108 748.652 127.108C748.222 127.108 747.792 127.169 747.484 127.354C747.115 127.477 746.869 127.723 746.685 127.969C746.5 128.215 746.377 128.522 746.377 128.891C746.377 129.26 746.5 129.629 746.808 129.875C747.115 130.121 747.546 130.367 748.222 130.49L749.698 130.859C750.681 131.104 751.419 131.412 751.85 131.842C752.28 132.273 752.464 132.826 752.464 133.502C752.464 134.056 752.28 134.548 751.973 135.04C751.665 135.47 751.173 135.839 750.62 136.085C750.066 136.331 749.39 136.454 748.652 136.454C748.16 136.331 747.484 136.208 746.931 135.962Z" fill="white"/>
<path d="M754.493 124.095C754.309 123.911 754.247 123.726 754.247 123.48C754.247 123.234 754.309 123.05 754.493 122.865C754.678 122.681 754.862 122.62 755.108 122.62C755.354 122.62 755.539 122.681 755.723 122.865C755.908 123.05 755.969 123.234 755.969 123.48C755.969 123.726 755.908 123.911 755.723 124.095C755.539 124.28 755.354 124.341 755.108 124.341C754.862 124.341 754.678 124.28 754.493 124.095ZM754.432 126.124H755.723V136.085H754.432V126.124Z" fill="white"/>
<path d="M760.089 139.344C759.535 139.098 759.044 138.79 758.675 138.421C758.306 138.052 758.06 137.622 757.937 137.13V137.069H759.228L759.29 137.13C759.474 137.561 759.781 137.868 760.273 138.114C760.765 138.36 761.38 138.483 762.179 138.483C763.163 138.483 763.901 138.237 764.393 137.745C764.946 137.253 765.192 136.577 765.192 135.716V133.933H765.131C764.946 134.363 764.7 134.794 764.393 135.101C764.085 135.409 763.655 135.716 763.225 135.9C762.794 136.085 762.302 136.208 761.749 136.208C760.888 136.208 760.15 136.023 759.535 135.593C758.921 135.163 758.429 134.548 758.06 133.81C757.691 133.011 757.506 132.15 757.506 131.105C757.506 130.059 757.691 129.198 758.06 128.399C758.429 127.661 758.921 127.046 759.535 126.616C760.15 126.186 760.888 126.001 761.749 126.001C762.302 126.001 762.794 126.124 763.225 126.309C763.655 126.493 764.024 126.801 764.393 127.108C764.762 127.415 764.946 127.846 765.131 128.276H765.192V126.124H766.422V135.839C766.422 136.577 766.237 137.253 765.93 137.868C765.623 138.483 765.069 138.852 764.454 139.159C763.839 139.467 763.04 139.651 762.179 139.651C761.38 139.713 760.704 139.59 760.089 139.344ZM763.655 134.609C764.147 134.302 764.516 133.81 764.762 133.195C765.008 132.58 765.192 131.904 765.192 131.105C765.192 130.305 765.069 129.629 764.762 129.014C764.516 128.399 764.147 127.969 763.655 127.6C763.163 127.292 762.61 127.108 761.995 127.108C761.38 127.108 760.765 127.292 760.335 127.6C759.843 127.907 759.474 128.399 759.228 129.014C758.982 129.629 758.859 130.305 758.859 131.105C758.859 131.904 758.982 132.642 759.228 133.257C759.474 133.871 759.843 134.302 760.335 134.671C760.827 134.978 761.38 135.163 761.995 135.163C762.61 135.101 763.163 134.978 763.655 134.609Z" fill="white"/>
<path d="M768.635 126.124H769.927V127.846C770.172 127.292 770.603 126.862 771.156 126.493C771.71 126.124 772.386 125.94 773.185 125.94C774.292 125.94 775.153 126.247 775.768 126.923C776.383 127.6 776.69 128.522 776.69 129.69V136.085H775.399V129.936C775.399 129.014 775.153 128.276 774.722 127.784C774.292 127.292 773.616 127.046 772.755 127.046C772.202 127.046 771.648 127.169 771.218 127.415C770.787 127.661 770.418 128.03 770.234 128.522C769.988 129.014 769.865 129.506 769.865 130.182V136.085H768.574V126.124H768.635Z" fill="white"/>
<path d="M779.149 136.023C778.965 135.839 778.903 135.654 778.903 135.408C778.903 135.162 778.965 134.978 779.149 134.794C779.334 134.609 779.518 134.548 779.764 134.548C780.01 134.548 780.195 134.609 780.379 134.794C780.564 134.978 780.625 135.162 780.625 135.408C780.625 135.654 780.564 135.9 780.379 136.023C780.195 136.208 780.01 136.269 779.764 136.269C779.518 136.269 779.334 136.208 779.149 136.023Z" fill="white"/>
<path d="M496.929 120.309C496.806 120.309 496.622 120.309 496.499 120.247C496.376 120.186 496.253 120.124 496.13 120.001L492.256 115.697C492.133 115.574 492.072 115.451 492.01 115.328C491.949 115.205 491.949 115.021 491.949 114.898C491.949 114.713 492.01 114.59 492.072 114.467C492.133 114.344 492.256 114.221 492.318 114.098C492.441 113.975 492.564 113.914 492.687 113.852C492.81 113.791 492.994 113.791 493.117 113.791C493.24 113.791 493.425 113.852 493.548 113.914C493.671 113.975 493.793 114.098 493.916 114.221L497.79 118.525C497.975 118.771 498.097 119.017 498.036 119.325C498.036 119.632 497.913 119.878 497.667 120.124C497.483 120.186 497.175 120.309 496.929 120.309Z" fill="white"/>
<path d="M504.615 128.917C504.492 128.917 504.308 128.917 504.185 128.855C504.062 128.794 503.939 128.732 503.816 128.609L499.942 124.305C499.819 124.182 499.758 124.059 499.696 123.936C499.635 123.813 499.635 123.629 499.635 123.506C499.635 123.321 499.696 123.198 499.758 123.075C499.819 122.952 499.942 122.829 500.004 122.706C500.127 122.584 500.25 122.522 500.372 122.461C500.495 122.399 500.68 122.399 500.803 122.399C500.926 122.399 501.11 122.461 501.233 122.522C501.356 122.584 501.479 122.706 501.602 122.829L505.476 127.133C505.66 127.379 505.783 127.625 505.722 127.933C505.722 128.24 505.599 128.486 505.353 128.732C505.168 128.855 504.861 128.917 504.615 128.917Z" fill="white"/>
<path d="M512.301 137.525C512.178 137.525 511.993 137.525 511.87 137.463C511.747 137.402 511.624 137.34 511.501 137.217L507.628 132.913C507.505 132.79 507.443 132.667 507.382 132.544C507.32 132.421 507.32 132.237 507.32 132.114C507.32 131.929 507.382 131.806 507.443 131.683C507.505 131.56 507.628 131.437 507.689 131.315C507.812 131.192 507.935 131.13 508.058 131.069C508.181 131.007 508.366 131.007 508.489 131.007C508.612 131.007 508.796 131.069 508.919 131.13C509.042 131.192 509.165 131.315 509.288 131.437L513.162 135.741C513.346 135.987 513.469 136.233 513.407 136.541C513.407 136.848 513.284 137.094 513.039 137.34C512.854 137.463 512.608 137.525 512.301 137.525Z" fill="white"/>
<path d="M521.954 138.693C521.893 138.816 521.831 138.939 521.708 139.062C521.585 139.185 521.462 139.246 521.339 139.308L515.867 141.091C515.744 141.152 515.559 141.152 515.437 141.152C515.252 141.152 515.129 141.091 515.006 141.029C514.883 140.968 514.76 140.845 514.637 140.783C514.514 140.66 514.453 140.537 514.391 140.414C514.33 140.291 514.33 140.107 514.33 139.984C514.33 139.861 514.391 139.677 514.453 139.554C514.514 139.431 514.637 139.308 514.76 139.246C514.883 139.185 515.006 139.062 515.191 139.062L520.663 137.279C520.97 137.217 521.278 137.217 521.524 137.34C521.77 137.463 522.016 137.709 522.077 138.016C522.077 138.201 522.015 138.447 521.954 138.693Z" fill="white"/>
<path d="M532.96 135.188C532.899 135.311 532.837 135.434 532.714 135.557C532.591 135.68 532.468 135.742 532.345 135.803L526.873 137.586C526.75 137.648 526.566 137.648 526.443 137.648C526.258 137.648 526.135 137.586 526.012 137.525C525.889 137.463 525.766 137.34 525.643 137.279C525.52 137.217 525.459 137.033 525.397 136.91C525.336 136.787 525.336 136.602 525.336 136.479C525.336 136.356 525.397 136.172 525.459 136.049C525.52 135.926 525.643 135.803 525.766 135.742C525.889 135.68 526.012 135.557 526.197 135.557L531.669 133.774C531.976 133.713 532.284 133.713 532.53 133.836C532.776 133.958 533.022 134.204 533.083 134.512C533.083 134.635 533.083 134.942 532.96 135.188Z" fill="white"/>
<path d="M543.966 131.683C543.904 131.806 543.843 131.929 543.72 132.052C543.597 132.175 543.474 132.237 543.351 132.298L537.879 134.081C537.756 134.143 537.571 134.143 537.448 134.143C537.264 134.143 537.141 134.081 537.018 134.02C536.895 133.958 536.772 133.835 536.649 133.774C536.526 133.651 536.465 133.528 536.403 133.405C536.342 133.282 536.342 133.098 536.342 132.975C536.342 132.852 536.403 132.667 536.465 132.544C536.526 132.421 536.649 132.298 536.772 132.237C536.895 132.175 537.018 132.052 537.203 132.052L542.675 130.269C542.982 130.208 543.29 130.208 543.536 130.331C543.782 130.454 544.027 130.7 544.089 131.007C544.089 131.13 544.089 131.437 543.966 131.683Z" fill="white"/>
<path d="M555.217 106.536C554.972 106.413 554.726 106.167 554.664 105.921C554.541 105.613 554.541 105.306 554.664 105.06L557.062 99.8336C557.124 99.7106 557.185 99.5261 557.308 99.4647C557.431 99.3417 557.554 99.2802 557.677 99.2187C557.8 99.1572 557.984 99.1572 558.107 99.1572C558.23 99.1572 558.415 99.2187 558.538 99.2802C558.661 99.3417 558.784 99.4647 558.907 99.5261C559.03 99.5876 559.091 99.7721 559.153 99.8951C559.214 100.018 559.214 100.202 559.214 100.325C559.214 100.51 559.153 100.633 559.091 100.756L556.693 105.982C556.632 106.105 556.57 106.228 556.447 106.351C556.324 106.474 556.201 106.536 556.078 106.536C555.771 106.597 555.463 106.597 555.217 106.536Z" fill="white"/>
<path d="M550.422 117.05C550.176 116.927 549.93 116.681 549.869 116.435C549.746 116.127 549.746 115.82 549.869 115.574L552.267 110.348C552.328 110.225 552.39 110.04 552.512 109.979C552.635 109.917 552.758 109.794 552.881 109.733C553.004 109.671 553.189 109.671 553.312 109.671C553.435 109.671 553.619 109.733 553.742 109.794C553.865 109.856 553.988 109.979 554.111 110.04C554.234 110.163 554.296 110.286 554.357 110.409C554.419 110.532 554.419 110.717 554.419 110.84C554.419 110.963 554.357 111.147 554.296 111.27L551.898 116.496C551.836 116.619 551.775 116.742 551.652 116.865C551.529 116.988 551.406 117.05 551.283 117.05C551.037 117.111 550.729 117.173 550.422 117.05Z" fill="white"/>
<path d="M545.688 127.625C545.442 127.502 545.196 127.256 545.134 127.01C545.011 126.703 545.011 126.396 545.134 126.15L547.532 120.923C547.594 120.8 547.655 120.616 547.778 120.554C547.901 120.431 548.024 120.37 548.147 120.308C548.27 120.247 548.454 120.247 548.577 120.247C548.7 120.247 548.885 120.308 549.008 120.37C549.131 120.431 549.254 120.554 549.377 120.616C549.5 120.677 549.561 120.862 549.623 120.985C549.684 121.108 549.684 121.292 549.684 121.415C549.684 121.6 549.623 121.723 549.561 121.846L547.163 127.072C547.102 127.195 547.04 127.318 546.917 127.441C546.794 127.564 546.671 127.625 546.548 127.625C546.241 127.687 545.995 127.687 545.688 127.625Z" fill="white"/>
<path d="M550.545 90.7339C550.668 90.7339 550.852 90.7339 550.975 90.7954C551.098 90.8569 551.221 90.9183 551.344 91.0413L555.218 95.3453C555.341 95.4683 555.402 95.5913 555.464 95.7142C555.525 95.8372 555.525 96.0217 555.525 96.1446C555.525 96.3291 555.464 96.4521 555.402 96.575C555.341 96.698 555.218 96.821 555.156 96.944C555.034 97.0669 554.911 97.1284 554.788 97.1899C554.665 97.2514 554.48 97.2514 554.357 97.2514C554.234 97.2514 554.05 97.1899 553.927 97.1284C553.804 97.0669 553.681 96.944 553.558 96.821L549.684 92.517C549.5 92.271 549.377 92.0251 549.438 91.7177C549.438 91.4102 549.561 91.1643 549.807 90.9183C549.992 90.8569 550.299 90.7339 550.545 90.7339Z" fill="white"/>
<path d="M542.859 82.1256C542.982 82.1256 543.166 82.1256 543.289 82.1871C543.412 82.2486 543.535 82.3101 543.658 82.433L547.532 86.7371C547.655 86.86 547.716 86.983 547.778 87.106C547.839 87.2289 547.839 87.4134 547.839 87.5364C547.839 87.7208 547.778 87.8438 547.716 87.9668C547.655 88.0897 547.532 88.2127 547.47 88.3357C547.347 88.4587 547.224 88.5201 547.101 88.5816C546.978 88.6431 546.794 88.6431 546.671 88.6431C546.548 88.6431 546.364 88.5816 546.241 88.5201C546.118 88.4587 545.995 88.3357 545.872 88.2127L541.998 83.9087C541.814 83.6628 541.691 83.4168 541.752 83.1094C541.752 82.8019 541.875 82.556 542.121 82.3101C542.305 82.1871 542.613 82.1256 542.859 82.1256Z" fill="white"/>
<path d="M535.174 73.4563C535.297 73.4563 535.481 73.4563 535.604 73.5178C535.727 73.5793 535.85 73.6408 535.973 73.7637L539.847 78.0677C539.969 78.1907 540.031 78.3137 540.092 78.4367C540.154 78.5596 540.154 78.7441 540.154 78.8671C540.154 79.0515 540.092 79.1745 540.031 79.2975C539.969 79.4204 539.846 79.5434 539.785 79.6664C539.662 79.7894 539.539 79.8508 539.416 79.9123C539.293 79.9738 539.109 79.9738 538.986 79.9738C538.863 79.9738 538.678 79.9123 538.555 79.8508C538.432 79.7893 538.309 79.6664 538.186 79.5434L534.313 75.2394C534.128 74.9934 534.005 74.7475 534.067 74.4401C534.067 74.1326 534.19 73.8867 534.436 73.6408C534.62 73.5793 534.866 73.4563 535.174 73.4563Z" fill="white"/>
<path d="M525.52 72.288C525.582 72.1651 525.643 72.0421 525.766 71.9191C525.889 71.7962 526.012 71.7347 526.135 71.6732L531.607 69.8901C531.73 69.8286 531.915 69.8286 532.038 69.8286C532.222 69.8286 532.345 69.8901 532.468 69.9516C532.591 70.0131 532.714 70.136 532.837 70.1975C532.96 70.3205 533.021 70.4435 533.083 70.5664C533.144 70.6894 533.144 70.8739 533.144 70.9968C533.144 71.1198 533.083 71.3043 533.021 71.4272C532.96 71.5502 532.837 71.6732 532.714 71.7347C532.591 71.7962 532.468 71.9191 532.284 71.9191L526.811 73.7022C526.504 73.7637 526.197 73.7637 525.951 73.6407C525.705 73.5178 525.459 73.2718 525.397 72.9644C525.397 72.8414 525.397 72.5955 525.52 72.288Z" fill="white"/>
<path d="M514.515 75.8543C514.576 75.7314 514.637 75.6084 514.76 75.4854C514.883 75.3624 515.006 75.301 515.129 75.2395L520.602 73.4564C520.725 73.3949 520.909 73.3949 521.032 73.3949C521.216 73.3949 521.339 73.4564 521.462 73.5179C521.585 73.5794 521.708 73.7023 521.831 73.7638C521.954 73.8253 522.016 74.0098 522.077 74.1327C522.139 74.2557 522.139 74.4402 522.139 74.5631C522.139 74.6861 522.077 74.8706 522.016 74.9935C521.954 75.1165 521.831 75.2395 521.708 75.301C521.585 75.3624 521.462 75.4854 521.278 75.4854L515.806 77.2685C515.498 77.33 515.191 77.33 514.945 77.207C514.699 77.0841 514.453 76.8381 514.392 76.5307C514.392 76.4077 514.392 76.1003 514.515 75.8543Z" fill="white"/>
<path d="M503.508 79.359C503.57 79.236 503.631 79.113 503.754 78.9901C503.877 78.8671 504 78.8056 504.123 78.7441L509.595 76.961C509.718 76.8995 509.903 76.8995 510.026 76.8995C510.21 76.8995 510.333 76.961 510.456 77.0225C510.579 77.084 510.702 77.207 510.825 77.2685C510.948 77.3914 511.009 77.5144 511.071 77.6374C511.132 77.7603 511.132 77.9448 511.132 78.0678C511.132 78.1907 511.071 78.3752 511.01 78.4982C510.948 78.6211 510.825 78.7441 510.702 78.8056C510.579 78.8671 510.456 78.9901 510.272 78.9901L504.799 80.7731C504.492 80.8346 504.185 80.8346 503.939 80.7117C503.693 80.5887 503.447 80.3427 503.385 80.0353C503.385 79.9123 503.385 79.6049 503.508 79.359Z" fill="white"/>
<path d="M492.256 104.507C492.502 104.63 492.748 104.876 492.81 105.122C492.933 105.429 492.933 105.736 492.81 105.982L490.412 111.209C490.35 111.332 490.289 111.516 490.166 111.578C490.043 111.701 489.92 111.762 489.797 111.824C489.674 111.885 489.489 111.885 489.367 111.885C489.244 111.885 489.059 111.824 488.936 111.762C488.813 111.701 488.69 111.578 488.567 111.516C488.444 111.393 488.383 111.27 488.321 111.147C488.26 111.024 488.26 110.84 488.26 110.717C488.26 110.594 488.321 110.409 488.383 110.286L490.781 105.06C490.842 104.937 490.904 104.814 491.027 104.691C491.15 104.568 491.273 104.507 491.396 104.507C491.703 104.445 492.01 104.445 492.256 104.507Z" fill="white"/>
<path d="M496.991 93.9925C497.237 94.1155 497.483 94.3614 497.544 94.6074C497.667 94.9148 497.667 95.2222 497.544 95.4682L495.146 100.694C495.085 100.817 495.023 101.002 494.9 101.063C494.777 101.125 494.654 101.248 494.531 101.309C494.408 101.371 494.224 101.371 494.101 101.371C493.978 101.371 493.794 101.309 493.671 101.248C493.548 101.186 493.425 101.063 493.302 101.002C493.179 100.879 493.117 100.756 493.056 100.633C492.994 100.51 492.994 100.326 492.994 100.203C492.994 100.08 493.056 99.8951 493.117 99.7722L495.515 94.5459C495.577 94.4229 495.638 94.2999 495.761 94.1769C495.884 94.054 496.007 93.9925 496.13 93.9925C496.437 93.8695 496.745 93.8695 496.991 93.9925Z" fill="white"/>
<path d="M501.787 83.417C502.033 83.5399 502.278 83.7859 502.34 84.0318C502.463 84.3393 502.463 84.6467 502.34 84.8926L499.942 90.1189C499.88 90.2419 499.819 90.4264 499.696 90.4878C499.573 90.6108 499.45 90.6723 499.327 90.7338C499.204 90.7953 499.02 90.7953 498.897 90.7953C498.774 90.7953 498.589 90.7338 498.466 90.6723C498.343 90.6108 498.22 90.4878 498.097 90.4264C497.974 90.3034 497.913 90.1804 497.851 90.0574C497.79 89.9345 497.79 89.75 497.79 89.627C497.79 89.4426 497.851 89.3196 497.913 89.1966L500.311 83.9703C500.372 83.8474 500.434 83.7244 500.557 83.6014C500.68 83.4785 500.803 83.417 500.926 83.417C501.233 83.3555 501.479 83.3555 501.787 83.417Z" fill="white"/>
<path d="M551.618 141.776C552.405 141.652 553.192 141.362 553.855 140.947C554.56 140.533 555.14 139.953 555.637 139.29C556.382 138.337 556.797 137.136 556.879 135.935C556.962 134.733 556.672 133.532 556.051 132.496C555.43 131.46 554.518 130.632 553.441 130.135C552.364 129.638 551.121 129.472 549.92 129.679C548.718 129.886 547.6 130.425 546.688 131.253C545.777 132.082 545.114 133.118 544.824 134.319C544.493 135.479 544.534 136.722 544.948 137.882C545.363 139 546.067 139.995 547.02 140.699C548.387 141.569 550.002 141.983 551.618 141.776Z" fill="#0BFAE5"/>
<path d="M509.859 96.9926C511.019 97.1169 512.22 96.8683 513.298 96.3297C514.375 95.7912 515.245 94.8798 515.783 93.8026C516.363 92.7255 516.612 91.5241 516.487 90.2813C516.363 89.0799 515.907 87.9199 515.162 86.9671C514.416 86.0142 513.422 85.31 512.262 84.9371C511.102 84.5643 509.9 84.5643 508.74 84.9371C507.581 85.31 506.586 85.9728 505.799 86.9256C505.053 87.8785 504.556 88.997 504.432 90.2399C504.349 91.0684 504.432 91.8555 504.639 92.6427C504.846 93.4298 505.219 94.1341 505.716 94.7969C506.793 95.9983 508.243 96.7854 509.859 96.9926Z" fill="#0BFAE5"/>
<path d="M524.856 114.517C526.513 114.682 528.17 114.351 529.62 113.522C531.07 112.735 532.272 111.492 533.059 110.001C533.846 108.51 534.177 106.811 534.053 105.154C533.929 103.497 533.266 101.881 532.23 100.597C531.195 99.3127 529.786 98.3185 528.212 97.8213C526.638 97.3242 524.98 97.3242 523.406 97.8213C521.832 98.3185 520.423 99.2713 519.388 100.556C518.352 101.881 517.689 103.456 517.523 105.113C517.399 106.231 517.523 107.35 517.813 108.427C518.103 109.504 518.642 110.498 519.346 111.368C520.051 112.238 520.879 112.984 521.873 113.481C522.702 114.061 523.779 114.392 524.856 114.517Z" fill="#0BFAE5"/>
<path d="M544.286 102.917C544.948 103 545.653 102.834 546.233 102.544C546.813 102.212 547.351 101.715 547.683 101.135C547.931 100.68 548.056 100.183 548.097 99.644C548.138 99.1054 548.056 98.6083 547.848 98.1111C547.641 97.614 547.351 97.1997 546.978 96.8269C546.606 96.454 546.15 96.2055 545.653 96.0398C544.99 95.8326 544.286 95.8326 543.623 96.0398C542.96 96.2469 542.38 96.6612 541.966 97.1997C541.551 97.7383 541.261 98.4011 541.179 99.064C541.096 99.9754 541.344 100.928 541.924 101.632C542.546 102.378 543.374 102.834 544.286 102.917Z" fill="#0BFAE5"/>
<path d="M544.244 103.124C543.291 103.041 542.421 102.544 541.8 101.798C541.22 101.011 540.93 100.058 540.971 99.0639C541.013 98.3182 541.344 97.6553 541.8 97.0753C542.256 96.4953 542.877 96.0811 543.54 95.8739C544.244 95.6668 544.948 95.6668 545.653 95.9153C546.357 96.1225 546.937 96.5368 547.393 97.1167C547.848 97.6967 548.138 98.401 548.18 99.1053C548.263 99.851 548.097 100.555 547.765 101.218C547.434 101.881 546.895 102.42 546.274 102.751C545.653 103.041 544.948 103.207 544.244 103.124ZM544.99 96.0811C544.451 96.0396 543.913 96.0811 543.416 96.2882C542.918 96.4953 542.463 96.8268 542.131 97.241C541.717 97.7382 541.468 98.3596 541.427 99.0224C541.344 99.8924 541.593 100.762 542.131 101.467C542.67 102.13 543.457 102.585 544.327 102.668C544.99 102.751 545.611 102.585 546.191 102.254C546.771 101.922 547.227 101.467 547.517 100.887C547.807 100.307 547.931 99.6438 547.89 99.0224C547.807 98.3596 547.558 97.7382 547.185 97.241C546.771 96.7439 546.233 96.3296 545.611 96.1639C545.404 96.1639 545.197 96.1225 544.99 96.0811Z" fill="#0BFAE5"/>
<path d="M516.405 131.46C517.233 131.543 518.02 131.378 518.766 131.005C519.512 130.632 520.092 130.01 520.465 129.265C520.837 128.519 521.003 127.691 520.962 126.821C520.879 125.992 520.547 125.205 520.05 124.583C519.512 123.921 518.807 123.465 518.062 123.216C517.275 122.968 516.446 122.968 515.659 123.216C514.872 123.465 514.168 123.921 513.629 124.583C513.09 125.246 512.8 126.033 512.718 126.862C512.676 127.401 512.718 127.981 512.842 128.519C512.966 129.058 513.256 129.555 513.629 129.969C513.96 130.383 514.375 130.756 514.872 131.005C515.286 131.212 515.825 131.419 516.405 131.46Z" fill="#0BFAE5"/>
<path d="M511.019 89.5769L509.611 91.0683L549.796 136.68L551.204 135.189L511.019 89.5769Z" fill="#0BFAE5"/>
<path d="M545.321 98.1526L524.276 105.03L524.898 106.977L545.943 100.1L545.321 98.1526Z" fill="#0BFAE5"/>
<path d="M525.105 104.118L517.192 125.205L519.056 125.95L526.969 104.864L525.105 104.118Z" fill="#0BFAE5"/>
</g>
<path d="M511.7 254.891H502.32V214.291H490.07V205.051H523.95V214.291H511.7V254.891ZM565.116 254.891H556.296V237.741C556.296 233.961 553.286 231.021 549.506 231.021C545.866 231.021 542.716 234.031 542.716 237.741V254.891H533.966V203.511H542.716V225.141C544.886 222.971 547.196 222.201 549.506 222.201C553.706 222.201 557.626 223.811 560.566 226.681C563.506 229.691 565.116 233.611 565.116 237.741V254.891ZM592.284 255.521C587.874 255.521 583.674 253.841 580.454 250.691C577.304 247.471 575.554 243.271 575.554 238.861C575.554 234.451 577.304 230.251 580.454 227.031C583.604 223.881 587.804 222.201 592.284 222.201C595.224 222.201 597.884 223.251 600.194 225.351L600.544 225.631V222.831H609.014V254.891H600.544V252.371L600.194 252.721C597.674 255.171 594.804 255.521 592.284 255.521ZM592.284 230.391C587.804 230.391 584.024 234.311 584.024 238.861C584.024 243.481 587.804 247.331 592.284 247.331C596.764 247.331 600.544 243.481 600.544 238.861C600.544 234.311 596.764 230.391 592.284 230.391ZM653.745 254.891H644.925V237.741C644.925 233.961 641.915 231.021 638.135 231.021C634.495 231.021 631.345 234.031 631.345 237.741V254.891H622.595V222.831H631.345V225.141C633.515 222.971 635.825 222.201 638.135 222.201C642.335 222.201 646.255 223.811 649.195 226.681C652.135 229.691 653.745 233.611 653.745 237.741V254.891ZM700.333 254.891H689.413L678.283 240.681L675.413 243.621V254.891H666.313V203.511H675.413V231.301L684.233 222.831H696.623L684.583 234.311L700.333 254.891ZM755.525 254.891H746.075V230.251L728.085 205.051H739.565L750.835 220.801L762.105 205.051H773.515L755.525 230.251V254.891ZM790.897 255.661C786.557 255.661 782.287 253.911 778.997 250.761C775.847 247.471 774.097 243.201 774.097 238.861C774.097 234.451 775.847 230.181 778.997 226.961C782.217 223.881 786.417 222.131 790.897 222.131C795.517 222.131 799.717 223.881 802.727 226.961C805.947 230.181 807.697 234.381 807.697 238.861C807.697 243.341 805.947 247.541 802.727 250.761C799.577 253.911 795.377 255.661 790.897 255.661ZM790.897 230.111C786.207 230.111 782.357 234.031 782.357 238.861C782.357 243.691 786.207 247.611 790.897 247.611C795.657 247.611 799.507 243.691 799.507 238.861C799.507 234.031 795.657 230.111 790.897 230.111ZM834.08 255.661C830.02 255.661 826.24 254.191 823.51 251.461C820.64 248.731 819.1 245.021 819.1 241.031V222.831H827.92V241.031C827.92 244.321 830.65 246.981 834.08 246.981C837.51 246.981 840.31 244.321 840.31 241.031V222.831H849.13V241.031C849.13 244.951 847.52 248.661 844.65 251.461C841.85 254.191 838.14 255.661 834.08 255.661ZM869.068 255.591C865.988 255.591 863.468 253.071 863.468 249.921C863.468 248.451 864.098 247.051 865.148 246.001C866.198 244.951 867.598 244.391 869.068 244.391C872.148 244.391 874.598 246.911 874.598 249.921C874.598 251.461 874.038 252.861 872.988 253.911C871.938 254.961 870.538 255.591 869.068 255.591ZM873.688 241.801H864.378V203.511H873.688V241.801Z" fill="#FCFCFC"/>
<defs>
<clipPath id="clip0_2963_17041">
<rect width="1369" height="295" fill="white"/>
</clipPath>
<clipPath id="clip1_2963_17041">
<rect width="1820" height="1073.25" fill="white" transform="translate(-319 -308)"/>
</clipPath>
</defs>
</svg>
